<!--?xml version="1.0" encoding="utf-8"?-->
<!-- Generator: Adobe Illustrator 17.1.0, SVG Export Plug-In . SVG Version: 6.00 Build 0)  -->

<svg version="1.1" id="Layer_1" xmlns="http://www.w3.org/2000/svg" xmlns:xlink="http://www.w3.org/1999/xlink" x="0px" y="0px" viewBox="0 0 76 70" enable-background="new 0 0 76 70" xml:space="preserve" style="">
<path fill="#652C90" d="M38,47.4H9.4c-4.8,0-8.6-3.9-8.6-8.6v-29c0-4.8,3.9-8.6,8.6-8.6h57.4c4.8,0,8.6,3.9,8.6,8.6v16.8
	c0,0.7-0.6,1.3-1.3,1.3s-1.3-0.6-1.3-1.3V9.8c0-3.4-2.8-6.1-6.1-6.1H9.4C6,3.6,3.2,6.4,3.2,9.8v29c0,3.4,2.8,6.1,6.1,6.1H38
	c0.7,0,1.3,0.6,1.3,1.3S38.7,47.4,38,47.4z" class="CIbMMvbO_0"></path>
<g>
	<path fill="#652C90" d="M59,16H12c-0.8,0-1.5-0.7-1.5-1.5S11.2,13,12,13h47c0.8,0,1.5,0.7,1.5,1.5S59.8,16,59,16z" class="CIbMMvbO_1"></path>
	<path fill="#652C90" d="M43,26H12c-0.8,0-1.5-0.7-1.5-1.5S11.2,23,12,23h31c0.8,0,1.5,0.7,1.5,1.5S43.8,26,43,26z" class="CIbMMvbO_2"></path>
	<path fill="#652C90" d="M31,36H12c-0.8,0-1.5-0.7-1.5-1.5S11.2,33,12,33h19c0.8,0,1.5,0.7,1.5,1.5S31.8,36,31,36z" class="CIbMMvbO_3"></path>
</g>
<g>
	<path fill="none" stroke="#008A48" stroke-width="2.5" stroke-linecap="round" stroke-linejoin="round" d="M74.1,67.7V63
		c0-5.2-4.2-9.3-9.3-9.3H48.4c-5.2,0-9.3,4.2-9.3,9.3v4.7" class="CIbMMvbO_4"></path>
	
		<path fill="none" stroke="#008A48" stroke-width="2.5" stroke-linecap="round" stroke-linejoin="round" d="M47.3,37.2A9.3,9.3 0,1,1 65.9,37.2A9.3,9.3 0,1,1 47.3,37.2" class="CIbMMvbO_5"></path>
</g>
<style data-made-with="vivus-instant">.CIbMMvbO_0{stroke-dasharray:342 344;stroke-dashoffset:343;animation:CIbMMvbO_draw_0 8300ms linear 0ms infinite,CIbMMvbO_fade 8300ms linear 0ms infinite;}.CIbMMvbO_1{stroke-dasharray:104 106;stroke-dashoffset:105;animation:CIbMMvbO_draw_1 8300ms linear 0ms infinite,CIbMMvbO_fade 8300ms linear 0ms infinite;}.CIbMMvbO_2{stroke-dasharray:72 74;stroke-dashoffset:73;animation:CIbMMvbO_draw_2 8300ms linear 0ms infinite,CIbMMvbO_fade 8300ms linear 0ms infinite;}.CIbMMvbO_3{stroke-dasharray:48 50;stroke-dashoffset:49;animation:CIbMMvbO_draw_3 8300ms linear 0ms infinite,CIbMMvbO_fade 8300ms linear 0ms infinite;}.CIbMMvbO_4{stroke-dasharray:56 58;stroke-dashoffset:57;animation:CIbMMvbO_draw_4 8300ms linear 0ms infinite,CIbMMvbO_fade 8300ms linear 0ms infinite;}.CIbMMvbO_5{stroke-dasharray:59 61;stroke-dashoffset:60;animation:CIbMMvbO_draw_5 8300ms linear 0ms infinite,CIbMMvbO_fade 8300ms linear 0ms infinite;}@keyframes CIbMMvbO_draw{100%{stroke-dashoffset:0;}}@keyframes CIbMMvbO_fade{0%{stroke-opacity:1;}90.36144578313252%{stroke-opacity:1;}100%{stroke-opacity:0;}}@keyframes CIbMMvbO_draw_0{0%{stroke-dashoffset: 343}28.11244979919678%{ stroke-dashoffset: 0;}100%{ stroke-dashoffset: 0;}}@keyframes CIbMMvbO_draw_1{2.811244979919679%{stroke-dashoffset: 105}30.923694779116463%{ stroke-dashoffset: 0;}100%{ stroke-dashoffset: 0;}}@keyframes CIbMMvbO_draw_2{5.622489959839358%{stroke-dashoffset: 73}33.73493975903614%{ stroke-dashoffset: 0;}100%{ stroke-dashoffset: 0;}}@keyframes CIbMMvbO_draw_3{8.433734939759036%{stroke-dashoffset: 49}36.546184738955816%{ stroke-dashoffset: 0;}100%{ stroke-dashoffset: 0;}}@keyframes CIbMMvbO_draw_4{11.244979919678716%{stroke-dashoffset: 57}39.3574297188755%{ stroke-dashoffset: 0;}100%{ stroke-dashoffset: 0;}}@keyframes CIbMMvbO_draw_5{14.056224899598394%{stroke-dashoffset: 60}42.168674698795186%{ stroke-dashoffset: 0;}100%{ stroke-dashoffset: 0;}}</style></svg>
