<!--?xml version="1.0" encoding="utf-8"?-->
<!-- Generator: Adobe Illustrator 17.1.0, SVG Export Plug-In . SVG Version: 6.00 Build 0)  -->

<svg version="1.1" id="Layer_1" xmlns="http://www.w3.org/2000/svg" xmlns:xlink="http://www.w3.org/1999/xlink" x="0px" y="0px" viewBox="0 0 76 70" enable-background="new 0 0 76 70" xml:space="preserve" style="">
<g>
	<path fill="none" stroke="#008A48" stroke-width="2.5" stroke-linecap="round" stroke-linejoin="round" d="M29.4,14.2L
		49.7,27.7L29.4,41.3Z" class="lDyLSXNG_0"></path>
	<path fill="#652C90" d="M67.1,54.4H8.9c-4.7,0-8.5-3.8-8.5-8.5V9.5C0.4,4.8,4.2,1,8.9,1h58.2c4.7,0,8.5,3.8,8.5,8.5v36.4
		C75.6,50.6,71.8,54.4,67.1,54.4z M8.9,3.5c-3.3,0-6,2.7-6,6v36.4c0,3.3,2.7,6,6,6h58.2c3.3,0,6-2.7,6-6V9.5c0-3.3-2.7-6-6-6H8.9z" class="lDyLSXNG_1"></path>
	<path fill="#652C90" d="M52.6,69H23.4c-0.7,0-1.3-0.6-1.3-1.3s0.6-1.3,1.3-1.3h29.1c0.7,0,1.3,0.6,1.3,1.3S53.2,69,52.6,69z" class="lDyLSXNG_2"></path>
	<path fill="#652C90" d="M38,69c-0.7,0-1.3-0.6-1.3-1.3V53.2c0-0.7,0.6-1.3,1.3-1.3s1.3,0.6,1.3,1.3v14.6C39.3,68.4,38.7,69,38,69z" class="lDyLSXNG_3"></path>
</g>
<style data-made-with="vivus-instant">.lDyLSXNG_0{stroke-dasharray:76 78;stroke-dashoffset:77;animation:lDyLSXNG_draw_0 5900ms linear 0ms infinite,lDyLSXNG_fade 5900ms linear 0ms infinite;}.lDyLSXNG_1{stroke-dasharray:470 472;stroke-dashoffset:471;animation:lDyLSXNG_draw_1 5900ms linear 0ms infinite,lDyLSXNG_fade 5900ms linear 0ms infinite;}.lDyLSXNG_2{stroke-dasharray:67 69;stroke-dashoffset:68;animation:lDyLSXNG_draw_2 5900ms linear 0ms infinite,lDyLSXNG_fade 5900ms linear 0ms infinite;}.lDyLSXNG_3{stroke-dasharray:38 40;stroke-dashoffset:39;animation:lDyLSXNG_draw_3 5900ms linear 0ms infinite,lDyLSXNG_fade 5900ms linear 0ms infinite;}@keyframes lDyLSXNG_draw{100%{stroke-dashoffset:0;}}@keyframes lDyLSXNG_fade{0%{stroke-opacity:1;}86.4406779661017%{stroke-opacity:1;}100%{stroke-opacity:0;}}@keyframes lDyLSXNG_draw_0{1.694915254237288%{stroke-dashoffset: 77}52.54237288135594%{ stroke-dashoffset: 0;}100%{ stroke-dashoffset: 0;}}@keyframes lDyLSXNG_draw_1{1.694915254237288%{stroke-dashoffset: 471}52.54237288135594%{ stroke-dashoffset: 0;}100%{ stroke-dashoffset: 0;}}@keyframes lDyLSXNG_draw_2{1.694915254237288%{stroke-dashoffset: 68}52.54237288135594%{ stroke-dashoffset: 0;}100%{ stroke-dashoffset: 0;}}@keyframes lDyLSXNG_draw_3{1.694915254237288%{stroke-dashoffset: 39}52.54237288135594%{ stroke-dashoffset: 0;}100%{ stroke-dashoffset: 0;}}</style></svg>
