<!--?xml version="1.0" encoding="utf-8"?-->
<!-- Generator: Adobe Illustrator 17.1.0, SVG Export Plug-In . SVG Version: 6.00 Build 0)  -->

<svg version="1.1" id="Layer_1" xmlns="http://www.w3.org/2000/svg" xmlns:xlink="http://www.w3.org/1999/xlink" x="0px" y="0px" viewBox="0 0 76 70" enable-background="new 0 0 76 70" xml:space="preserve" style="">
<path fill="#652C90" d="M32.3,46.7h-23c-4.8,0-8.6-3.9-8.6-8.6v-29c0-4.8,3.9-8.6,8.6-8.6h57.4c4.8,0,8.6,3.9,8.6,8.6v14.5
	c0,0.7-0.6,1.3-1.3,1.3s-1.3-0.6-1.3-1.3V9.1c0-3.4-2.8-6.1-6.1-6.1H9.3C5.9,3,3.2,5.7,3.2,9.1v29c0,3.4,2.8,6.1,6.1,6.1h23
	c0.7,0,1.3,0.6,1.3,1.3S33,46.7,32.3,46.7z" class="XQMPSQXo_0"></path>
<path fill="#008A48" d="M56.9,69.5c-0.2,0-0.4,0-0.6-0.1c-0.7-0.4-17.8-9.1-17.8-22.6v-15c0-0.5,0.3-1,0.8-1.2l17.1-6.4
	c0.3-0.1,0.6-0.1,0.9,0l17.1,6.4c0.5,0.2,0.8,0.6,0.8,1.2v15c0,13.5-17.1,22.2-17.8,22.6C57.3,69.5,57.1,69.5,56.9,69.5z M41,32.7
	v14.1c0,10.7,13,18.4,15.9,20c2.9-1.6,15.9-9.4,15.9-20V32.7l-15.9-6L41,32.7z" class="XQMPSQXo_1"></path>
<path fill="#652C90" d="M73.6,15H2.6c-0.8,0-1.5-0.7-1.5-1.5S1.8,12,2.6,12h70.9c0.8,0,1.5,0.7,1.5,1.5S74.4,15,73.6,15z" class="XQMPSQXo_2"></path>
<path fill="#652C90" d="M14,28H3c-0.8,0-1.5-0.7-1.5-1.5S2.2,25,3,25h11c0.8,0,1.5,0.7,1.5,1.5S14.8,28,14,28z" class="XQMPSQXo_3"></path>
<path fill="none" stroke="#652C90" stroke-width="2.5" stroke-linecap="round" stroke-linejoin="round" d="M45.6,47.3L
	52.9,54.6L68.3,39.1" class="XQMPSQXo_4"></path>
<style data-made-with="vivus-instant">.XQMPSQXo_0{stroke-dasharray:326 328;stroke-dashoffset:327;animation:XQMPSQXo_draw_0 7800ms linear 0ms infinite,XQMPSQXo_fade 7800ms linear 0ms infinite;}.XQMPSQXo_1{stroke-dasharray:248 250;stroke-dashoffset:249;animation:XQMPSQXo_draw_1 7800ms linear 0ms infinite,XQMPSQXo_fade 7800ms linear 0ms infinite;}.XQMPSQXo_2{stroke-dasharray:152 154;stroke-dashoffset:153;animation:XQMPSQXo_draw_2 7800ms linear 0ms infinite,XQMPSQXo_fade 7800ms linear 0ms infinite;}.XQMPSQXo_3{stroke-dasharray:32 34;stroke-dashoffset:33;animation:XQMPSQXo_draw_3 7800ms linear 0ms infinite,XQMPSQXo_fade 7800ms linear 0ms infinite;}.XQMPSQXo_4{stroke-dasharray:33 35;stroke-dashoffset:34;animation:XQMPSQXo_draw_4 7800ms linear 0ms infinite,XQMPSQXo_fade 7800ms linear 0ms infinite;}@keyframes XQMPSQXo_draw{100%{stroke-dashoffset:0;}}@keyframes XQMPSQXo_fade{0%{stroke-opacity:1;}89.74358974358975%{stroke-opacity:1;}100%{stroke-opacity:0;}}@keyframes XQMPSQXo_draw_0{0%{stroke-dashoffset: 327}25.64102564102564%{ stroke-dashoffset: 0;}100%{ stroke-dashoffset: 0;}}@keyframes XQMPSQXo_draw_1{3.205128205128205%{stroke-dashoffset: 249}28.846153846153843%{ stroke-dashoffset: 0;}100%{ stroke-dashoffset: 0;}}@keyframes XQMPSQXo_draw_2{6.41025641025641%{stroke-dashoffset: 153}32.05128205128205%{ stroke-dashoffset: 0;}100%{ stroke-dashoffset: 0;}}@keyframes XQMPSQXo_draw_3{9.615384615384617%{stroke-dashoffset: 33}35.256410256410255%{ stroke-dashoffset: 0;}100%{ stroke-dashoffset: 0;}}@keyframes XQMPSQXo_draw_4{12.82051282051282%{stroke-dashoffset: 34}38.46153846153847%{ stroke-dashoffset: 0;}100%{ stroke-dashoffset: 0;}}</style></svg>
