<!--?xml version="1.0" encoding="utf-8"?-->
<!-- Generator: Adobe Illustrator 17.1.0, SVG Export Plug-In . SVG Version: 6.00 Build 0)  -->

<svg version="1.1" id="Layer_1" xmlns="http://www.w3.org/2000/svg" xmlns:xlink="http://www.w3.org/1999/xlink" x="0px" y="0px" viewBox="0 0 76 70" enable-background="new 0 0 76 70" xml:space="preserve" style="">
<path display="none" fill="none" stroke="#652C90" stroke-width="2.5" stroke-linecap="round" stroke-linejoin="round" d="M29.9,61.2A3,3 0,1,1 35.9,61.2A3,3 0,1,1 29.9,61.2" class="qbzuawJS_0"></path>
<path display="none" fill="none" stroke="#652C90" stroke-width="2.5" stroke-linecap="round" stroke-linejoin="round" d="M62.8,61.2A3,3 0,1,1 68.8,61.2A3,3 0,1,1 62.8,61.2" class="qbzuawJS_1"></path>
<g>
	<path fill="#652C90" d="M33,51.1c-3.5,0-6.6-2.5-7.3-6l-5.2-25.8c0,0,0-0.1,0-0.2L17.7,4.9H6.4c-0.7,0-1.3-0.6-1.3-1.3
		s0.6-1.3,1.3-1.3h12.3c0.6,0,1.1,0.4,1.3,1l2.9,14.4h51.4c0.4,0,0.7,0.2,1,0.5c0.2,0.3,0.3,0.7,0.3,1.1l-4.9,25.9
		c-0.7,3.5-3.8,6-7.3,6c0,0-0.1,0-0.1,0h-30C33.1,51.1,33.1,51.1,33,51.1z M23.4,20.3l4.9,24.3c0.5,2.3,2.5,4,4.9,3.9h30
		c2.4,0.1,4.4-1.6,4.9-3.9l4.6-24.3H23.4z" class="qbzuawJS_2"></path>
	<path fill="#008A48" d="M38.4,67.7c-3.8,0-6.8-3.1-6.8-6.8s3.1-6.8,6.8-6.8c3.8,0,6.8,3.1,6.8,6.8S42.1,67.7,38.4,67.7z M38.4,56.7
		c-2.3,0-4.2,1.9-4.2,4.2s1.9,4.2,4.2,4.2s4.2-1.9,4.2-4.2S40.7,56.7,38.4,56.7z" class="qbzuawJS_3"></path>
	<path fill="#008A48" d="M60.4,67.7c-3.8,0-6.8-3.1-6.8-6.8s3.1-6.8,6.8-6.8s6.8,3.1,6.8,6.8S64.2,67.7,60.4,67.7z M60.4,56.7
		c-2.3,0-4.2,1.9-4.2,4.2s1.9,4.2,4.2,4.2c2.3,0,4.2-1.9,4.2-4.2S62.8,56.7,60.4,56.7z" class="qbzuawJS_4"></path>
	<g>
		
			<path fill="none" stroke="#652C90" stroke-width="2.5" stroke-linecap="round" stroke-linejoin="round" d="M48.1,27.9L48.1,41.9" class="qbzuawJS_5"></path>
		
			<path fill="none" stroke="#652C90" stroke-width="2.5" stroke-linecap="round" stroke-linejoin="round" d="M55.1,34.9L41.1,34.9" class="qbzuawJS_6"></path>
	</g>
	<path fill="#652C90" d="M24,35.3h-8.1c-0.7,0-1.3-0.6-1.3-1.3c0-0.7,0.6-1.3,1.3-1.3H24c0.7,0,1.3,0.6,1.3,1.3
		C25.3,34.8,24.7,35.3,24,35.3z" class="qbzuawJS_7"></path>
	<path fill="#652C90" d="M11.3,35.3h-5c-0.7,0-1.3-0.6-1.3-1.3c0-0.7,0.6-1.3,1.3-1.3h5c0.7,0,1.3,0.6,1.3,1.3
		C12.6,34.8,12.1,35.3,11.3,35.3z" class="qbzuawJS_8"></path>
	<path fill="#652C90" d="M22.6,28H1.8c-0.7,0-1.3-0.6-1.3-1.3c0-0.7,0.6-1.3,1.3-1.3h20.8c0.7,0,1.3,0.6,1.3,1.3
		C23.9,27.4,23.3,28,22.6,28z" class="qbzuawJS_9"></path>
	<path fill="#652C90" d="M25.4,42.7H11.8c-0.7,0-1.3-0.6-1.3-1.3s0.6-1.3,1.3-1.3h13.6c0.7,0,1.3,0.6,1.3,1.3S26.1,42.7,25.4,42.7z" class="qbzuawJS_10"></path>
</g>
<style data-made-with="vivus-instant">.qbzuawJS_0{stroke-dasharray:19 21;stroke-dashoffset:20;animation:qbzuawJS_draw_0 6800ms linear 0ms infinite,qbzuawJS_fade 6800ms linear 0ms infinite;}.qbzuawJS_1{stroke-dasharray:19 21;stroke-dashoffset:20;animation:qbzuawJS_draw_1 6800ms linear 0ms infinite,qbzuawJS_fade 6800ms linear 0ms infinite;}.qbzuawJS_2{stroke-dasharray:359 361;stroke-dashoffset:360;animation:qbzuawJS_draw_2 6800ms linear 0ms infinite,qbzuawJS_fade 6800ms linear 0ms infinite;}.qbzuawJS_3{stroke-dasharray:70 72;stroke-dashoffset:71;animation:qbzuawJS_draw_3 6800ms linear 0ms infinite,qbzuawJS_fade 6800ms linear 0ms infinite;}.qbzuawJS_4{stroke-dasharray:70 72;stroke-dashoffset:71;animation:qbzuawJS_draw_4 6800ms linear 0ms infinite,qbzuawJS_fade 6800ms linear 0ms infinite;}.qbzuawJS_5{stroke-dasharray:15 17;stroke-dashoffset:16;animation:qbzuawJS_draw_5 6800ms linear 0ms infinite,qbzuawJS_fade 6800ms linear 0ms infinite;}.qbzuawJS_6{stroke-dasharray:14 16;stroke-dashoffset:15;animation:qbzuawJS_draw_6 6800ms linear 0ms infinite,qbzuawJS_fade 6800ms linear 0ms infinite;}.qbzuawJS_7{stroke-dasharray:25 27;stroke-dashoffset:26;animation:qbzuawJS_draw_7 6800ms linear 0ms infinite,qbzuawJS_fade 6800ms linear 0ms infinite;}.qbzuawJS_8{stroke-dasharray:19 21;stroke-dashoffset:20;animation:qbzuawJS_draw_8 6800ms linear 0ms infinite,qbzuawJS_fade 6800ms linear 0ms infinite;}.qbzuawJS_9{stroke-dasharray:50 52;stroke-dashoffset:51;animation:qbzuawJS_draw_9 6800ms linear 0ms infinite,qbzuawJS_fade 6800ms linear 0ms infinite;}.qbzuawJS_10{stroke-dasharray:36 38;stroke-dashoffset:37;animation:qbzuawJS_draw_10 6800ms linear 0ms infinite,qbzuawJS_fade 6800ms linear 0ms infinite;}@keyframes qbzuawJS_draw{100%{stroke-dashoffset:0;}}@keyframes qbzuawJS_fade{0%{stroke-opacity:1;}88.23529411764706%{stroke-opacity:1;}100%{stroke-opacity:0;}}@keyframes qbzuawJS_draw_0{0%{stroke-dashoffset: 20}29.411764705882355%{ stroke-dashoffset: 0;}100%{ stroke-dashoffset: 0;}}@keyframes qbzuawJS_draw_1{1.4705882352941175%{stroke-dashoffset: 20}30.88235294117647%{ stroke-dashoffset: 0;}100%{ stroke-dashoffset: 0;}}@keyframes qbzuawJS_draw_2{2.941176470588235%{stroke-dashoffset: 360}32.35294117647059%{ stroke-dashoffset: 0;}100%{ stroke-dashoffset: 0;}}@keyframes qbzuawJS_draw_3{4.411764705882353%{stroke-dashoffset: 71}33.82352941176471%{ stroke-dashoffset: 0;}100%{ stroke-dashoffset: 0;}}@keyframes qbzuawJS_draw_4{5.88235294117647%{stroke-dashoffset: 71}35.294117647058826%{ stroke-dashoffset: 0;}100%{ stroke-dashoffset: 0;}}@keyframes qbzuawJS_draw_5{7.352941176470589%{stroke-dashoffset: 16}36.76470588235294%{ stroke-dashoffset: 0;}100%{ stroke-dashoffset: 0;}}@keyframes qbzuawJS_draw_6{8.823529411764707%{stroke-dashoffset: 15}38.23529411764706%{ stroke-dashoffset: 0;}100%{ stroke-dashoffset: 0;}}@keyframes qbzuawJS_draw_7{10.294117647058822%{stroke-dashoffset: 26}39.705882352941174%{ stroke-dashoffset: 0;}100%{ stroke-dashoffset: 0;}}@keyframes qbzuawJS_draw_8{11.76470588235294%{stroke-dashoffset: 20}41.17647058823529%{ stroke-dashoffset: 0;}100%{ stroke-dashoffset: 0;}}@keyframes qbzuawJS_draw_9{13.23529411764706%{stroke-dashoffset: 51}42.64705882352941%{ stroke-dashoffset: 0;}100%{ stroke-dashoffset: 0;}}@keyframes qbzuawJS_draw_10{14.705882352941178%{stroke-dashoffset: 37}44.11764705882353%{ stroke-dashoffset: 0;}100%{ stroke-dashoffset: 0;}}</style></svg>
