<!--?xml version="1.0" encoding="utf-8"?-->
<!-- Generator: Adobe Illustrator 17.1.0, SVG Export Plug-In . SVG Version: 6.00 Build 0)  -->

<svg version="1.1" id="Layer_1" xmlns="http://www.w3.org/2000/svg" xmlns:xlink="http://www.w3.org/1999/xlink" x="0px" y="0px" viewBox="0 0 76 70" enable-background="new 0 0 76 70" xml:space="preserve" style="">
<g>
	<path fill="#008A48" d="M57.5,54.7c-7.5,0-13.6-6.1-13.6-13.6c0-7.5,6.1-13.6,13.6-13.6c7.5,0,13.6,6.1,13.6,13.6
		C71.1,48.6,65,54.7,57.5,54.7z M57.5,30c-6.1,0-11.1,5-11.1,11.1s5,11.1,11.1,11.1s11.1-5,11.1-11.1S63.6,30,57.5,30z" class="nfXmbhLK_0"></path>
	<path fill="#008A48" d="M66.3,68.9c-0.2,0-0.4-0.1-0.6-0.2l-8.2-4.9l-8.2,4.9c-0.4,0.2-0.9,0.2-1.3,0s-0.6-0.7-0.6-1.2l2.1-16.1
		c0.1-0.7,0.7-1.2,1.4-1.1c0.7,0.1,1.2,0.7,1.1,1.4l-1.8,13.5l6.6-4c0.4-0.2,0.9-0.2,1.3,0l6.6,4l-1.8-13.5
		c-0.1-0.7,0.4-1.3,1.1-1.4c0.7-0.1,1.3,0.4,1.4,1.1l2.1,16.1c0.1,0.5-0.2,0.9-0.6,1.2C66.8,68.8,66.6,68.9,66.3,68.9z" class="nfXmbhLK_1"></path>
</g>
<path fill="#652C90" d="M38,47.4H9.4c-4.8,0-8.6-3.9-8.6-8.6v-29c0-4.8,3.9-8.6,8.6-8.6h57.4c4.8,0,8.6,3.9,8.6,8.6v16.8
	c0,0.7-0.6,1.3-1.3,1.3s-1.3-0.6-1.3-1.3V9.8c0-3.4-2.8-6.1-6.1-6.1H9.4C6,3.6,3.2,6.4,3.2,9.8v29c0,3.4,2.8,6.1,6.1,6.1H38
	c0.7,0,1.3,0.6,1.3,1.3S38.7,47.4,38,47.4z" class="nfXmbhLK_2"></path>
<g>
	
		<path fill="none" stroke="#652C90" stroke-width="3" stroke-linecap="round" stroke-linejoin="round" d="M12,14.5L59,14.5" class="nfXmbhLK_3"></path>
	
		<path fill="none" stroke="#652C90" stroke-width="3" stroke-linecap="round" stroke-linejoin="round" d="M12,24.5L43,24.5" class="nfXmbhLK_4"></path>
	
		<path fill="none" stroke="#652C90" stroke-width="3" stroke-linecap="round" stroke-linejoin="round" d="M12,34.5L31,34.5" class="nfXmbhLK_5"></path>
</g>
<style data-made-with="vivus-instant">.nfXmbhLK_0{stroke-dasharray:156 158;stroke-dashoffset:157;animation:nfXmbhLK_draw_0 8800ms linear 0ms infinite,nfXmbhLK_fade 8800ms linear 0ms infinite;}.nfXmbhLK_1{stroke-dasharray:109 111;stroke-dashoffset:110;animation:nfXmbhLK_draw_1 8800ms linear 0ms infinite,nfXmbhLK_fade 8800ms linear 0ms infinite;}.nfXmbhLK_2{stroke-dasharray:342 344;stroke-dashoffset:343;animation:nfXmbhLK_draw_2 8800ms linear 0ms infinite,nfXmbhLK_fade 8800ms linear 0ms infinite;}.nfXmbhLK_3{stroke-dasharray:47 49;stroke-dashoffset:48;animation:nfXmbhLK_draw_3 8800ms linear 0ms infinite,nfXmbhLK_fade 8800ms linear 0ms infinite;}.nfXmbhLK_4{stroke-dasharray:31 33;stroke-dashoffset:32;animation:nfXmbhLK_draw_4 8800ms linear 0ms infinite,nfXmbhLK_fade 8800ms linear 0ms infinite;}.nfXmbhLK_5{stroke-dasharray:19 21;stroke-dashoffset:20;animation:nfXmbhLK_draw_5 8800ms linear 0ms infinite,nfXmbhLK_fade 8800ms linear 0ms infinite;}@keyframes nfXmbhLK_draw{100%{stroke-dashoffset:0;}}@keyframes nfXmbhLK_fade{0%{stroke-opacity:1;}90.9090909090909%{stroke-opacity:1;}100%{stroke-opacity:0;}}@keyframes nfXmbhLK_draw_0{0%{stroke-dashoffset: 157}11.363636363636363%{ stroke-dashoffset: 0;}100%{ stroke-dashoffset: 0;}}@keyframes nfXmbhLK_draw_1{6.8181818181818175%{stroke-dashoffset: 110}18.181818181818183%{ stroke-dashoffset: 0;}100%{ stroke-dashoffset: 0;}}@keyframes nfXmbhLK_draw_2{13.636363636363635%{stroke-dashoffset: 343}25%{ stroke-dashoffset: 0;}100%{ stroke-dashoffset: 0;}}@keyframes nfXmbhLK_draw_3{20.454545454545457%{stroke-dashoffset: 48}31.818181818181817%{ stroke-dashoffset: 0;}100%{ stroke-dashoffset: 0;}}@keyframes nfXmbhLK_draw_4{27.27272727272727%{stroke-dashoffset: 32}38.63636363636363%{ stroke-dashoffset: 0;}100%{ stroke-dashoffset: 0;}}@keyframes nfXmbhLK_draw_5{34.090909090909086%{stroke-dashoffset: 20}45.45454545454545%{ stroke-dashoffset: 0;}100%{ stroke-dashoffset: 0;}}</style></svg>
