<!--?xml version="1.0" encoding="utf-8"?-->
<!-- Generator: Adobe Illustrator 17.1.0, SVG Export Plug-In . SVG Version: 6.00 Build 0)  -->

<svg version="1.1" id="Layer_1" xmlns="http://www.w3.org/2000/svg" xmlns:xlink="http://www.w3.org/1999/xlink" x="0px" y="0px" viewBox="0 0 76 70" enable-background="new 0 0 76 70" xml:space="preserve" style="">
<g>
	<path fill="#652C90" d="M57.9,69.5H18.1c-4.4,0-7.9-3.5-7.9-7.9V15.1c0-4.4,3.5-7.9,7.9-7.9h6.6c0.7,0,1.3,0.6,1.3,1.3
		s-0.6,1.3-1.3,1.3h-6.6c-3,0-5.4,2.4-5.4,5.4v46.5c0,3,2.4,5.4,5.4,5.4h39.8c3,0,5.4-2.4,5.4-5.4V15.1c0-3-2.4-5.4-5.4-5.4h-6.6
		c-0.7,0-1.3-0.6-1.3-1.3s0.6-1.3,1.3-1.3h6.6c4.4,0,7.9,3.5,7.9,7.9v46.5C65.8,65.9,62.3,69.5,57.9,69.5z" class="tUAYKpaJ_0"></path>
	<path fill="#652C90" d="M48,16.4H28c-2.5,0-4.6-2.1-4.6-4.6V5.1c0-2.5,2.1-4.6,4.6-4.6H48c2.5,0,4.6,2.1,4.6,4.6v6.6
		C52.6,14.3,50.5,16.4,48,16.4z M28,3.1c-1.1,0-2,0.9-2,2v6.6c0,1.1,0.9,2,2,2H48c1.1,0,2-0.9,2-2V5.1c0-1.1-0.9-2-2-2H28z" class="tUAYKpaJ_1"></path>
</g>
<g>
	
		<path fill="none" stroke="#008A48" stroke-width="2.5" stroke-linecap="round" stroke-linejoin="round" d="M20,25.5L56,25.5" class="tUAYKpaJ_2"></path>
	
		<path fill="none" stroke="#008A48" stroke-width="2.5" stroke-linecap="round" stroke-linejoin="round" d="M20,36.5L56,36.5" class="tUAYKpaJ_3"></path>
	
		<path fill="none" stroke="#008A48" stroke-width="2.5" stroke-linecap="round" stroke-linejoin="round" d="M20,47.5L56,47.5" class="tUAYKpaJ_4"></path>
	
		<path fill="none" stroke="#008A48" stroke-width="2.5" stroke-linecap="round" stroke-linejoin="round" d="M20,58.5L56,58.5" class="tUAYKpaJ_5"></path>
</g>
<style data-made-with="vivus-instant">.tUAYKpaJ_0{stroke-dasharray:384 386;stroke-dashoffset:385;animation:tUAYKpaJ_draw_0 6800ms linear 0ms infinite,tUAYKpaJ_fade 6800ms linear 0ms infinite;}.tUAYKpaJ_1{stroke-dasharray:148 150;stroke-dashoffset:149;animation:tUAYKpaJ_draw_1 6800ms linear 0ms infinite,tUAYKpaJ_fade 6800ms linear 0ms infinite;}.tUAYKpaJ_2{stroke-dasharray:36 38;stroke-dashoffset:37;animation:tUAYKpaJ_draw_2 6800ms linear 0ms infinite,tUAYKpaJ_fade 6800ms linear 0ms infinite;}.tUAYKpaJ_3{stroke-dasharray:36 38;stroke-dashoffset:37;animation:tUAYKpaJ_draw_3 6800ms linear 0ms infinite,tUAYKpaJ_fade 6800ms linear 0ms infinite;}.tUAYKpaJ_4{stroke-dasharray:36 38;stroke-dashoffset:37;animation:tUAYKpaJ_draw_4 6800ms linear 0ms infinite,tUAYKpaJ_fade 6800ms linear 0ms infinite;}.tUAYKpaJ_5{stroke-dasharray:36 38;stroke-dashoffset:37;animation:tUAYKpaJ_draw_5 6800ms linear 0ms infinite,tUAYKpaJ_fade 6800ms linear 0ms infinite;}@keyframes tUAYKpaJ_draw{100%{stroke-dashoffset:0;}}@keyframes tUAYKpaJ_fade{0%{stroke-opacity:1;}88.23529411764706%{stroke-opacity:1;}100%{stroke-opacity:0;}}@keyframes tUAYKpaJ_draw_0{0%{stroke-dashoffset: 385}22.058823529411764%{ stroke-dashoffset: 0;}100%{ stroke-dashoffset: 0;}}@keyframes tUAYKpaJ_draw_1{4.411764705882353%{stroke-dashoffset: 149}26.47058823529412%{ stroke-dashoffset: 0;}100%{ stroke-dashoffset: 0;}}@keyframes tUAYKpaJ_draw_2{8.823529411764707%{stroke-dashoffset: 37}30.88235294117647%{ stroke-dashoffset: 0;}100%{ stroke-dashoffset: 0;}}@keyframes tUAYKpaJ_draw_3{13.23529411764706%{stroke-dashoffset: 37}35.294117647058826%{ stroke-dashoffset: 0;}100%{ stroke-dashoffset: 0;}}@keyframes tUAYKpaJ_draw_4{17.647058823529413%{stroke-dashoffset: 37}39.705882352941174%{ stroke-dashoffset: 0;}100%{ stroke-dashoffset: 0;}}@keyframes tUAYKpaJ_draw_5{22.058823529411764%{stroke-dashoffset: 37}44.11764705882353%{ stroke-dashoffset: 0;}100%{ stroke-dashoffset: 0;}}</style></svg>
