<?xml version="1.0" encoding="utf-8"?>
<!-- Generator: Adobe Illustrator 17.1.0, SVG Export Plug-In . SVG Version: 6.00 Build 0)  -->
<!DOCTYPE svg PUBLIC "-//W3C//DTD SVG 1.1//EN" "http://www.w3.org/Graphics/SVG/1.1/DTD/svg11.dtd">
<svg version="1.1" id="Layer_1" xmlns="http://www.w3.org/2000/svg" xmlns:xlink="http://www.w3.org/1999/xlink" x="0px" y="0px"
	 viewBox="0 0 428 77" enable-background="new 0 0 428 77" xml:space="preserve">
<g>
	<path fill-rule="evenodd" clip-rule="evenodd" fill="#EC1C24" d="M293,41.2c0,8.6-7.1,15.6-15.8,15.6c-8.7,0-15.8-7-15.8-15.6
		c0-8.6,7.1-15.6,15.8-15.6C285.9,25.7,293,32.6,293,41.2"/>
	<path fill="#00A650" d="M300.7,41.4L300.7,41.4L300.7,41.4c0,6.3-2.6,11.9-6.8,16c-4.2,4.1-10,6.6-16.3,6.6v0h0h0v0
		c-6.4,0-12.2-2.5-16.4-6.6s-6.8-9.8-6.8-16h0v0v0h0c0-6.3,2.6-11.9,6.8-16c4.2-4.1,10-6.6,16.3-6.6v0h0h0v0
		c6.4,0,12.2,2.5,16.4,6.6C298.1,29.5,300.7,35.2,300.7,41.4L300.7,41.4L300.7,41.4z M300.1,41.4L300.1,41.4L300.1,41.4L300.1,41.4
		L300.1,41.4c0-6.1-2.5-11.6-6.6-15.6c-4.1-4-9.7-6.5-15.9-6.5v0h0h0v0c-6.2,0-11.9,2.5-15.9,6.5c-4.1,4-6.6,9.5-6.6,15.6h0v0v0h0
		c0,6.1,2.5,11.6,6.6,15.6c4.1,4,9.7,6.5,15.9,6.5v0h0h0v0c6.2,0,11.9-2.5,15.9-6.5C297.6,53,300.1,47.5,300.1,41.4"/>
	<polygon fill-rule="evenodd" clip-rule="evenodd" fill="#EC1C24" points="260.5,49.9 259.4,49.2 258.2,49.9 258.5,48.7 257.5,47.8 
		258.8,47.8 259.2,46.5 259.8,47.9 261,47.9 260.2,48.6 	"/>
	<polygon fill-rule="evenodd" clip-rule="evenodd" fill="#EC1C24" points="264.1,54.4 263,54.2 262.3,55.6 261.9,54.2 260.6,54 
		261.8,53.3 261.6,51.9 262.8,53 263.8,52.2 263.3,53.4 	"/>
	<polygon fill-rule="evenodd" clip-rule="evenodd" fill="#EC1C24" points="296.4,49.3 295.4,48.2 293.7,48.9 294.5,47.6 293.4,46.4 
		295,46.5 295.7,45.2 295.9,46.6 297.6,46.9 296.2,47.8 	"/>
	<polygon fill-rule="evenodd" clip-rule="evenodd" fill="#EC1C24" points="293.2,54.9 292.1,53.7 290.7,54.1 291.5,52.9 290.7,51.7 
		292.2,52.2 293,51 293.3,52.5 294.7,52.6 293.1,53.4 	"/>
	<path fill-rule="evenodd" clip-rule="evenodd" fill="#00A650" d="M273.8,61l-0.6-0.4c-0.1-0.1-0.3,0-0.3,0.1
		c-0.1,0.1,0,0.3,0.1,0.3l0.6,0.4c0.1,0.1,0.3,0,0.3-0.1C273.9,61.2,273.9,61.1,273.8,61"/>
	<path fill-rule="evenodd" clip-rule="evenodd" fill="#00A650" d="M287.8,56.1c0.5-0.5,0.1-0.8,0.1-0.8c-6.9,4.8-14.3,2.7-14.3,2.7
		c-2,0-6.2-2.7-6.2-2.7c-0.8,0.4,0.6,1.2,0.6,1.2c0.4,0.1,0.3,1,0.3,1c-0.9,0.6-1.1-0.2-1.1-0.2c0-0.3-0.2-0.2-0.2-0.2
		c-0.4,0.9,0.4,1.3,0.4,1.3c0.1,0.1,1.7-0.2,1.7-0.2c1.2-0.5,1,1.1,1,1.1c-0.4,0.7,0.3,0.8,0.3,0.8c0.1-0.1,0.8-1.7,0.8-1.7
		c0.1-0.8,0.9-0.4,0.9-0.4c0.6,0.3,2.3,0.6,2.3,0.6c1,0,0.6,0.3,0.6,0.3c0,0.1-2.9,0.1-2.9,0.1c-0.6,0.5,0.1,0.8,0.1,0.8
		c1.2-0.1,2.5,1,2.5,1c0.3,0.4,0.8,0.4,0.8,0.4c0.1-0.3,0.3-1.4,0.3-1.4c0-1,0.6-0.9,0.6-0.9c0.5,0.2,2.8,0.1,2.8,0.1
		c0.8-0.2,0.3,0.3,0.3,0.3l-1.7,0.4c-1,0.2-0.8,0.4-0.8,0.4c-0.2,0.7,0.6,0.6,0.6,0.6c2-0.5,2.7,0.5,2.7,0.5
		c0.2,0.4,0.7-0.1,0.7-0.1c-0.1-0.1-0.2-1.5-0.2-1.5l0.6,0c1-0.2,0.4,0.4,0.4,0.4c-0.4,0-0.4,0.4-0.4,0.4c0.2,0.5,1.1-0.2,1.1-0.2
		c0.8-1.1-1.6-1.3-1.6-1.3l1.4-0.3c0.4-0.3,0.7,0,0.7,0l0.5,1.6c0.2,0.8,0.8,0.4,0.8,0.4l-0.5-1.4c-0.3-1.1,0.1-1,0.1-1l2.2-1
		c1-0.8,1-0.3,1-0.3l-1.7,1.3c-1.1,0.8-0.1,1.1-0.1,1.1c1.7-1.6,3.6-0.9,3.6-0.9C289.1,58,287.8,56.1,287.8,56.1 M270.5,58.3
		c-0.3,0.1-0.5-0.3-0.5-0.3c0-0.5-1.3-0.5-1.3-0.5c-0.1-0.5,0.1-0.6,0.1-0.6c0.5-0.4,1.9,0.8,1.9,0.8L270.5,58.3z M275,60.4
		c0,0-0.5,0-1-0.6c0,0-0.2-0.5,0.7-0.2C274.7,59.7,275.4,59.8,275,60.4 M279.9,60.5l-0.3-0.1c-0.8-0.1,0-0.5,0-0.5
		C280.1,59.7,279.9,60.5,279.9,60.5 M287.5,57.9c0,0-0.7,0.1-0.2-0.4c0,0,0.2-0.3,0.5-0.2C287.8,57.3,288.1,57.8,287.5,57.9"/>
	<path fill-rule="evenodd" clip-rule="evenodd" fill="#00A650" d="M287.8,59.1c0,0,0.4-0.6-0.8-0.3c0,0-0.9,0.7,0.2,0.6
		C287.2,59.5,287.6,59.1,287.8,59.1"/>
	<path fill-rule="evenodd" clip-rule="evenodd" fill="#00A650" d="M258.8,36.3c-0.5,0-0.5-0.5-0.5-0.5c-0.3-0.2-0.5,0.7-0.5,0.7
		c0.5,0.1,0.1,0.5,0.1,0.5c-0.6,0.4-0.7,1.9-0.7,1.9c0.3,1.8,1.1,1.3,1.1,1.3c0.5-0.1,0.1-1.3,0.1-1.3c0.2-1.9,0.6,0.2,0.6,0.2
		c0.1,0.8,0.7,0.1,0.7,0.1c-0.1-0.8-0.6-1.6-0.6-1.6c-0.4-0.7-1,0.4-1,0.4c0.1,1.2-0.3,0.8-0.3,0.8c-0.5-1.2,0.5-1.8,0.5-1.8
		c0.5-0.3,1.6,0.1,1.6,0.1c0.7,0.1,0.3-0.4,0.3-0.4L258.8,36.3z"/>
	<path fill-rule="evenodd" clip-rule="evenodd" fill="#00A650" d="M260.7,32.2c-0.8,0-0.7-0.8-0.7-0.8c-0.3-0.3-0.6,0.8-0.6,0.8
		c0.6,0.2,0,0.5,0,0.5c-0.7,0.2-0.9,1.1-0.9,1.1c-0.4,2.2,1.3,1.9,1.3,1.9c1-0.7,0.5-1.8,0.5-1.8c-0.2-0.5-0.6,0.1-0.6,0.1
		c0.3,1.1-0.3,1.2-0.3,1.2c-1-0.8,0.1-2.2,0.1-2.2c0.5-0.8,1.9,0.2,1.9,0.2c0.5,0.3,0.5-0.4,0.5-0.4L260.7,32.2z"/>
	<path fill-rule="evenodd" clip-rule="evenodd" fill="#00A650" d="M279.9,20.8c-1.2-1.5-2.7-1-2.7-1c-1.4,0.1-0.7,0.7-0.7,0.7
		c0.9-0.3,2.1-0.3,2.1-0.3c1.2,0.3,0.4,0.8,0.4,0.8c-0.6-0.2-4.1,0.1-4.1,0.1c-4.2,0.5-8.3,2.9-8.3,2.9c-1.2,0.5-3.9,3.3-3.9,3.3
		l0.3,0.5c-0.1,0.3-0.8,0.3-0.8,0.3c-1,0.3-1.1,1.8-1.1,1.8c-0.3,1,0.6,0.4,0.6,0.4c0.3-0.7,0.5-0.1,0.5-0.1c0.2,0.4,0.6,0,0.6,0
		c0.2,0.1,0.3-1,0.3-1c0.1-1.5,0.6-0.9,0.6-0.9c0.8,0.3,0.5,0.9,0.5,0.9c-0.6,0-0.8,1-0.8,1c0.1,0.6-0.6,1.1-0.6,1.1
		c-0.8,0-0.7,0.2-0.7,0.2c1.7,0.3,1.9-1.2,1.9-1.2c-0.2-0.8,0.4-1,0.4-1c0.5,0.1,0.6-0.3,0.6-0.3c0.4-0.1-0.8-1.1-0.8-1.1
		c-1.2-0.8-0.5-1-0.5-1c0.4-0.2,0.8-0.7,0.8-0.7c0.5-0.7,0.6,0,0.6,0c0.1,0.7,1.1,0.5,1.1,0.5c0.3,0,0.7-0.7,0.7-0.7
		c-0.1-0.4,0.3-0.3,0.3-0.3c0.2,0.8-0.8,1.3-0.8,1.3c-0.5,0.6-1.9,0-1.9,0l0,0.3c1.4,0.8,2.3,0,2.3,0c0.8-0.1,1-1.5,1-1.5
		c-0.3-0.5-1.3-0.3-1.3-0.3c0.1,0.2-0.7,1-0.7,1c-0.7-0.6,0.6-1.7,0.6-1.7c0.1,0.3,1.1,0.2,1.1,0.2c0.8-0.5,0.6,0,0.6,0
		c0.2,0.1,0.2,0.8,0.2,0.8c0.3,0.6,0.5,0.2,0.5,0.2c-0.3-0.3,0.2-1.7,0.2-1.7l-0.6-0.3l-0.7,0.6c-1,0.1-0.5-0.3-0.5-0.3
		c0.2-0.2,1.4-0.9,1.4-0.9c0.7-0.7,1.1,0.8,1.1,0.8c0.2,0.5,0.7,1,0.7,1l0.3-0.3l-0.5-1c-0.8-1.4,0-1.2,0-1.2
		c0.2-0.3,1.8-0.6,1.8-0.6c0.7-0.2-0.2,0.5-0.2,0.5c0,0.6,0.6,0.5,0.6,0.5c0.2-0.4,0.9-0.6,0.9-0.6c1.3-0.1,0.1,0.9,0.1,0.9
		c-1.4,0.9-2.4-0.2-2.4-0.2c-0.4-0.4-0.5,0-0.5,0c0.2,0.3,1.6,1,1.6,1c0.7,0.2,1.6-0.3,1.6-0.3c1.4-1.3,0-1.9,0-1.9
		c-1.2-0.2,0-0.4,0-0.4c1.1-0.4,3.7-0.3,3.7-0.3c0.3,1-0.4,0.7-0.4,0.7c-0.4-0.5-1.5-0.2-1.5-0.2c-1.1,0.5,0.1,0.7,0.1,0.7
		c0.3-0.4,0.6-0.4,0.6-0.4c1.2-0.3,0.3,0.4,0.3,0.4c-0.4,0.6,0.8,0.2,0.8,0.2c0-0.4,0.6-0.3,0.6-0.3c0.7-0.1,0.2,1,0.2,1
		c-0.3-0.3-2,0.1-2,0.1c-0.8-0.9-0.6,0-0.6,0c0.5,0.8,1.4,0.5,1.4,0.5c0.9-0.7,1.1-0.2,1.1-0.2c0.3,0.2,0.5,0.2,0.5,0.2l0.2-1
		c0.2-0.3-0.5-1-0.5-1c0-1,0.8-0.6,0.8-0.6c0.8-0.3,0.4,1.6,0.4,1.6c-0.2,1,0.4,0.8,0.4,0.8c0.2-0.3,0.2-1.7,0.2-1.7
		c-0.3-0.7,0.4-0.6,0.4-0.6l0-0.4C280.1,21.2,279.9,20.8,279.9,20.8 M262.1,29.5c0,0-0.8,0.3-0.3-0.7c0,0,0.1-0.6,0.7-0.4
		C262.5,28.4,262.8,29.3,262.1,29.5"/>
	<path fill-rule="evenodd" clip-rule="evenodd" fill="#00A650" d="M286.6,23.3c0,0,0.4-0.3-1.1-0.9c0,0-2.6-0.9-3.7-1.1
		c0,0-0.8,0.3,0.4,0.6c0,0,1.6,0.3,1.9,0.7h-2.6c0,0-0.7,0.6,0.3,0.8c0,0,1.6,0,1.8,1.1c0,0,0.5,0.7,0.7-0.4c0,0,0.5-1.3,0.7-1.4
		c0,0,1-0.1,0.3,1.2l-0.6,1c0,0,0.1,0.6,0.5,0.3c0,0,0.6-1.1,0.7-1.5C286,23.7,286.2,23.3,286.6,23.3 M283.7,23.9
		c-0.9-0.5-0.4-0.6-0.4-0.6h0.7C284.1,23.5,283.7,23.9,283.7,23.9"/>
	<path fill-rule="evenodd" clip-rule="evenodd" fill="#00A650" d="M286,25.5c0.2-0.1,1.5,1.4,1.5,1.4c0.2-0.3-0.8-1.5-0.8-1.5
		C286.3,24.7,286,25.5,286,25.5"/>
	<path fill-rule="evenodd" clip-rule="evenodd" fill="#00A650" d="M288.9,24.6c0.3-1.1-1.6-1.1-1.6-1.1c-1.1,0.5-0.5,1.3-0.5,1.3
		C288.4,25.9,288.9,24.6,288.9,24.6 M288.1,24.6c0,0-1,0.4-1.1-0.3c0,0,0.4-0.5,0.9-0.3C287.9,24.1,288.9,24.3,288.1,24.6"/>
	<path fill-rule="evenodd" clip-rule="evenodd" fill="#00A650" d="M297.9,39c-0.2,0.1-0.6-0.3-0.6-0.3c0.3,0,0.4-0.3,0.4-0.3
		c0.2-0.4-0.1-1-0.1-1c-0.3,0-0.6-0.5-0.6-0.5c0.3-0.7,0.3-0.9,0.3-0.9c0-1.3-1.7-4.4-1.7-4.4c-0.2-1.1-3.1-4.3-3.1-4.3
		c-0.2-0.4-2.9-2.6-2.9-2.6c-0.7,0.1,0.6,1.1,0.6,1.1c0.3,0.1,1.8,1.6,1.8,1.6c0.3,0.8-0.3,0.5-0.3,0.5c0.2-0.9-1.2-1-1.2-1
		c-0.3-1.2-1-1.1-1-1.1c-1.7-0.4-1.2,1-1.2,1c0.6,0.9,1.3,0.8,1.3,0.8l0.1-0.5c-0.4-0.1-0.9-0.8-0.9-0.8c0.6-0.3,1.1,0.2,1.1,0.2
		c0.7,0,0.5,1,0.5,1l0.4,0.1c1.3-0.1,0.4,1,0.4,1c-1,0.6-0.2,0.9-0.2,0.9l0.9-0.8c0.9-1.3,1.2-0.1,1.2-0.1c0,0.3-1.2,0.9-1.2,0.9
		c-0.7,0.6-0.4,1-0.4,1l1-0.8c0.7-0.7,1.1-0.5,1.1-0.5c0.9,0.7,0.2,0.8,0.2,0.8c-0.8-0.1-1.3,0.4-1.3,0.4c-0.7,1,0.4,1.7,0.4,1.7
		c0.2,0,0.3-0.4,0.3-0.4c-0.3,0-0.6-0.7-0.6-0.7c0.5-1,1.9-0.2,1.9-0.2c1,0.3,0.3,0.8,0.3,0.8c-0.1,0-1.1,0.6-1.1,0.6
		c-0.2,0.7,0.8,1,0.8,1c0.9,0.4,0.8,0.7,0.8,0.7c-1.2,0.1-1.2,0.4-1.2,0.4c0.5-0.2,1,0.1,1,0.1c0.1,0.2,0.7,0.2,0.7,0.2l0.3-0.7
		l-1-1.1c-0.7-0.4-0.2-0.6-0.2-0.6c0.5-0.7,0.8-0.1,0.8-0.1c0.2,0,1.3,3.3,1.3,3.3c0.2,1.8-0.8,0.6-0.8,0.6
		c-0.1-0.6-0.4-0.5-0.4-0.5c-0.4,0.1,0.1,1,0.1,1c0.4,0,0.3,0.5,0.3,0.5c-0.4,0.3,0,1.3,0,1.3l0.5-0.2c-0.4-0.9,0-1,0-1
		c0.5-0.3,0.7,0.6,0.7,0.6c0.3,1.3-1.6,1.3-1.6,1.3c-0.8,0.1-0.2,0.4-0.2,0.4c0.2,0.1,1.9-0.2,1.9-0.2c0.4,0.7,0.6,0.5,0.6,0.5
		C298.2,39.4,297.9,39,297.9,39"/>
	<path fill-rule="evenodd" clip-rule="evenodd" fill="#FFDD00" d="M272,31.1c0,0.1,0,0.1,0,0.2c0.1,0.1,0.1,0.1,0.2,0.2
		c0,0,0,0.1,0,0.1c0,0,0.1,0,0.1,0v0c0.1,0,0.1,0.1,0.2,0.1v-0.1h0.2c0,0.1,0,0.1,0.1,0.2h0.1c0,0,0,0,0,0.1c0,0,0.1,0,0.1,0v0.1
		c0,0,0,0,0.1,0v0.1h0v0.1c0,0,0.1,0,0.1,0c0,0,0,0,0,0.1c0.1,0.1,0.2,0.2,0.3,0.2c0-0.1,0-0.1,0-0.2c0.1,0,0.1,0.1,0.2,0.1v0h0.2
		c0,0,0,0.1,0.1,0.1c0,0,0,0,0.1,0c0-0.1,0-0.1,0-0.1h0c-0.1-0.1,0,0-0.1-0.1v0h-0.1c0-0.1-0.1-0.1-0.2-0.2V32c0,0,0,0-0.1,0v-0.2
		c0.1,0,0.1-0.1,0.2-0.1c0,0.1,0,0,0.1,0.1v0.1c0.1,0.1,0.1,0.1,0.2,0.2c0,0,0,0.1,0,0.1h0v0.3h0v0.1c0,0,0,0,0.1,0v0.1h0
		c0,0,0,0.1,0,0.1h0v0.1c0.1,0.1,0.1,0.2,0.2,0.2h0.1c0,0,0,0,0,0.1h0.1v0c0,0,0.1,0,0.1,0.1c0.1,0.1,0,0.2,0.2,0.2
		c0.2-0.2,0.2,0.1,0.3,0c0,0,0,0,0-0.1c0,0,0,0,0.1,0c0,0,0,0.1,0,0.1h0v0.1l0,0c0,0,0.1-0.1,0.1-0.1h0c0-0.1,0-0.1,0-0.2h0
		c0,0,0-0.1,0.1-0.1c-0.1-0.1-0.1-0.1-0.1-0.2c0.1-0.1,0-0.1,0.2-0.2v0c0.1,0,0.1,0,0.2,0c0,0.1,0.1,0.2,0.1,0.3
		c0.1,0.1,0.2,0.1,0.2,0.2v0.2h0v0.1h0c0,0,0,0.1,0,0.1c0.1,0,0.1,0,0.2,0v0c0.1,0,0.3,0.1,0.3,0.1v0.1h0v0.1
		c-0.1,0.1-0.1,0.1-0.2,0.2c0,0,0,0-0.1,0v0.1h0v0.2h0v0.1c0,0-0.1,0-0.1,0.1c0,0,0,0.1,0,0.1h0v0h0v0.1h0c0,0.1,0,0.3,0,0.4h0v0.2
		h0c0,0.1,0,0.3,0,0.4h0v0c0.1,0,0.2-0.1,0.3-0.1c0,0,0,0,0,0.1h0.1c0,0,0,0,0,0.1h0.1v0h0.1v0c0.1,0,0.3,0.1,0.4,0.1v0h0.1v0h0.1v0
		h0.4v0h0.1v0h0.1v0h0.1v0h0.1v0c0.1,0,0.1,0,0.2,0v0c0.1,0,0.3,0,0.4,0v0h0.1v0h0.1v0h0.3h0.2c0.1,0,0.4,0.2,0.5,0.1v0h0.1v0
		c0.1,0,0.3-0.1,0.4-0.1v0h0.2v0h0.3v0h0.1v0h0.1v0h0.1v0h0.1v0c0.1,0,0.2,0,0.3,0v0h0.2v0c0.1,0,0.3,0,0.4,0v0c0.1,0,0.1,0,0.2,0v0
		c0,0,0.1,0,0.1,0v0c0.1,0,0.3,0,0.4,0v0h0.2c0.2,0.1,0.6,0.2,0.7,0.4c0.1,0,0.1,0,0.2,0.1v0c0.1,0,0.1,0,0.2,0v0h0.1c0,0,0,0,0,0.1
		h0.1v0c0.1,0.1,0,0.1,0.2,0.2c0,0.1,0,0.1,0.1,0.2c-0.1,0-0.1,0-0.2,0v0h-0.1c-0.2-0.1-0.3-0.1-0.5-0.1c0,0.1,0,0.2,0,0.4h0
		c0,0.1-0.1,0.4-0.1,0.5h0v0.2c0,0.1,0.1,0.2,0.1,0.3c-0.1,0,0,0-0.1,0.1h-0.1v0c-0.1-0.1,0-0.1-0.2-0.1v0h0c-0.1,0.1,0,0.3,0,0.3v0
		c0,0-0.4,0-0.5,0v0.1c-0.1,0-0.1,0-0.2-0.1c0,0.1,0,0.2,0,0.2l-0.1,0c0,0,0,0-0.1,0v0.1h0c0,0.1,0,0.1,0,0.1c0,0.1,0,0.3,0,0.4
		c-0.1,0,0,0-0.1,0.1v0c-0.1-0.1-0.1-0.1-0.1-0.2c0,0,0-0.1,0-0.1h-0.1c0,0.1-0.2,0.1-0.2,0.1v0c-0.1,0-0.1,0-0.1-0.1h-0.1l0,0.3
		c-0.1,0-0.1,0.1-0.1,0.1c0,0-0.1,0-0.1,0c0-0.1-0.1-0.1-0.1-0.2c-0.1,0,0,0-0.1,0c-0.1,0-0.1,0-0.1,0.1h0V40c0,0.1-0.1,0.2-0.1,0.2
		c-0.1,0-0.3-0.1-0.4-0.1v0c-0.2,0.1-0.2,0.4-0.4,0.5c-0.1,0-0.2,0-0.3,0.1v0.1c-0.1,0.1,0,0.4,0,0.6h0v0.1h0
		c-0.1,0.2,0.1,0.4,0.1,0.5V42h0v0.1h0v0.1h0v0.1c0,0,0.1,0,0.1,0.1c0,0.1,0,0.1,0.1,0.2c0,0,0,0,0.1,0v0.1h0c0,0.3,0.1,0.6,0.1,0.9
		c0.1,0,0.1,0.1,0.2,0.1c0-0.1,0-0.2-0.1-0.3h0v-0.1h0c-0.1-0.2,0-0.4,0.1-0.5c0,0,0.1,0,0.2,0c0,0,0.1,0.1,0.1,0.1
		c0,0.2,0,0.3,0,0.5h0.1c0,0.1,0,0.1,0.1,0.2c0,0,0.1,0,0.1,0.1v0.1h0v0.1h0c0,0,0,0.1,0,0.1c0,0,0.1,0,0.1,0v0c0,0,0.2,0.1,0.3,0.1
		c0-0.1,0.1-0.1,0.2-0.2v-0.1h0.1c0.1-0.1,0.1-0.1,0.2-0.3c-0.1-0.1,0-0.1-0.1-0.2h0c0,0,0-0.1,0-0.1h0V43h0c0-0.1,0-0.3,0-0.4
		c0,0,0.1-0.1,0.1-0.1c0.1,0,0.3,0,0.3,0c0.1-0.1,0.1-0.2,0.2-0.2c0-0.2,0-0.6,0.1-0.7v0h0.1c0,0,0,0,0,0c0,0.1,0,0.1,0.1,0.2h0.1v0
		c0,0,0.1,0,0.1,0l0.2-0.3c0,0,0,0,0,0c0.1,0,0.1,0.1,0.1,0.1h0c0,0,0-0.1,0-0.1h0v-0.1c0,0,0.1,0,0.1,0c0,0,0.1,0,0.1,0.1v0.1h0
		v0.1h0v0.1h0v0.1h0v0.1h0c0,0.1,0,0.2,0,0.4h0v0.2h0v0.2h0v0.2h0v0.2h0c0,0,0,0,0,0c0,0.1,0,0.3,0,0.4h0v0.2c0,0.1,0.1,0.2,0.1,0.3
		c0,0,0,0,0.1,0v0.1h0c0,0.1,0,0.2,0.1,0.3c0,0,0,0,0.1,0c0,0.1,0,0.2,0,0.3h0v0.2c0,0,0,0,0.1,0V45h0v0.2h0v0.2h0
		c0,0.1,0,0.2,0,0.4h0v0.1h0v0.1h0V46h0v0.1h0c0,0.2,0,0.4,0,0.6h0c0.1,0.2,0,0.5,0,0.7v0.3c0.1,0.2,0,0.5,0,0.7v0.7h0v0.1h0v0.1h0
		v0.1h0v0.1h0v0.1h0c0,0.1,0,0.3-0.1,0.3c0,0.1-0.1,0.1-0.2,0.1c0-0.1-0.1-0.1-0.2-0.2v-0.2h0v0h0v-0.1h0v-0.1h0
		c-0.1-0.1-0.2,0-0.3,0c0-0.2-0.1-0.3-0.2-0.4c-0.1,0.1-0.1,0.1-0.2,0.2v0.1c0,0,0,0-0.1,0v0c-0.1,0.1-0.1,0-0.2,0.2
		c-0.1,0.1,0,0.3,0,0.5h0c0,0.1,0.1,0.5,0.1,0.6h0v0.1h0v0.1h0v0.1h0c0,0.1,0,0.2,0.1,0.4h0c0,0.1,0,0.1,0,0.2h0c0,0,0,0.1,0,0.1h0
		c0,0.1,0.1,0.3,0.1,0.4h-0.1c0,0-0.1,0-0.1-0.1c0-0.1-0.1-0.2-0.1-0.3h0v-0.1h0c0,0,0-0.1,0-0.1h0v-0.1c0,0,0,0-0.1,0V51
		c0,0-0.1,0-0.1-0.1v-0.1l-0.1,0c0-0.1-0.1-0.3-0.1-0.4c0,0-0.1-0.1-0.1-0.1c0,0-0.1-0.1-0.1-0.1c0,0,0,0-0.1,0c0-0.1,0-0.1-0.1-0.2
		h0V50h0c0-0.1,0-0.3,0-0.4h0v-0.1c0,0-0.1,0-0.1-0.1v-0.1l-0.1,0V49c0-0.2-0.1-0.4-0.1-0.7c-0.1-0.1-0.1-0.1-0.2-0.2v-0.1h0
		c0-0.1,0-0.3,0-0.3c0-0.2,0-0.5,0-0.7h0V47c0,0,0,0-0.1,0v-0.1h0c0,0,0-0.1,0-0.1h0c0-0.3,0-0.5-0.1-0.8h0v-0.1h0v-0.1
		c0,0,0,0-0.1,0v-0.1c0,0-0.1,0-0.1-0.1c0,0,0,0,0-0.1c0,0-0.1,0-0.1,0c0-0.1,0-0.1,0-0.2h0v-0.1c0,0,0,0-0.1,0v-0.1
		c0,0-0.1,0-0.1-0.1v-0.1c-0.1-0.1-0.2-0.2-0.3-0.3v-0.1c-0.1-0.1-0.1-0.1-0.2-0.2H281v0.2c0,0,0,0,0,0l-0.3,0.1v0h-0.1v0
		c-0.1,0-0.1-0.1-0.2-0.1v0c-0.1,0-0.1,0.1-0.1,0.2c0.1,0.1,0.2,0.1,0.2,0.3c-0.1,0.1,0,0.1-0.1,0.1c-0.1,0.1-0.4-0.1-0.6-0.2v0.1
		c0,0-0.1,0-0.1,0c0,0,0,0,0,0.1c-0.1,0-0.1,0-0.2,0c-0.1-0.1-0.1-0.2-0.2-0.2c0,0-0.1,0-0.1,0c0,0,0,0,0-0.1h-0.1
		c-0.1-0.1-0.1-0.1-0.2-0.2c0,0,0,0-0.1,0v-0.1c0,0,0,0-0.1,0v-0.1h0v-0.1h0c0-0.1,0-0.1-0.1-0.2v0h-0.2c0,0.1,0,0.1,0,0.2
		c-0.1,0-0.1,0-0.2,0.1c0,0,0,0.1,0,0.1c-0.1,0-0.1,0-0.2,0c0,0.1,0,0.1,0,0.2c0.1,0,0.1,0.1,0.1,0.1h0c0,0.1-0.1,0.1-0.1,0.2
		c0.1,0.1,0.1,0.1,0.2,0.2c0,0,0.1,0,0.1,0.1c0,0.1,0,0,0.1,0.1c0,0.1,0,0.2,0,0.3h0c0,0.1,0,0.1,0,0.1v0.3h0v0.1h0
		c0,0.1,0,0.1-0.1,0.2h0c0,0,0,0.1,0,0.1c-0.1,0.1-0.1,0.1-0.2,0.2c0,0.1,0,0.3-0.1,0.4c-0.1,0-0.1,0-0.2,0.1c0-0.1,0-0.1-0.1-0.2
		h-0.1c-0.1,0.1-0.1,0.1-0.2,0.3h-0.1v0c-0.1,0,0-0.1-0.1-0.1h0v-0.1h0v0c-0.1,0.1,0,0.2,0,0.3c-0.1,0.4-0.2,0.4-0.6,0.4
		c0-0.1,0-0.2,0.1-0.3c-0.1,0-0.2,0-0.2,0c0.1-0.1,0.1-0.2,0.1-0.4c0,0,0,0,0,0c-0.1,0-0.2,0-0.2,0.1v0c-0.1,0-0.1,0-0.2,0
		c0,0,0-0.1,0-0.2c0,0,0,0,0-0.1h0v-0.1h0v-0.2h0v0c-0.1,0.1-0.2,0.2-0.3,0.3h0.1c0.1,0.1,0.1,0.1,0.1,0.3c0,0.1,0.1,0.2,0.1,0.2h0
		c0,0.1-0.1,0.1-0.2,0.1v0h-0.1c0,0,0,0,0,0c0,0.1,0,0.1,0,0.2c-0.1,0-0.2,0-0.2,0c0-0.1-0.1-0.3-0.2-0.4v0.1h0c0,0,0,0.1,0,0.1h0
		c0,0.1,0,0.1,0.1,0.1h0c0,0.1,0,0.2,0,0.3c0,0,0,0.1-0.1,0.1c-0.1,0-0.2,0.1-0.4,0.1c0,0-0.1,0-0.1-0.1v-0.1h0v-0.1
		c0,0-0.1,0-0.1-0.2c0,0,0.1,0,0.1-0.1c0.1-0.1,0.1-0.2,0.1-0.3c-0.1,0,0,0-0.1-0.1c0-0.1,0-0.1,0-0.2h0v-0.3h0c0-0.1,0-0.1,0-0.2
		h-0.1v0.2h0c0,0.1,0,0.1,0,0.2h0c0,0.1,0.1,0.1,0.1,0.2c-0.1,0-0.1,0-0.2,0c0,0,0,0.1,0,0.1c0,0.2,0.1,0.5-0.2,0.5
		c0,0,0-0.1-0.1-0.1c0-0.1,0.1-0.3,0.1-0.4h0v-0.1c0,0-0.1,0-0.1-0.1v-0.4h0v-0.1h0c0,0.1-0.1,0.1-0.2,0.2c0,0.2,0,0.3,0.1,0.5h0
		v0.1h0c0,0.1,0,0.2,0,0.3c-0.1,0-0.1,0-0.2-0.1c0-0.1,0-0.2,0-0.3h0c0-0.1,0-0.1,0-0.2c-0.1,0-0.1-0.1-0.2-0.1
		c0,0.3-0.1,0.4-0.2,0.6c-0.1,0,0,0-0.1,0c-0.1,0-0.1-0.1-0.2-0.2c0-0.2,0-0.3,0-0.5h0c0-0.1,0-0.2,0-0.3c0-0.1,0-0.2,0-0.3h0v-0.1
		h0c0-0.1,0-0.2-0.1-0.3h0v-0.1h0c0-0.1,0-0.1,0-0.2h0v-0.1h0v-0.1h0c0-0.1,0-0.3,0-0.3c0-0.1,0-0.2-0.1-0.3v-0.3
		c0-0.1-0.1-0.2-0.1-0.3h0v-0.1h0c0.1-0.1,0.1-0.1,0.1-0.3c-0.1-0.1,0-0.1-0.1-0.1c-0.1-0.1-0.1-0.1-0.2-0.2v-0.1
		c-0.1-0.1-0.1-0.2-0.1-0.4c0,0,0,0,0-0.1c0.1,0,0.1,0,0.2-0.1c0-0.2,0-0.2,0-0.3c0,0,0,0,0.1-0.1h0.1c0,0,0,0,0-0.1
		c0.1,0,0.1,0,0.2-0.1c-0.1-0.1-0.1-0.1-0.3-0.1c0,0.1-0.1,0.1-0.2,0.2c-0.1,0-0.5-0.1-0.5-0.2v-0.1h0.2c0,0,0-0.1,0-0.1
		c-0.1-0.1-0.1-0.1,0-0.2v-0.1h0v-0.1c0,0,0,0,0.1,0V42c0,0,0,0,0.1,0c0,0,0-0.1,0.1-0.2c0,0-0.1-0.1-0.1-0.1h-0.2v0h-0.1v0
		c-0.1,0-0.1,0-0.2,0c-0.1-0.1-0.2-0.4-0.2-0.5c0.1,0,0.1-0.1,0.2-0.2c0-0.1-0.1-0.2-0.1-0.3c0,0,0,0,0-0.1c0.2,0,0.3-0.1,0.5-0.1
		c0-0.1,0-0.2,0-0.3h0v-0.1h0c0-0.1,0-0.1,0-0.2c-0.1-0.1-0.2-0.1-0.2-0.3h0v0h0.2v0c0,0,0,0,0-0.1c0-0.1-0.1-0.2-0.1-0.3
		c-0.1-0.1-0.1-0.1-0.2-0.2c-0.1,0-0.3,0-0.4,0v0h-0.2v0h-0.1l-0.3-0.2v-0.1c0,0-0.1,0-0.1-0.1v0h-0.1v0h-0.1v0H271v0
		c-0.1,0-0.1,0-0.2-0.1v0h-0.1c0,0-0.1-0.1-0.1-0.2c0,0,0,0-0.1,0v-0.1h0v-0.1h0v-0.1c0,0,0,0-0.1,0V38h0c0-0.1,0-0.3,0-0.4h0
		c0.1-0.3,0.4-0.1,0.4-0.5c-0.2-0.1,0-0.3,0.2-0.3l0.1,0.3h0.1c0.1-0.1,0.1-0.2,0.2-0.2c0,0,0,0,0-0.1h0.1v0
		c0.1-0.1,0.2,0.1,0.2-0.1c0.1-0.1,0,0,0-0.1h0v-0.1h0c0.1-0.2-0.1-0.3-0.1-0.4c0.2-0.1,0.4-0.1,0.6-0.1v0h0.1c0,0,0,0,0,0.1h0.1v0
		h0.4c0.2,0.1,0.3,0.1,0.5,0v-0.2c0.1,0,0.1,0,0.2,0v-0.1h0v0c-0.1,0-0.2,0-0.2,0c0,0,0,0,0-0.1h-0.1c0,0-0.1-0.1-0.1-0.1
		c0,0-0.1,0-0.2-0.1v-0.1h0v-0.1c0.1,0,0,0,0.1-0.1c0-0.1,0-0.1-0.1-0.2c0,0-0.1-0.1-0.1-0.1v0c0,0-0.1,0-0.1,0v0
		c0,0-0.2,0.1-0.2,0.1v0c0,0-0.1,0-0.1-0.1v0h-0.1l0-0.1h-0.1c0,0,0,0,0-0.1h-0.1v0c-0.1,0-0.1,0-0.2-0.1v0h-0.1
		c0-0.1-0.1-0.1-0.1-0.2c0,0-0.1,0-0.1-0.1v-0.1h0c0-0.1,0-0.1,0-0.2h0c-0.1-0.1-0.1-0.1-0.2-0.2c0-0.1,0-0.1-0.1-0.2
		c-0.1-0.1-0.2,0-0.3,0v0c-0.1,0-0.1,0-0.1,0c0-0.1,0-0.2,0-0.3c-0.1-0.1,0-0.3,0-0.4c0.1,0,0.1-0.1,0.2-0.1c-0.1,0-0.1,0-0.1-0.1
		c0.1,0,0.1-0.1,0.2-0.2v-0.2h0v-0.1c0.1-0.1,0.1,0,0.2-0.1c0.1-0.1,0.1-0.1,0.2-0.2v-0.1h0v-0.1c0.1-0.1,0.3-0.1,0.5-0.1v0h0.1V32
		H272v-0.2c-0.1,0-0.3-0.1-0.3-0.1v0c0,0-0.1,0-0.2,0c0-0.1,0-0.2,0-0.2c0,0,0,0,0.1,0v-0.2h0C271.8,31.1,271.8,31.1,272,31.1"/>
	<path fill="#00A650" d="M310,50.7c0.7-0.1,1.7-0.2,2.7-0.2c1.7,0,2.8,0.3,3.7,1c0.9,0.7,1.5,1.8,1.5,3.4c0,1.7-0.6,2.9-1.5,3.6
		c-0.9,0.8-2.4,1.2-4.1,1.2c-1.1,0-1.8-0.1-2.3-0.1V50.7z M312.1,58c0.2,0,0.5,0,0.7,0c1.8,0,3-1,3-3.1c0-1.9-1.1-2.8-2.8-2.8
		c-0.5,0-0.7,0-0.9,0.1V58z"/>
	<rect x="318.9" y="50.6" fill="#00A650" width="2" height="8.9"/>
	<path fill="#00A650" d="M324.5,59.6l-2.9-8.9h2.2l1.1,3.8c0.3,1.1,0.6,2.1,0.8,3.2h0c0.2-1.1,0.5-2.1,0.8-3.2l1.1-3.8h2.2l-3,8.9
		H324.5z"/>
	<rect x="330.5" y="50.6" fill="#00A650" width="2" height="8.9"/>
	<path fill="#00A650" d="M334,57.5c0.5,0.3,1.4,0.6,2.2,0.6c0.9,0,1.4-0.4,1.4-1c0-0.6-0.4-0.9-1.5-1.3c-1.5-0.5-2.5-1.3-2.5-2.6
		c0-1.5,1.3-2.7,3.4-2.7c1,0,1.8,0.2,2.3,0.5l-0.5,1.6c-0.4-0.2-1-0.4-1.9-0.4c-0.9,0-1.3,0.4-1.3,0.9c0,0.6,0.5,0.8,1.7,1.3
		c1.6,0.6,2.3,1.4,2.3,2.7c0,1.5-1.2,2.8-3.6,2.8c-1,0-2-0.3-2.5-0.5L334,57.5z"/>
	<rect x="340.7" y="50.6" fill="#00A650" width="2" height="8.9"/>
	<path fill="#00A650" d="M352.3,55c0,2.9-1.8,4.7-4.4,4.7c-2.7,0-4.2-2-4.2-4.6c0-2.7,1.7-4.7,4.4-4.7
		C350.8,50.5,352.3,52.5,352.3,55 M345.9,55.1c0,1.8,0.8,3,2.2,3c1.4,0,2.2-1.3,2.2-3c0-1.6-0.8-3-2.2-3
		C346.7,52.1,345.9,53.4,345.9,55.1"/>
	<path fill="#00A650" d="M353.3,59.6v-8.9h2.4l1.9,3.3c0.5,0.9,1.1,2.1,1.5,3.1h0c-0.1-1.2-0.2-2.4-0.2-3.7v-2.6h1.9v8.9h-2.1
		l-1.9-3.5c-0.5-1-1.1-2.1-1.6-3.2l0,0c0.1,1.2,0.1,2.4,0.1,3.9v2.7H353.3z"/>
	<rect x="310" y="20.1" fill="#00A650" width="5.9" height="26.4"/>
	<polygon fill="#00A650" points="360.7,20.1 340.5,20.1 340.5,25.2 347.6,25.2 347.6,46.6 353.5,46.6 353.5,25.2 360.7,25.2 	"/>
	<path fill="#00A650" d="M318.3,33.9c0,5.9,3.4,12.7,14.1,12.7c3.2,0,5.6-0.8,5.6-0.8v-4.9c0,0-1.9,0.8-4.7,0.8
		c-5.1,0-8.7-2.6-8.7-8.4c0-5.7,3.8-8.5,8.3-8.5c3.1,0,5.1,1,5.1,1v-5.2c0,0-1.6-0.5-5.3-0.5C325.9,20.1,318.3,24,318.3,33.9"/>
	<polygon fill="#EC1C24" points="257.5,71.1 260.7,71.1 260.7,71.8 258.3,71.8 258.3,73 260.4,73 260.4,73.7 258.3,73.7 258.3,75.8 
		257.5,75.8 	"/>
	<path fill="#EC1C24" d="M265.2,71.1h0.8v2.7c0,0.2,0,0.3,0,0.5c0,0.2,0.1,0.3,0.1,0.4c0.1,0.1,0.2,0.2,0.3,0.3
		c0.1,0.1,0.4,0.1,0.6,0.1c0.3,0,0.5,0,0.6-0.1c0.1-0.1,0.3-0.2,0.3-0.3c0.1-0.1,0.1-0.3,0.1-0.4c0-0.2,0-0.3,0-0.5v-2.7h0.8v3
		c0,0.3,0,0.6-0.1,0.8c-0.1,0.2-0.2,0.4-0.4,0.6c-0.2,0.2-0.4,0.3-0.6,0.3c-0.2,0.1-0.5,0.1-0.8,0.1s-0.6,0-0.8-0.1
		s-0.4-0.2-0.6-0.3c-0.2-0.2-0.3-0.3-0.4-0.6c-0.1-0.2-0.1-0.5-0.1-0.8V71.1z"/>
	<polygon fill="#EC1C24" points="273.4,71.1 277.2,71.1 277.2,71.8 275.7,71.8 275.7,75.8 274.9,75.8 274.9,71.8 273.4,71.8 	"/>
	<path fill="#EC1C24" d="M281.6,71.1h0.8v2.7c0,0.2,0,0.3,0,0.5c0,0.2,0.1,0.3,0.1,0.4c0.1,0.1,0.2,0.2,0.3,0.3
		c0.1,0.1,0.4,0.1,0.6,0.1c0.3,0,0.5,0,0.6-0.1c0.1-0.1,0.3-0.2,0.3-0.3s0.1-0.3,0.1-0.4c0-0.2,0-0.3,0-0.5v-2.7h0.8v3
		c0,0.3,0,0.6-0.1,0.8c-0.1,0.2-0.2,0.4-0.4,0.6c-0.2,0.2-0.4,0.3-0.6,0.3s-0.5,0.1-0.8,0.1c-0.3,0-0.6,0-0.8-0.1
		c-0.2-0.1-0.4-0.2-0.6-0.3c-0.2-0.2-0.3-0.3-0.4-0.6c-0.1-0.2-0.1-0.5-0.1-0.8V71.1z"/>
	<path fill="#EC1C24" d="M290.3,71.1h2.2c0.5,0,0.9,0.1,1.2,0.3c0.3,0.2,0.4,0.5,0.4,0.9c0,0.2,0,0.4-0.1,0.6
		c-0.1,0.1-0.1,0.3-0.2,0.4c-0.1,0.1-0.2,0.2-0.3,0.2c-0.1,0-0.1,0.1-0.2,0.1v0c0.1,0,0.1,0,0.2,0.1c0.1,0,0.2,0.1,0.2,0.2
		c0.1,0.1,0.1,0.2,0.2,0.3c0,0.1,0.1,0.3,0.1,0.5c0,0.3,0,0.5,0.1,0.8c0,0.2,0.1,0.4,0.2,0.5h-0.9c-0.1-0.1-0.1-0.2-0.1-0.3
		c0-0.1,0-0.2,0-0.4c0-0.2,0-0.4,0-0.6c0-0.2-0.1-0.3-0.1-0.4s-0.2-0.2-0.3-0.2s-0.3-0.1-0.5-0.1h-1.2v1.9h-0.8V71.1z M291.1,73.2
		h1.3c0.3,0,0.5-0.1,0.6-0.2s0.2-0.3,0.2-0.6c0-0.1,0-0.3-0.1-0.4c0-0.1-0.1-0.2-0.2-0.2c-0.1-0.1-0.2-0.1-0.3-0.1
		c-0.1,0-0.2,0-0.3,0h-1.3V73.2z"/>
	<polygon fill="#EC1C24" points="298.8,71.1 302.2,71.1 302.2,71.8 299.6,71.8 299.6,73 302,73 302,73.7 299.6,73.7 299.6,75.1 
		302.2,75.1 302.2,75.8 298.8,75.8 	"/>
	<rect x="312.5" y="71.1" fill="#EC1C24" width="0.8" height="4.7"/>
	<path fill="#EC1C24" d="M318.8,74.2c0,0.2,0,0.3,0.1,0.5c0.1,0.1,0.1,0.2,0.3,0.3c0.1,0.1,0.2,0.1,0.4,0.2c0.1,0,0.3,0.1,0.5,0.1
		c0.2,0,0.3,0,0.5-0.1c0.1,0,0.2-0.1,0.3-0.2c0.1-0.1,0.1-0.1,0.2-0.2s0.1-0.2,0.1-0.3c0-0.2,0-0.3-0.1-0.4
		c-0.1-0.1-0.2-0.1-0.3-0.2c-0.2-0.1-0.4-0.1-0.6-0.2c-0.2-0.1-0.5-0.1-0.8-0.2c-0.2-0.1-0.4-0.1-0.5-0.2c-0.1-0.1-0.2-0.2-0.3-0.3
		c-0.1-0.1-0.1-0.2-0.2-0.3c0-0.1-0.1-0.2-0.1-0.4c0-0.2,0.1-0.4,0.1-0.6c0.1-0.2,0.2-0.3,0.4-0.4c0.2-0.1,0.3-0.2,0.6-0.3
		c0.2-0.1,0.4-0.1,0.6-0.1c0.2,0,0.5,0,0.7,0.1c0.2,0.1,0.4,0.2,0.6,0.3c0.2,0.1,0.3,0.3,0.4,0.5c0.1,0.2,0.1,0.4,0.1,0.6h-0.8
		c0-0.3-0.1-0.5-0.3-0.6c-0.2-0.1-0.4-0.2-0.7-0.2c-0.1,0-0.2,0-0.3,0c-0.1,0-0.2,0.1-0.3,0.1c-0.1,0-0.2,0.1-0.2,0.2
		c-0.1,0.1-0.1,0.2-0.1,0.3c0,0.2,0.1,0.3,0.2,0.4c0.1,0.1,0.2,0.2,0.4,0.2c0,0,0.1,0,0.2,0.1c0.1,0,0.3,0.1,0.4,0.1
		c0.1,0,0.3,0.1,0.4,0.1c0.1,0,0.2,0.1,0.3,0.1c0.2,0,0.3,0.1,0.4,0.2c0.1,0.1,0.2,0.2,0.3,0.3c0.1,0.1,0.1,0.2,0.2,0.3
		c0,0.1,0.1,0.2,0.1,0.4c0,0.3-0.1,0.5-0.2,0.7c-0.1,0.2-0.2,0.3-0.4,0.5c-0.2,0.1-0.4,0.2-0.6,0.3c-0.2,0.1-0.5,0.1-0.7,0.1
		c-0.3,0-0.5,0-0.8-0.1c-0.2-0.1-0.4-0.2-0.6-0.3c-0.2-0.1-0.3-0.3-0.4-0.5c-0.1-0.2-0.2-0.5-0.2-0.8H318.8z"/>
	<polygon fill="#EC1C24" points="332.1,71.1 332.9,71.1 332.9,72.9 335,72.9 335,71.1 335.8,71.1 335.8,75.8 335,75.8 335,73.7 
		332.9,73.7 332.9,75.8 332.1,75.8 	"/>
	<polygon fill="#EC1C24" points="340.7,71.1 344.1,71.1 344.1,71.8 341.5,71.8 341.5,73 343.9,73 343.9,73.7 341.5,73.7 341.5,75.1 
		344.1,75.1 344.1,75.8 340.7,75.8 	"/>
	<path fill="#EC1C24" d="M348.7,71.1h2.2c0.5,0,0.9,0.1,1.2,0.3c0.3,0.2,0.4,0.5,0.4,0.9c0,0.2,0,0.4-0.1,0.6
		c-0.1,0.1-0.1,0.3-0.2,0.4c-0.1,0.1-0.2,0.2-0.3,0.2c-0.1,0-0.1,0.1-0.2,0.1v0c0.1,0,0.1,0,0.2,0.1c0.1,0,0.2,0.1,0.2,0.2
		c0.1,0.1,0.1,0.2,0.2,0.3c0,0.1,0.1,0.3,0.1,0.5c0,0.3,0,0.5,0.1,0.8c0,0.2,0.1,0.4,0.2,0.5h-0.9c-0.1-0.1-0.1-0.2-0.1-0.3
		c0-0.1,0-0.2,0-0.4c0-0.2,0-0.4,0-0.6c0-0.2-0.1-0.3-0.1-0.4s-0.2-0.2-0.3-0.2c-0.1,0-0.3-0.1-0.5-0.1h-1.2v1.9h-0.8V71.1z
		 M349.6,73.2h1.3c0.3,0,0.5-0.1,0.6-0.2c0.1-0.1,0.2-0.3,0.2-0.6c0-0.1,0-0.3-0.1-0.4c0-0.1-0.1-0.2-0.2-0.2
		c-0.1-0.1-0.2-0.1-0.3-0.1c-0.1,0-0.2,0-0.3,0h-1.3V73.2z"/>
	<polygon fill="#EC1C24" points="357.2,71.1 360.6,71.1 360.6,71.8 358.1,71.8 358.1,73 360.4,73 360.4,73.7 358.1,73.7 358.1,75.1 
		360.7,75.1 360.7,75.8 357.2,75.8 	"/>
	<path fill-rule="evenodd" clip-rule="evenodd" fill="#EC1C24" d="M144.3,49.1c0,9.3-7.7,16.8-17.1,16.8c-9.5,0-17.1-7.5-17.1-16.8
		c0-9.3,7.7-16.8,17.1-16.8C136.6,32.2,144.3,39.8,144.3,49.1"/>
	<path fill="#00A650" d="M152.7,49.3L152.7,49.3L152.7,49.3c0,6.8-2.8,12.9-7.3,17.3c-4.5,4.4-10.8,7.2-17.7,7.2v0h0h0v0
		c-6.9,0-13.2-2.7-17.7-7.2c-4.5-4.4-7.3-10.6-7.3-17.3h0v0v0h0c0-6.8,2.8-12.9,7.3-17.3c4.5-4.4,10.8-7.2,17.7-7.2v0h0h0v0
		c6.9,0,13.2,2.7,17.7,7.2C149.9,36.4,152.7,42.5,152.7,49.3L152.7,49.3L152.7,49.3z M152,49.3L152,49.3L152,49.3L152,49.3L152,49.3
		c0-6.6-2.7-12.6-7.1-16.9c-4.4-4.3-10.5-7-17.3-7v0h0h0v0c-6.7,0-12.8,2.7-17.3,7c-4.4,4.3-7.1,10.3-7.1,16.9h0v0v0h0
		c0,6.6,2.7,12.5,7.1,16.9c4.4,4.3,10.5,7,17.3,7v0h0h0v0c6.7,0,12.8-2.7,17.3-7C149.3,61.9,152,55.9,152,49.3"/>
	<polygon fill-rule="evenodd" clip-rule="evenodd" fill="#EC1C24" points="109.2,58.5 107.9,57.8 106.6,58.5 107,57.2 105.9,56.2 
		107.3,56.2 107.7,54.8 108.4,56.3 109.7,56.4 108.7,57.1 	"/>
	<polygon fill-rule="evenodd" clip-rule="evenodd" fill="#EC1C24" points="113,63.4 111.8,63.2 111.1,64.6 110.6,63.1 109.3,63 
		110.5,62.2 110.3,60.7 111.6,61.8 112.7,61 112.2,62.2 	"/>
	<polygon fill-rule="evenodd" clip-rule="evenodd" fill="#EC1C24" points="148,57.9 146.9,56.7 145.1,57.5 145.9,56 144.8,54.7 
		146.5,54.8 147.3,53.4 147.5,55 149.3,55.3 147.8,56.2 	"/>
	<polygon fill-rule="evenodd" clip-rule="evenodd" fill="#EC1C24" points="144.5,63.9 143.3,62.6 141.8,63 142.7,61.8 141.8,60.5 
		143.4,60.9 144.3,59.6 144.6,61.3 146.1,61.4 144.4,62.3 	"/>
	<path fill-rule="evenodd" clip-rule="evenodd" fill="#00A650" d="M123.5,70.5l-0.7-0.4c-0.1-0.1-0.3,0-0.4,0.1
		c-0.1,0.1,0,0.3,0.1,0.4l0.7,0.4c0.1,0.1,0.3,0,0.4-0.1C123.7,70.7,123.6,70.6,123.5,70.5"/>
	<path fill-rule="evenodd" clip-rule="evenodd" fill="#00A650" d="M138.7,65.2c0.6-0.5,0.1-0.8,0.1-0.8c-7.5,5.1-15.5,2.9-15.5,2.9
		c-2.1,0-6.7-2.9-6.7-2.9c-0.8,0.5,0.6,1.3,0.6,1.3c0.5,0.1,0.3,1,0.3,1c-0.9,0.7-1.2-0.2-1.2-0.2c0-0.3-0.2-0.2-0.2-0.2
		c-0.5,1,0.5,1.5,0.5,1.5c0.1,0.1,1.9-0.2,1.9-0.2c1.3-0.5,1.1,1.2,1.1,1.2c-0.4,0.7,0.3,0.8,0.3,0.8c0.1-0.1,0.8-1.8,0.8-1.8
		c0.2-0.9,0.9-0.4,0.9-0.4c0.7,0.3,2.5,0.7,2.5,0.7c1,0,0.7,0.4,0.7,0.4c0,0.1-3.1,0.1-3.1,0.1c-0.6,0.6,0.1,0.8,0.1,0.8
		c1.3-0.1,2.7,1,2.7,1c0.3,0.5,0.8,0.4,0.8,0.4c0.1-0.3,0.3-1.5,0.3-1.5c0-1.1,0.6-1,0.6-1c0.6,0.2,3.1,0.1,3.1,0.1
		c0.8-0.2,0.3,0.3,0.3,0.3l-1.9,0.5c-1.1,0.2-0.9,0.5-0.9,0.5c-0.2,0.7,0.7,0.6,0.7,0.6c2.1-0.5,2.9,0.5,2.9,0.5
		c0.2,0.4,0.7-0.1,0.7-0.1c-0.1-0.1-0.2-1.7-0.2-1.7l0.6,0c1.1-0.2,0.4,0.4,0.4,0.4c-0.4,0-0.4,0.4-0.4,0.4c0.2,0.5,1.2-0.2,1.2-0.2
		c0.9-1.2-1.7-1.5-1.7-1.5l1.5-0.4c0.4-0.3,0.8,0,0.8,0l0.6,1.7c0.2,0.9,0.9,0.5,0.9,0.5l-0.5-1.5c-0.3-1.2,0.1-1.1,0.1-1.1l2.3-1.1
		c1.1-0.9,1.1-0.3,1.1-0.3l-1.8,1.4c-1.2,0.8-0.1,1.2-0.1,1.2c1.9-1.7,3.9-1,3.9-1C140.1,67.3,138.7,65.2,138.7,65.2 M120,67.6
		c-0.3,0.1-0.5-0.3-0.5-0.3c0-0.6-1.4-0.5-1.4-0.5c-0.1-0.5,0.1-0.6,0.1-0.6c0.5-0.4,2.1,0.9,2.1,0.9L120,67.6z M124.8,69.9
		c0,0-0.5,0-1-0.6c0,0-0.2-0.5,0.7-0.2C124.5,69.1,125.3,69.2,124.8,69.9 M130.2,69.9l-0.3-0.1c-0.9-0.1,0-0.6,0-0.6
		C130.4,69.1,130.2,69.9,130.2,69.9 M138.3,67.1c0,0-0.7,0.1-0.2-0.4c0,0,0.2-0.3,0.6-0.2C138.7,66.5,139,67.1,138.3,67.1"/>
	<path fill-rule="evenodd" clip-rule="evenodd" fill="#00A650" d="M138.7,68.5c0,0,0.5-0.7-0.8-0.3c0,0-0.9,0.7,0.2,0.7
		C138,68.9,138.4,68.5,138.7,68.5"/>
	<path fill-rule="evenodd" clip-rule="evenodd" fill="#00A650" d="M107.2,43.8c-0.6,0-0.5-0.5-0.5-0.5c-0.3-0.2-0.5,0.8-0.5,0.8
		c0.5,0.1,0.1,0.6,0.1,0.6c-0.6,0.5-0.7,2.1-0.7,2.1c0.3,1.9,1.2,1.4,1.2,1.4c0.5-0.1,0.1-1.4,0.1-1.4c0.2-2.1,0.6,0.2,0.6,0.2
		c0.1,0.9,0.8,0.1,0.8,0.1c-0.1-0.9-0.7-1.8-0.7-1.8c-0.4-0.7-1,0.4-1,0.4c0.1,1.3-0.3,0.8-0.3,0.8c-0.5-1.3,0.5-1.9,0.5-1.9
		c0.5-0.4,1.8,0.1,1.8,0.1c0.7,0.1,0.4-0.5,0.4-0.5L107.2,43.8z"/>
	<path fill-rule="evenodd" clip-rule="evenodd" fill="#00A650" d="M109.3,39.3c-0.8,0-0.7-0.8-0.7-0.8c-0.4-0.3-0.7,0.8-0.7,0.8
		c0.6,0.2,0,0.6,0,0.6c-0.7,0.2-1,1.2-1,1.2c-0.4,2.3,1.4,2.1,1.4,2.1c1.1-0.8,0.6-1.9,0.6-1.9c-0.2-0.6-0.7,0.1-0.7,0.1
		c0.4,1.2-0.3,1.3-0.3,1.3c-1.1-0.9,0.1-2.4,0.1-2.4c0.6-0.9,2,0.2,2,0.2c0.5,0.3,0.5-0.4,0.5-0.4L109.3,39.3z"/>
	<path fill-rule="evenodd" clip-rule="evenodd" fill="#00A650" d="M130.1,27c-1.3-1.6-2.9-1-2.9-1c-1.5,0.1-0.7,0.7-0.7,0.7
		c0.9-0.3,2.3-0.3,2.3-0.3c1.3,0.3,0.5,0.8,0.5,0.8c-0.7-0.2-4.4,0.1-4.4,0.1c-4.5,0.5-9,3.2-9,3.2c-1.3,0.5-4.3,3.6-4.3,3.6
		l0.3,0.5c-0.1,0.3-0.9,0.4-0.9,0.4c-1.1,0.3-1.2,1.9-1.2,1.9c-0.3,1,0.6,0.4,0.6,0.4c0.4-0.7,0.5-0.1,0.5-0.1c0.2,0.5,0.6,0,0.6,0
		c0.2,0.1,0.3-1.1,0.3-1.1c0.1-1.6,0.6-1,0.6-1c0.8,0.4,0.5,0.9,0.5,0.9c-0.7,0-0.9,1.1-0.9,1.1c0.1,0.7-0.6,1.2-0.6,1.2
		c-0.9,0-0.7,0.2-0.7,0.2c1.8,0.3,2-1.3,2-1.3c-0.2-0.8,0.5-1.1,0.5-1.1c0.5,0.1,0.6-0.3,0.6-0.3c0.4-0.1-0.8-1.2-0.8-1.2
		c-1.3-0.9-0.5-1.1-0.5-1.1c0.4-0.2,0.8-0.7,0.8-0.7c0.5-0.8,0.6,0,0.6,0c0.1,0.7,1.2,0.6,1.2,0.6c0.4,0,0.7-0.8,0.7-0.8
		c-0.1-0.4,0.3-0.3,0.3-0.3c0.2,0.9-0.8,1.4-0.8,1.4c-0.5,0.6-2,0-2,0l0,0.3c1.5,0.9,2.5,0,2.5,0c0.8-0.1,1.1-1.6,1.1-1.6
		c-0.3-0.6-1.4-0.4-1.4-0.4c0.1,0.2-0.7,1.1-0.7,1.1c-0.8-0.6,0.6-1.8,0.6-1.8c0.1,0.3,1.2,0.2,1.2,0.2c0.9-0.5,0.6,0,0.6,0
		c0.2,0.1,0.2,0.9,0.2,0.9c0.3,0.6,0.5,0.2,0.5,0.2c-0.3-0.3,0.2-1.9,0.2-1.9l-0.6-0.3l-0.7,0.6c-1.1,0.1-0.5-0.3-0.5-0.3
		c0.2-0.2,1.5-0.9,1.5-0.9c0.8-0.7,1.2,0.9,1.2,0.9c0.2,0.5,0.8,1.1,0.8,1.1l0.3-0.3l-0.5-1.1c-0.9-1.5,0-1.3,0-1.3
		c0.2-0.3,2-0.7,2-0.7c0.7-0.2-0.2,0.5-0.2,0.5c0,0.6,0.6,0.5,0.6,0.5c0.2-0.4,0.9-0.6,0.9-0.6c1.4-0.1,0.1,1,0.1,1
		c-1.5,1-2.6-0.2-2.6-0.2c-0.4-0.4-0.5,0-0.5,0c0.2,0.4,1.8,1.1,1.8,1.1c0.7,0.2,1.8-0.3,1.8-0.3c1.6-1.4,0-2.1,0-2.1
		c-1.3-0.2,0-0.4,0-0.4c1.2-0.4,4-0.4,4-0.4c0.3,1.1-0.4,0.8-0.4,0.8c-0.4-0.6-1.7-0.2-1.7-0.2c-1.2,0.6,0.1,0.7,0.1,0.7
		c0.3-0.5,0.6-0.4,0.6-0.4c1.3-0.3,0.3,0.4,0.3,0.4c-0.4,0.6,0.8,0.2,0.8,0.2c0-0.4,0.6-0.4,0.6-0.4c0.7-0.1,0.2,1.1,0.2,1.1
		c-0.3-0.3-2.1,0.1-2.1,0.1c-0.9-0.9-0.6,0-0.6,0c0.5,0.8,1.5,0.5,1.5,0.5c1-0.7,1.2-0.2,1.2-0.2c0.3,0.3,0.5,0.2,0.5,0.2l0.2-1.1
		c0.2-0.4-0.6-1.1-0.6-1.1c0-1.1,0.9-0.7,0.9-0.7c0.9-0.4,0.4,1.8,0.4,1.8c-0.2,1.1,0.5,0.8,0.5,0.8c0.2-0.3,0.2-1.9,0.2-1.9
		c-0.3-0.7,0.5-0.6,0.5-0.6l0-0.5C130.4,27.5,130.1,27,130.1,27 M110.9,36.4c0,0-0.8,0.3-0.3-0.7c0,0,0.1-0.6,0.8-0.5
		C111.3,35.2,111.6,36.1,110.9,36.4"/>
	<path fill-rule="evenodd" clip-rule="evenodd" fill="#00A650" d="M137.4,29.7c0,0,0.4-0.3-1.2-0.9c0,0-2.8-1-4-1.2
		c0,0-0.9,0.3,0.5,0.6c0,0,1.7,0.3,2.1,0.7h-2.8c0,0-0.7,0.6,0.3,0.9c0,0,1.7,0,2,1.2c0,0,0.5,0.8,0.8-0.4c0,0,0.5-1.4,0.7-1.5
		c0,0,1.1-0.1,0.3,1.3l-0.6,1.1c0,0,0.1,0.6,0.5,0.4c0,0,0.6-1.2,0.7-1.7C136.7,30.1,136.9,29.7,137.4,29.7 M134.3,30.3
		c-1-0.5-0.5-0.7-0.5-0.7h0.7C134.6,29.9,134.3,30.3,134.3,30.3"/>
	<path fill-rule="evenodd" clip-rule="evenodd" fill="#00A650" d="M136.8,32c0.2-0.1,1.7,1.5,1.7,1.5c0.2-0.3-0.9-1.7-0.9-1.7
		C137.1,31.2,136.8,32,136.8,32"/>
	<path fill-rule="evenodd" clip-rule="evenodd" fill="#00A650" d="M139.8,31.1c0.3-1.2-1.7-1.2-1.7-1.2c-1.2,0.5-0.5,1.4-0.5,1.4
		C139.3,32.5,139.8,31.1,139.8,31.1 M139,31.1c0,0-1.1,0.4-1.2-0.3c0,0,0.4-0.5,1-0.3C138.8,30.5,139.9,30.7,139,31.1"/>
	<path fill-rule="evenodd" clip-rule="evenodd" fill="#00A650" d="M149.6,46.7c-0.2,0.1-0.7-0.3-0.7-0.3c0.3,0,0.4-0.4,0.4-0.4
		c0.2-0.4-0.1-1.1-0.1-1.1c-0.3,0-0.6-0.6-0.6-0.6c0.3-0.7,0.3-1,0.3-1c0-1.4-1.8-4.7-1.8-4.7c-0.2-1.2-3.3-4.6-3.3-4.6
		c-0.2-0.5-3.2-2.8-3.2-2.8c-0.8,0.1,0.7,1.2,0.7,1.2c0.4,0.1,1.9,1.8,1.9,1.8c0.3,0.8-0.4,0.5-0.4,0.5c0.2-1-1.3-1.1-1.3-1.1
		c-0.3-1.3-1.1-1.2-1.1-1.2c-1.8-0.4-1.3,1.1-1.3,1.1c0.6,0.9,1.4,0.8,1.4,0.8l0.1-0.5c-0.4-0.1-1-0.8-1-0.8
		c0.6-0.3,1.2,0.2,1.2,0.2c0.7,0,0.5,1.1,0.5,1.1l0.5,0.1c1.4-0.1,0.5,1.1,0.5,1.1c-1.1,0.7-0.2,0.9-0.2,0.9l1-0.8
		c1-1.5,1.3-0.1,1.3-0.1c0,0.3-1.3,0.9-1.3,0.9c-0.7,0.6-0.4,1.1-0.4,1.1l1.1-0.8c0.7-0.8,1.2-0.5,1.2-0.5c1,0.8,0.2,0.9,0.2,0.9
		c-0.8-0.1-1.4,0.4-1.4,0.4c-0.8,1.1,0.4,1.8,0.4,1.8c0.2,0,0.3-0.5,0.3-0.5c-0.4,0-0.6-0.7-0.6-0.7c0.5-1.1,2.1-0.2,2.1-0.2
		c1,0.3,0.3,0.8,0.3,0.8c-0.1,0-1.2,0.7-1.2,0.7c-0.2,0.7,0.8,1.1,0.8,1.1c0.9,0.4,0.9,0.8,0.9,0.8c-1.3,0.1-1.3,0.5-1.3,0.5
		c0.5-0.2,1,0.1,1,0.1c0.1,0.2,0.7,0.2,0.7,0.2l0.3-0.7l-1.1-1.2c-0.8-0.4-0.2-0.6-0.2-0.6c0.5-0.7,0.8-0.1,0.8-0.1
		c0.2,0,1.4,3.6,1.4,3.6c0.2,1.9-0.9,0.6-0.9,0.6c-0.1-0.6-0.5-0.5-0.5-0.5c-0.5,0.1,0.1,1.1,0.1,1.1c0.4,0,0.4,0.6,0.4,0.6
		c-0.4,0.3,0,1.5,0,1.5l0.6-0.2c-0.4-0.9,0-1.1,0-1.1c0.5-0.3,0.7,0.6,0.7,0.6c0.3,1.5-1.7,1.4-1.7,1.4c-0.8,0.1-0.2,0.5-0.2,0.5
		c0.2,0.1,2.1-0.2,2.1-0.2c0.4,0.8,0.7,0.5,0.7,0.5C150,47.1,149.6,46.7,149.6,46.7"/>
	<path fill-rule="evenodd" clip-rule="evenodd" fill="#FFDD00" d="M121.5,38.1c0,0.1,0,0.1,0,0.3c0.1,0.1,0.2,0.1,0.2,0.2
		c0,0,0,0.1,0,0.1c0,0,0.1,0,0.1,0v0c0.1,0,0.1,0.1,0.2,0.1v-0.1h0.2c0,0.1,0.1,0.1,0.1,0.2h0.1c0,0,0,0,0,0.1c0,0,0.1,0,0.1,0v0.1
		c0,0,0,0,0.1,0v0.1h0v0.1c0,0,0.1,0,0.1,0c0,0,0,0,0,0.1c0.1,0.1,0.2,0.2,0.3,0.2c0-0.1,0-0.1,0-0.2c0.1,0,0.1,0.1,0.2,0.1v0h0.2
		c0,0,0,0.1,0.1,0.1c0,0,0,0,0.1,0c0-0.1,0-0.1,0-0.1h0c-0.1-0.1,0,0-0.1-0.1v0h-0.1c-0.1-0.1-0.1-0.2-0.2-0.2v-0.1c0,0,0,0-0.1,0
		v-0.2c0.1,0,0.1-0.1,0.3-0.1c0,0.1,0,0,0.1,0.1V39c0.1,0.1,0.1,0.1,0.3,0.2c0,0,0,0.1,0,0.1h0v0.3h0v0.1c0,0,0,0,0.1,0v0.1h0
		c0,0,0,0.1,0,0.1h0V40c0.1,0.1,0.1,0.2,0.2,0.3h0.1c0,0,0,0,0,0.1h0.1v0c0,0,0.1,0,0.1,0.1c0.1,0.1,0,0.2,0.2,0.2
		c0.2-0.2,0.3,0.1,0.4,0c0,0,0,0,0-0.1c0,0,0,0,0.1,0c0,0,0,0.1,0,0.1h0v0.1l0,0c0,0,0.1-0.1,0.1-0.1h0c0-0.1,0-0.1,0-0.2h0
		c0,0,0-0.1,0.1-0.1c-0.1-0.1-0.1-0.1-0.1-0.3c0.1-0.1,0-0.1,0.2-0.2v0c0.1,0,0.1,0,0.2,0c0,0.1,0.1,0.2,0.1,0.3
		c0.1,0.1,0.2,0.1,0.3,0.2v0.2h0v0.1h0c0,0,0,0.1,0,0.1c0.1,0,0.1,0,0.2,0v0c0.1,0,0.3,0.1,0.3,0.1V41h0v0.1
		c-0.1,0.1-0.1,0.2-0.2,0.3c0,0,0,0-0.1,0v0.1h0v0.2h0v0.1c0,0-0.1,0-0.1,0.1c0,0,0,0.1,0,0.1h0v0h0v0.1h0c0,0.1,0,0.3,0,0.4h0v0.3
		h0c0,0.1,0,0.3,0,0.4h0v0c0.1,0,0.2-0.1,0.3-0.1c0,0,0,0,0,0.1h0.1c0,0,0,0,0,0.1h0.1v0h0.1v0l0.4,0.1v0h0.1v0h0.1v0h0.4v0h0.1v0
		h0.1v0h0.1v0h0.1v0c0.1,0,0.1,0,0.2,0v0c0.1,0,0.3,0,0.4,0v0h0.1v0h0.1v0h0.3h0.2c0.1,0,0.4,0.2,0.6,0.1v0h0.1v0
		c0.1,0,0.3-0.1,0.5-0.1v0h0.2v0h0.4v0h0.1v0h0.1v0h0.1v0h0.1v0c0.1,0,0.2,0,0.3,0v0h0.2v0c0.1,0,0.4,0,0.4,0v0c0.1,0,0.1,0,0.2,0v0
		c0,0,0.1,0,0.1,0v0c0.1,0,0.3,0,0.4,0v0h0.2c0.3,0.1,0.7,0.2,0.8,0.4c0.1,0,0.1,0.1,0.2,0.1v0c0.1,0,0.1,0,0.2,0v0h0.1
		c0,0,0,0,0,0.1h0.1v0c0.1,0.1,0,0.2,0.2,0.2c0,0.1,0.1,0.1,0.1,0.3c-0.1,0-0.1,0-0.3,0v0h-0.1c-0.2-0.1-0.3-0.1-0.5-0.1
		c0,0.1,0,0.3,0,0.4h0c0,0.1-0.1,0.4-0.1,0.5h0v0.2c0,0.1,0.1,0.2,0.1,0.3c-0.1,0,0,0-0.1,0.1H134v0c-0.1-0.1,0-0.1-0.2-0.1v0h0
		c-0.1,0.1,0,0.3,0,0.4v0c-0.1,0-0.4,0-0.5,0v0.1c-0.1,0-0.1,0-0.2-0.1l0,0.3c0,0-0.1,0-0.1,0c0,0,0,0-0.1,0v0.1h0
		c0,0.1,0,0.1,0,0.1c0,0.1,0,0.3,0,0.4c-0.1,0-0.1,0-0.1,0.1v0c-0.1-0.1-0.1-0.1-0.1-0.2c0,0,0-0.1,0-0.1h-0.1
		c-0.1,0.1-0.2,0.1-0.2,0.1v0c-0.1,0-0.1,0-0.1-0.1h-0.1c0,0.1,0,0.2,0,0.4c-0.1,0-0.1,0.1-0.1,0.1c0,0-0.1,0-0.1,0
		c0-0.1-0.1-0.1-0.1-0.2c-0.1,0,0,0-0.1,0c-0.1,0-0.1,0-0.1,0.1h0v0.1l-0.1,0.3c-0.2,0-0.3-0.1-0.5-0.1v0c-0.3,0.1-0.2,0.4-0.4,0.5
		c-0.1,0-0.2,0-0.4,0.1v0.1c-0.1,0.1,0,0.4,0,0.6h0v0.1h0c-0.1,0.2,0.1,0.4,0.1,0.6v0.2h0v0.1h0v0.1h0v0.1c0,0,0.1,0,0.1,0.1
		c0,0.1,0,0.1,0.1,0.2c0,0,0,0,0.1,0v0.1h0c0,0.3,0.1,0.7,0.1,1c0.1,0,0.1,0.1,0.2,0.1c0-0.1,0-0.2-0.1-0.3h0v-0.1h0
		c-0.1-0.2,0-0.4,0.1-0.6c0.1,0,0.1,0,0.2,0c0,0,0.1,0.1,0.1,0.1c0,0.2,0,0.4,0,0.5h0.1c0,0.1,0,0.1,0.1,0.2c0,0,0.1,0,0.1,0.1v0.1
		h0v0.1h0c0,0,0,0.1,0,0.1c0,0,0.1,0,0.1,0v0c0,0,0.2,0.1,0.3,0.1c0-0.1,0.1-0.1,0.2-0.2v-0.1h0.1c0.1-0.1,0.1-0.1,0.2-0.3
		c-0.1-0.1,0-0.1-0.1-0.2h0c0,0,0-0.1,0-0.1h0V51h0c0-0.2,0-0.3,0-0.5c0,0,0.1-0.1,0.1-0.1c0.1-0.1,0.3,0,0.4,0
		c0.1-0.1,0.2-0.2,0.2-0.3c0-0.2,0-0.7,0.1-0.8v0h0.1c0,0,0,0,0,0c0,0.1,0.1,0.1,0.1,0.3h0.1v0c0,0,0.1,0,0.1,0
		c0.1-0.1,0.2-0.2,0.2-0.3c0,0,0,0,0,0c0.1,0,0.1,0.1,0.1,0.1h0c0,0,0-0.1,0-0.1h0v-0.1c0,0,0.1,0,0.1,0c0,0,0.1,0.1,0.1,0.1v0.1h0
		v0.1h0v0.1h0v0.1h0v0.1h0c0,0.1,0,0.3,0,0.4h0v0.2h0v0.2h0v0.2h0v0.2h0c0,0,0,0,0,0c0,0.2,0,0.3,0,0.5h0v0.2l0.1,0.3c0,0,0,0,0.1,0
		v0.1h0c0,0.1,0,0.2,0.1,0.3c0,0,0,0,0.1,0c0,0.1,0,0.2,0,0.3h0v0.2c0,0,0,0,0.1,0v0.1h0v0.2h0v0.2h0c0,0.1,0,0.3,0,0.4h0V54h0v0.1
		h0v0.1h0v0.1h0c0,0.2,0,0.4,0,0.6h0c0.1,0.2,0,0.5,0,0.8v0.4c0.1,0.2,0,0.5,0,0.8v0.7h0v0.1h0v0.1h0v0.1h0V58h0v0.1h0
		c0,0.1,0,0.3-0.1,0.3c0,0.1-0.1,0.1-0.2,0.1c0-0.1-0.1-0.1-0.2-0.2v-0.2h0v0h0v-0.1h0V58h0c-0.1-0.1-0.3,0-0.4,0
		c0-0.2-0.1-0.4-0.3-0.4c-0.1,0.1-0.1,0.1-0.2,0.2v0.1c0,0,0,0-0.1,0v0c-0.1,0.1-0.1,0-0.2,0.2c-0.1,0.1,0,0.3,0,0.6h0
		c0,0.1,0.1,0.5,0.1,0.6h0v0.1h0v0.1h0v0.1h0c0,0.1,0,0.3,0.1,0.4h0c0,0.1,0,0.1,0,0.2h0c0,0,0,0.1,0,0.1h0c0,0.1,0.1,0.3,0.1,0.4
		h-0.1c0,0-0.1-0.1-0.1-0.1c0-0.1-0.1-0.2-0.1-0.4h0v-0.1h0c0,0,0-0.1,0-0.1h0v-0.1c0,0,0,0-0.1,0v-0.1l-0.1-0.1v-0.1c0,0,0,0-0.1,0
		c0-0.1-0.1-0.3-0.1-0.4c0,0-0.1-0.1-0.1-0.1c0,0-0.1-0.1-0.1-0.1c0,0,0,0-0.1,0c0-0.1,0-0.1-0.1-0.2h0v-0.1h0c0-0.2,0-0.3,0-0.5h0
		v-0.1c0,0-0.1,0-0.1-0.1v-0.1c0,0,0,0-0.1,0v-0.4c0-0.2-0.1-0.5-0.1-0.7c-0.1-0.1-0.1-0.1-0.2-0.2v-0.1h0c0-0.1,0-0.3,0-0.3
		c0-0.3,0-0.5,0-0.8h0v-0.1c0,0,0,0-0.1,0v-0.1h0c0,0,0-0.1,0-0.1h0c0-0.3,0-0.6-0.1-0.9h0v-0.1h0v-0.1c0,0,0,0-0.1,0V54
		c0,0-0.1,0-0.1-0.1l0-0.1c0,0-0.1,0-0.1,0c0-0.1,0-0.2,0-0.2h0v-0.1c0,0,0,0-0.1,0v-0.1c0,0-0.1,0-0.1-0.1v-0.1
		c-0.1-0.1-0.2-0.2-0.3-0.3V53c-0.1-0.1-0.1-0.1-0.2-0.2h-0.1V53c0,0,0,0,0,0c-0.1,0-0.2,0-0.3,0.1v0h-0.1v0l-0.2-0.1v0
		c-0.1,0.1-0.1,0.2-0.1,0.2c0.1,0.1,0.2,0.1,0.2,0.3c-0.1,0.1,0,0.1-0.1,0.1c-0.1,0.1-0.4-0.1-0.6-0.2v0.1c0,0-0.1,0-0.1,0
		c0,0,0,0,0,0.1c-0.1,0-0.1,0-0.2,0c-0.1-0.1-0.1-0.2-0.2-0.3c0,0-0.1,0-0.1,0c0,0,0,0,0-0.1h-0.1c-0.1-0.1-0.1-0.1-0.2-0.2
		c0,0,0,0-0.1,0v-0.1c0,0,0,0-0.1,0v-0.1h0v-0.1h0c-0.1-0.1,0-0.2-0.1-0.2v0h-0.2c0,0.1,0,0.1,0,0.2c-0.1,0-0.2,0-0.3,0.1
		c0,0,0,0.1,0,0.1c-0.1,0-0.1,0-0.2,0c0,0.1,0,0.1,0,0.2c0.1,0,0.1,0.1,0.1,0.1h0c-0.1,0.1-0.1,0.1-0.1,0.3c0.1,0.1,0.1,0.1,0.2,0.2
		c0,0,0.1,0,0.1,0.1c0,0.1,0,0,0.1,0.1c0,0.1,0,0.2,0,0.4h0c0,0.1,0,0.1,0,0.1v0.3h0v0.1h0l-0.1,0.2h0c0,0,0,0.1,0,0.1
		c-0.1,0.1-0.1,0.1-0.2,0.2c0,0.2,0,0.3-0.1,0.5c-0.1,0-0.1,0-0.2,0.1c0-0.1,0-0.1-0.1-0.2h-0.1c-0.1,0.1-0.1,0.2-0.2,0.3h-0.1v0
		c-0.1-0.1,0-0.1-0.1-0.1h0v-0.1h0v0c-0.1,0.1,0,0.2,0,0.4c-0.1,0.4-0.2,0.4-0.7,0.4c0-0.1,0-0.2,0.1-0.3c-0.1,0-0.2,0-0.3,0
		c0.1-0.2,0.1-0.2,0.1-0.4c0,0,0,0,0,0c-0.1,0-0.2,0-0.3,0.1v0c-0.1,0-0.1,0-0.2,0c0,0,0-0.1,0-0.2c0,0,0,0,0-0.1h0v-0.1h0v-0.3h0v0
		c-0.2,0.1-0.3,0.2-0.3,0.4h0.1c0.1,0.1,0.1,0.1,0.1,0.3c0,0.1,0.1,0.2,0.1,0.3h0c0,0.1-0.1,0.1-0.2,0.1v0h-0.1c0,0,0,0,0,0
		c0,0.1,0,0.1,0,0.2c-0.1,0-0.2,0-0.3,0c0-0.1-0.1-0.4-0.2-0.4v0.1h0c0,0,0,0.1,0,0.1h0c0,0.1,0,0.1,0.1,0.1h0c0,0.1,0,0.2,0,0.3
		c0,0-0.1,0.1-0.1,0.1c-0.1,0.1-0.3,0.1-0.4,0.1c0,0-0.1-0.1-0.1-0.1v-0.1h0v-0.1c0,0-0.1-0.1-0.1-0.2c0,0,0.1,0,0.1-0.1
		c0.1-0.1,0.1-0.2,0.1-0.3c-0.1,0-0.1,0-0.1-0.1c0-0.1,0-0.1,0-0.2h0v-0.3h0c0-0.1,0-0.1,0-0.2h-0.1v0.3h0c0,0.1,0,0.1,0,0.2h0
		c0.1,0.1,0.1,0.1,0.1,0.2c-0.1,0-0.1,0-0.2,0c0,0,0,0.1,0,0.1c0,0.2,0.2,0.5-0.2,0.6c0,0,0-0.1-0.1-0.1c0-0.1,0.1-0.3,0.1-0.4h0
		v-0.1c0,0-0.1,0-0.1-0.1v-0.5h0V55h0c0,0.1-0.1,0.2-0.2,0.3c0,0.2,0,0.4,0.1,0.6h0v0.1h0c0,0.1,0,0.2,0,0.4c-0.1,0-0.1,0-0.2-0.1
		c0-0.1,0-0.2,0-0.3h0c0-0.1,0-0.1,0-0.2c-0.1,0-0.1-0.1-0.2-0.1c0,0.3-0.1,0.5-0.2,0.7c-0.1,0,0,0-0.1,0c-0.1,0-0.1-0.1-0.2-0.2
		c0-0.2,0-0.4,0-0.6h0c0-0.1,0-0.2,0-0.3c0-0.1,0-0.2,0-0.4h0v-0.1h0c0-0.1,0-0.2-0.1-0.3h0v-0.1h0c0-0.1,0-0.1,0-0.2h0v-0.1h0V54h0
		c0-0.1,0-0.3,0-0.3c0-0.1,0-0.3-0.1-0.3V53c0-0.1-0.1-0.2-0.1-0.3h0v-0.1h0c0.1-0.1,0.1-0.1,0.1-0.3c-0.1-0.1,0-0.1-0.1-0.1
		c-0.1-0.1-0.1-0.1-0.2-0.2V52c-0.1-0.1-0.1-0.2-0.1-0.4c0,0,0,0,0-0.1c0.1,0,0.1,0,0.2-0.1c0-0.2,0-0.2,0-0.3c0,0,0-0.1,0.1-0.1
		h0.1c0,0,0,0,0-0.1c0.1-0.1,0.1,0.1,0.2-0.1c-0.1-0.1-0.1-0.1-0.3-0.1c0,0.1-0.1,0.1-0.2,0.2c-0.1,0-0.5-0.1-0.6-0.2v-0.1h0.2
		c0-0.1,0-0.1,0-0.1c-0.1-0.1-0.1-0.1,0-0.2v-0.1h0v-0.1c0,0,0,0,0.1,0V50c0,0,0,0,0.1,0c0,0,0-0.1,0.1-0.2c0,0-0.1-0.1-0.1-0.1H122
		v0H122v0c-0.1,0-0.1,0-0.2,0c-0.1-0.1-0.2-0.4-0.3-0.6c0.1-0.1,0.1-0.1,0.2-0.2c0-0.1-0.1-0.2-0.1-0.3c0,0,0,0,0-0.1
		c0.2,0,0.3-0.1,0.5-0.1c0-0.1,0-0.2,0-0.3h0v-0.1h0c0-0.1,0-0.1,0-0.2c-0.1-0.1-0.2-0.1-0.2-0.3h0v0h0.2v0c0,0,0,0,0-0.1
		c0-0.1-0.1-0.2-0.1-0.3c-0.1-0.1-0.1-0.1-0.2-0.2c-0.2,0-0.3,0-0.5,0v0h-0.2v0h-0.1c-0.1-0.1-0.2-0.2-0.3-0.3v-0.1l-0.1-0.1v0h-0.1
		v0h-0.1v0h-0.1v0c-0.1,0-0.1,0-0.2-0.1v0h-0.1c0-0.1-0.1-0.1-0.1-0.2c0,0,0,0-0.1,0v-0.1h0v-0.1h0v-0.1c0,0,0,0-0.1,0v-0.1h0
		c0-0.1,0-0.4,0-0.4h0c0.1-0.3,0.4-0.1,0.4-0.5c-0.2-0.1,0-0.4,0.2-0.4c0,0.1,0.1,0.2,0.1,0.3h0.1c0.1-0.1,0.1-0.2,0.2-0.3
		c0,0,0,0,0-0.1h0.1v0c0.2-0.1,0.2,0.1,0.3-0.1c0.1-0.1,0,0,0-0.1h0v-0.1h0c0.1-0.2-0.1-0.3-0.1-0.5c0.2-0.1,0.4-0.1,0.7-0.1v0h0.1
		c0,0,0,0,0,0.1h0.1v0h0.4c0.2,0.1,0.3,0.1,0.5,0v-0.2c0.1,0,0.1,0,0.2,0v-0.1h0v0c-0.1,0-0.2,0-0.2,0c0,0,0,0,0-0.1h-0.1
		c0,0-0.1-0.1-0.1-0.1c0,0-0.1,0-0.2-0.1v-0.1h0v-0.1c0.1,0,0.1,0,0.1-0.1c0-0.1,0-0.2-0.1-0.3c0,0-0.1-0.1-0.1-0.1v0
		c0,0-0.1,0-0.1,0v0c0,0-0.2,0.1-0.2,0.1v0c0,0-0.1,0-0.1-0.1v0H122c0,0,0,0,0-0.1h-0.1c0,0,0,0,0-0.1h-0.1v0c-0.1,0-0.1,0-0.2-0.1
		v0h-0.1c0-0.1-0.1-0.1-0.1-0.2c0,0-0.1,0-0.1-0.1v-0.1h0c0-0.1,0-0.1,0-0.2h0c-0.1-0.1-0.1-0.2-0.2-0.2c0-0.1,0-0.1-0.1-0.2
		c-0.1-0.1-0.2,0-0.4,0v0c-0.1,0-0.1,0-0.1,0c0-0.1,0-0.2,0-0.3c-0.1-0.1,0-0.3,0-0.4c0.1,0,0.2-0.1,0.2-0.1c-0.1,0-0.1,0-0.1-0.1
		c0.1,0,0.1-0.1,0.2-0.2v-0.2h0v-0.1c0.1-0.1,0.2,0,0.3-0.1c0.1-0.1,0.1-0.2,0.2-0.2v-0.1h0v-0.1c0.1-0.1,0.3-0.1,0.5-0.1v0h0.1
		v-0.1h-0.1v-0.3c-0.1,0-0.3-0.1-0.3-0.1v0c-0.1,0-0.1,0-0.2,0c0-0.1,0-0.2,0-0.3c0,0,0,0,0.1,0v-0.2h0
		C121.3,38.2,121.3,38.1,121.5,38.1"/>
	<path fill="#010101" d="M162.7,34.8c0-0.7,0.1-1.5,0.4-2.2c0.3-0.7,0.7-1.4,1.2-1.9c0.5-0.6,1.1-1,1.9-1.4c0.7-0.4,1.6-0.5,2.5-0.5
		c1.1,0,2.1,0.2,2.9,0.7c0.8,0.5,1.4,1.1,1.8,1.9l-1.8,1.2c-0.2-0.3-0.4-0.6-0.6-0.9c-0.2-0.2-0.5-0.4-0.7-0.6
		c-0.3-0.1-0.5-0.2-0.8-0.3c-0.3-0.1-0.6-0.1-0.8-0.1c-0.6,0-1.1,0.1-1.5,0.4c-0.4,0.2-0.8,0.6-1.1,0.9c-0.3,0.4-0.5,0.8-0.7,1.3
		c-0.1,0.5-0.2,1-0.2,1.4c0,0.5,0.1,1,0.3,1.5c0.2,0.5,0.4,0.9,0.7,1.3c0.3,0.4,0.7,0.7,1.1,0.9c0.4,0.2,0.9,0.3,1.4,0.3
		c0.3,0,0.6,0,0.9-0.1c0.3-0.1,0.6-0.2,0.8-0.3c0.3-0.1,0.5-0.3,0.7-0.6c0.2-0.2,0.4-0.5,0.5-0.8l1.9,1.1c-0.2,0.5-0.5,0.9-0.8,1.2
		c-0.4,0.3-0.8,0.6-1.2,0.9c-0.5,0.2-0.9,0.4-1.4,0.5c-0.5,0.1-1,0.2-1.5,0.2c-0.9,0-1.7-0.2-2.4-0.5c-0.7-0.4-1.3-0.8-1.8-1.4
		c-0.5-0.6-0.9-1.2-1.2-2C162.9,36.4,162.7,35.6,162.7,34.8"/>
	<path fill="#010101" d="M177.4,41.1c-0.4,0-0.8-0.1-1.2-0.2c-0.4-0.1-0.7-0.3-1-0.6c-0.3-0.3-0.5-0.6-0.6-0.9
		c-0.2-0.3-0.2-0.7-0.2-1.1c0-0.4,0.1-0.8,0.3-1.2c0.2-0.4,0.4-0.7,0.8-0.9c0.3-0.3,0.7-0.4,1.2-0.6c0.5-0.1,1-0.2,1.5-0.2
		c0.4,0,0.8,0,1.2,0.1c0.4,0.1,0.7,0.2,1,0.3v-0.5c0-0.6-0.2-1-0.5-1.4c-0.3-0.3-0.8-0.5-1.5-0.5c-0.5,0-0.9,0.1-1.4,0.3
		c-0.5,0.2-0.9,0.4-1.4,0.8l-0.7-1.5c1.1-0.8,2.4-1.1,3.7-1.1c1.3,0,2.3,0.3,3,0.9c0.7,0.6,1.1,1.5,1.1,2.7v2.8c0,0.2,0,0.4,0.1,0.5
		c0.1,0.1,0.2,0.2,0.4,0.2V41c-0.4,0.1-0.7,0.1-1,0.1c-0.4,0-0.8-0.1-1-0.3c-0.2-0.2-0.4-0.4-0.4-0.8l0-0.5
		c-0.4,0.5-0.9,0.9-1.5,1.2C178.6,41,178,41.1,177.4,41.1 M178,39.5c0.4,0,0.8-0.1,1.1-0.2c0.3-0.1,0.6-0.3,0.8-0.5
		c0.2-0.2,0.4-0.4,0.4-0.6v-1c-0.3-0.1-0.6-0.2-0.9-0.2c-0.3-0.1-0.6-0.1-0.9-0.1c-0.6,0-1.1,0.1-1.5,0.4c-0.4,0.3-0.6,0.6-0.6,1
		c0,0.4,0.1,0.7,0.4,1C177.2,39.3,177.6,39.5,178,39.5"/>
	<path fill="#010101" d="M189.8,41.1c-0.7,0-1.3-0.2-1.8-0.5c-0.5-0.3-1-0.7-1.3-1.3V41h-2V28.5h2.3v5.1c0.3-0.5,0.7-1,1.3-1.3
		c0.5-0.3,1.1-0.4,1.8-0.4c0.6,0,1.1,0.1,1.6,0.4c0.5,0.2,0.9,0.6,1.2,1c0.3,0.4,0.6,0.9,0.8,1.5c0.2,0.6,0.3,1.2,0.3,1.8
		c0,0.7-0.1,1.3-0.3,1.8c-0.2,0.6-0.5,1-0.9,1.5c-0.4,0.4-0.8,0.7-1.3,1C190.9,41,190.4,41.1,189.8,41.1 M189.2,39.2
		c0.4,0,0.7-0.1,1-0.2c0.3-0.1,0.6-0.3,0.8-0.6c0.2-0.2,0.4-0.5,0.5-0.8c0.1-0.3,0.2-0.7,0.2-1c0-0.4-0.1-0.7-0.2-1
		c-0.1-0.3-0.3-0.6-0.5-0.9c-0.2-0.3-0.5-0.5-0.7-0.6c-0.3-0.2-0.6-0.2-0.9-0.2c-0.5,0-1,0.2-1.4,0.5c-0.4,0.3-0.7,0.8-0.9,1.2v2.1
		c0.1,0.2,0.2,0.4,0.4,0.6c0.2,0.2,0.3,0.3,0.5,0.5c0.2,0.1,0.4,0.2,0.6,0.3C188.7,39.1,188.9,39.2,189.2,39.2"/>
	<path fill="#010101" d="M195.5,28.5h2.3v2.3h-2.3V28.5z M195.5,32h2.3V41h-2.3V32z"/>
	<path fill="#010101" d="M208.2,41h-2.3v-5c0-0.7-0.1-1.2-0.4-1.6c-0.2-0.3-0.6-0.5-1-0.5c-0.2,0-0.5,0-0.7,0.1
		c-0.2,0.1-0.5,0.2-0.7,0.4c-0.2,0.2-0.4,0.4-0.6,0.6c-0.2,0.2-0.3,0.5-0.4,0.8V41h-2.3V32h2.1v1.6c0.3-0.6,0.8-1,1.4-1.3
		c0.6-0.3,1.3-0.5,2.1-0.5c0.6,0,1,0.1,1.4,0.3c0.4,0.2,0.6,0.5,0.8,0.8c0.2,0.3,0.3,0.7,0.4,1.1c0.1,0.4,0.1,0.8,0.1,1.3V41z"/>
	<path fill="#010101" d="M214.3,41.1c-0.7,0-1.4-0.1-1.9-0.4c-0.6-0.2-1.1-0.6-1.5-1c-0.4-0.4-0.7-0.9-0.9-1.5
		c-0.2-0.6-0.3-1.1-0.3-1.8c0-0.6,0.1-1.2,0.3-1.8c0.2-0.6,0.5-1.1,0.9-1.5c0.4-0.4,0.9-0.8,1.5-1c0.6-0.2,1.2-0.4,2-0.4
		c0.7,0,1.4,0.1,1.9,0.4c0.6,0.3,1.1,0.6,1.5,1c0.4,0.4,0.7,0.9,0.9,1.5c0.2,0.6,0.3,1.1,0.3,1.7c0,0.1,0,0.3,0,0.4
		c0,0.1,0,0.3,0,0.3H212c0,0.3,0.1,0.7,0.3,0.9c0.1,0.3,0.3,0.5,0.5,0.7c0.2,0.2,0.5,0.3,0.7,0.4c0.3,0.1,0.6,0.2,0.9,0.2
		c0.5,0,0.9-0.1,1.3-0.3c0.4-0.2,0.7-0.5,0.8-0.9l2,0.5c-0.3,0.7-0.9,1.2-1.6,1.7C216.2,40.9,215.3,41.1,214.3,41.1 M216.6,35.7
		c-0.1-0.7-0.3-1.2-0.7-1.6c-0.4-0.4-1-0.6-1.6-0.6c-0.3,0-0.6,0.1-0.9,0.2c-0.3,0.1-0.5,0.3-0.7,0.5c-0.2,0.2-0.4,0.4-0.5,0.7
		c-0.1,0.3-0.2,0.6-0.2,0.9H216.6z"/>
	<path fill="#010101" d="M225.7,40.5c-0.3,0.1-0.7,0.3-1.1,0.4c-0.4,0.1-0.9,0.2-1.4,0.2c-0.3,0-0.6,0-0.9-0.1
		c-0.3-0.1-0.5-0.2-0.7-0.4c-0.2-0.2-0.4-0.4-0.5-0.7c-0.1-0.3-0.2-0.6-0.2-1v-5.1h-1.2V32h1.2v-2.9h2.3V32h1.9v1.8h-1.9v4.4
		c0,0.3,0.1,0.5,0.2,0.7c0.2,0.1,0.4,0.2,0.6,0.2c0.2,0,0.5,0,0.7-0.1c0.2-0.1,0.4-0.1,0.5-0.2L225.7,40.5z"/>
	<path fill="#010101" d="M163.4,56.5V44.4h4.4c1,0,1.9,0.2,2.6,0.5c0.7,0.3,1.4,0.7,1.9,1.3c0.5,0.5,0.9,1.2,1.1,1.9
		c0.3,0.7,0.4,1.5,0.4,2.3c0,0.9-0.1,1.8-0.4,2.5c-0.3,0.7-0.7,1.4-1.2,1.9c-0.5,0.5-1.1,0.9-1.9,1.2c-0.7,0.3-1.6,0.4-2.5,0.4
		H163.4z M171.4,50.4c0-0.6-0.1-1.1-0.2-1.6c-0.2-0.5-0.4-0.9-0.7-1.3c-0.3-0.4-0.7-0.6-1.1-0.8c-0.4-0.2-1-0.3-1.5-0.3h-2v8h2
		c0.6,0,1.1-0.1,1.5-0.3c0.4-0.2,0.8-0.5,1.1-0.8c0.3-0.4,0.5-0.8,0.7-1.3C171.4,51.5,171.4,51,171.4,50.4"/>
	<path fill="#010101" d="M175.4,44h2.3v2.3h-2.3V44z M175.4,47.5h2.3v8.9h-2.3V47.5z"/>
	<polygon fill="#010101" points="182.2,56.5 178.9,47.5 181.2,47.5 183.5,54.6 185.8,47.5 187.9,47.5 184.7,56.5 	"/>
	<path fill="#010101" d="M189.1,44h2.3v2.3h-2.3V44z M189.1,47.5h2.3v8.9h-2.3V47.5z"/>
	<path fill="#010101" d="M196.9,56.6c-0.8,0-1.5-0.1-2.2-0.4c-0.7-0.2-1.3-0.6-1.8-1l0.9-1.4c0.5,0.4,1.1,0.7,1.6,0.9
		c0.5,0.2,1,0.3,1.5,0.3c0.5,0,0.8-0.1,1.1-0.3c0.3-0.2,0.4-0.4,0.4-0.7c0-0.3-0.2-0.6-0.5-0.7c-0.3-0.1-0.8-0.3-1.5-0.5
		c-0.6-0.2-1.1-0.3-1.5-0.5c-0.4-0.1-0.7-0.3-1-0.5c-0.2-0.2-0.4-0.4-0.5-0.6c-0.1-0.2-0.2-0.5-0.2-0.9c0-0.5,0.1-0.9,0.3-1.2
		c0.2-0.4,0.4-0.7,0.7-0.9c0.3-0.3,0.7-0.5,1.1-0.6c0.4-0.1,0.9-0.2,1.4-0.2c0.7,0,1.3,0.1,1.9,0.3c0.6,0.2,1.1,0.5,1.6,0.9
		l-0.9,1.4c-0.5-0.3-0.9-0.6-1.3-0.7c-0.4-0.2-0.9-0.2-1.3-0.2c-0.4,0-0.7,0.1-1,0.2c-0.3,0.2-0.4,0.4-0.4,0.8c0,0.2,0,0.3,0.1,0.4
		c0.1,0.1,0.2,0.2,0.3,0.3c0.1,0.1,0.3,0.2,0.5,0.2c0.2,0.1,0.5,0.2,0.8,0.2c0.6,0.2,1.1,0.3,1.6,0.5c0.4,0.2,0.8,0.3,1.1,0.5
		c0.3,0.2,0.5,0.4,0.6,0.7c0.1,0.3,0.2,0.6,0.2,1c0,0.9-0.3,1.6-1,2.1C198.9,56.4,198,56.6,196.9,56.6"/>
	<path fill="#010101" d="M202,44h2.3v2.3H202V44z M202,47.5h2.3v8.9H202V47.5z"/>
	<path fill="#010101" d="M210.4,56.6c-0.7,0-1.4-0.1-2-0.4c-0.6-0.2-1.1-0.6-1.5-1c-0.4-0.4-0.7-0.9-0.9-1.5
		c-0.2-0.6-0.3-1.1-0.3-1.8c0-0.6,0.1-1.2,0.3-1.8c0.2-0.6,0.5-1,0.9-1.5c0.4-0.4,0.9-0.8,1.5-1c0.6-0.3,1.2-0.4,2-0.4
		c0.7,0,1.4,0.1,1.9,0.4c0.6,0.2,1.1,0.6,1.5,1c0.4,0.4,0.7,0.9,0.9,1.5c0.2,0.6,0.3,1.2,0.3,1.8c0,0.6-0.1,1.2-0.3,1.8
		c-0.2,0.6-0.5,1-0.9,1.5c-0.4,0.4-0.9,0.8-1.5,1C211.8,56.5,211.2,56.6,210.4,56.6 M208.1,52c0,0.4,0.1,0.8,0.2,1.1
		c0.1,0.3,0.3,0.6,0.5,0.8c0.2,0.2,0.5,0.4,0.7,0.6c0.3,0.1,0.6,0.2,0.9,0.2c0.3,0,0.6-0.1,0.9-0.2c0.3-0.1,0.5-0.3,0.7-0.6
		c0.2-0.2,0.4-0.5,0.5-0.9c0.1-0.3,0.2-0.7,0.2-1.1c0-0.4-0.1-0.7-0.2-1.1c-0.1-0.3-0.3-0.6-0.5-0.8c-0.2-0.2-0.5-0.4-0.7-0.6
		c-0.3-0.1-0.6-0.2-0.9-0.2c-0.3,0-0.6,0.1-0.9,0.2c-0.3,0.1-0.5,0.3-0.7,0.6c-0.2,0.2-0.4,0.5-0.5,0.9
		C208.2,51.3,208.1,51.6,208.1,52"/>
	<path fill="#010101" d="M224.9,56.5h-2.3v-5c0-0.7-0.1-1.2-0.4-1.6c-0.3-0.3-0.6-0.5-1-0.5c-0.2,0-0.5,0-0.7,0.1
		c-0.2,0.1-0.5,0.2-0.7,0.4c-0.2,0.2-0.4,0.4-0.6,0.6c-0.2,0.2-0.3,0.5-0.4,0.8v5.2h-2.3v-8.9h2.1v1.7c0.3-0.6,0.8-1,1.4-1.3
		c0.6-0.3,1.3-0.5,2.1-0.5c0.6,0,1,0.1,1.4,0.3c0.3,0.2,0.6,0.5,0.8,0.8c0.2,0.3,0.3,0.7,0.4,1.1c0.1,0.4,0.1,0.9,0.1,1.3V56.5z"/>
	<path fill="#58595B" d="M165.4,66.2c-0.3,0.3-0.6,0.4-1,0.4c-0.2,0-0.4,0-0.6-0.1c-0.2-0.1-0.4-0.2-0.5-0.4
		c-0.1-0.2-0.3-0.3-0.4-0.6c-0.1-0.2-0.1-0.4-0.1-0.7c0-0.2,0-0.5,0.1-0.7c0.1-0.2,0.2-0.4,0.4-0.6c0.2-0.2,0.3-0.3,0.5-0.4
		c0.2-0.1,0.4-0.1,0.7-0.1c0.3,0,0.6,0.1,0.8,0.2c0.2,0.1,0.4,0.3,0.5,0.5l-0.5,0.4c-0.1-0.2-0.2-0.3-0.4-0.4
		c-0.2-0.1-0.3-0.1-0.5-0.1c-0.1,0-0.3,0-0.4,0.1c-0.1,0.1-0.2,0.1-0.3,0.3c-0.1,0.1-0.1,0.2-0.2,0.4c0,0.1-0.1,0.3-0.1,0.4
		c0,0.2,0,0.3,0.1,0.5c0.1,0.1,0.1,0.3,0.2,0.4c0.1,0.1,0.2,0.2,0.3,0.2c0.1,0.1,0.3,0.1,0.4,0.1c0.3,0,0.6-0.2,0.9-0.5v-0.2h-0.7
		v-0.5h1.3v1.8h-0.6V66.2z"/>
	<path fill="#58595B" d="M167.5,66.7c-0.2,0-0.4,0-0.6-0.1c-0.2-0.1-0.3-0.2-0.4-0.3c-0.1-0.1-0.2-0.3-0.3-0.4
		c-0.1-0.2-0.1-0.3-0.1-0.5c0-0.2,0-0.3,0.1-0.5c0.1-0.2,0.2-0.3,0.3-0.4c0.1-0.1,0.3-0.2,0.4-0.3c0.2-0.1,0.4-0.1,0.6-0.1
		c0.2,0,0.4,0,0.6,0.1c0.2,0.1,0.3,0.2,0.4,0.3c0.1,0.1,0.2,0.3,0.3,0.4c0.1,0.2,0.1,0.3,0.1,0.5c0,0.2,0,0.3-0.1,0.5
		c-0.1,0.2-0.2,0.3-0.3,0.4c-0.1,0.1-0.3,0.2-0.4,0.3C167.9,66.6,167.7,66.7,167.5,66.7 M166.9,65.4c0,0.1,0,0.2,0.1,0.3
		c0,0.1,0.1,0.2,0.1,0.2c0.1,0.1,0.1,0.1,0.2,0.2c0.1,0,0.2,0.1,0.3,0.1c0.1,0,0.2,0,0.3-0.1c0.1,0,0.2-0.1,0.2-0.2
		c0.1-0.1,0.1-0.1,0.1-0.2c0-0.1,0-0.2,0-0.3c0-0.1,0-0.2,0-0.3c0-0.1-0.1-0.2-0.1-0.2c-0.1-0.1-0.1-0.1-0.2-0.2
		c-0.1,0-0.2-0.1-0.3-0.1c-0.1,0-0.2,0-0.3,0.1c-0.1,0-0.2,0.1-0.2,0.2c-0.1,0.1-0.1,0.2-0.1,0.2C166.9,65.1,166.9,65.3,166.9,65.4"
		/>
	<polygon fill="#58595B" points="169.8,66.6 168.9,64.1 169.5,64.1 170.2,66.1 170.8,64.1 171.5,64.1 170.5,66.6 	"/>
	<path fill="#58595B" d="M172.8,66.7c-0.2,0-0.4,0-0.6-0.1c-0.2-0.1-0.3-0.2-0.4-0.3c-0.1-0.1-0.2-0.3-0.3-0.4
		c-0.1-0.2-0.1-0.3-0.1-0.5c0-0.2,0-0.4,0.1-0.5c0.1-0.2,0.2-0.3,0.3-0.4c0.1-0.1,0.3-0.2,0.4-0.3c0.2-0.1,0.4-0.1,0.6-0.1
		c0.2,0,0.4,0,0.6,0.1c0.2,0.1,0.3,0.2,0.4,0.3c0.1,0.1,0.2,0.3,0.3,0.4c0.1,0.2,0.1,0.3,0.1,0.5c0,0,0,0.1,0,0.1c0,0,0,0.1,0,0.1
		h-2c0,0.1,0,0.2,0.1,0.3c0,0.1,0.1,0.1,0.2,0.2c0.1,0.1,0.1,0.1,0.2,0.1c0.1,0,0.2,0,0.2,0c0.1,0,0.3,0,0.4-0.1
		c0.1-0.1,0.2-0.1,0.2-0.3L174,66c-0.1,0.2-0.2,0.4-0.4,0.5C173.3,66.6,173.1,66.7,172.8,66.7 M173.5,65.1c0-0.2-0.1-0.3-0.2-0.5
		c-0.1-0.1-0.3-0.2-0.5-0.2c-0.1,0-0.2,0-0.2,0c-0.1,0-0.1,0.1-0.2,0.1c-0.1,0.1-0.1,0.1-0.1,0.2c0,0.1-0.1,0.2-0.1,0.3H173.5z"/>
	<path fill="#58595B" d="M176,64.6c-0.2,0-0.4,0-0.5,0.1c-0.2,0.1-0.3,0.2-0.3,0.3v1.5h-0.7v-2.6h0.6v0.5c0-0.1,0.1-0.2,0.2-0.2
		c0.1-0.1,0.1-0.1,0.2-0.2c0.1-0.1,0.1-0.1,0.2-0.1c0.1,0,0.1,0,0.2,0h0.1c0,0,0,0,0.1,0V64.6z"/>
	<path fill="#58595B" d="M178.6,66.6h-0.7v-1.4c0-0.2,0-0.4-0.1-0.4c-0.1-0.1-0.2-0.1-0.3-0.1c-0.1,0-0.1,0-0.2,0
		c-0.1,0-0.1,0.1-0.2,0.1c-0.1,0-0.1,0.1-0.2,0.2c0,0.1-0.1,0.1-0.1,0.2v1.5h-0.7v-2.6h0.6v0.5c0.1-0.2,0.2-0.3,0.4-0.4
		c0.2-0.1,0.4-0.1,0.6-0.1c0.2,0,0.3,0,0.4,0.1c0.1,0.1,0.2,0.1,0.2,0.2c0.1,0.1,0.1,0.2,0.1,0.3c0,0.1,0,0.2,0,0.4V66.6z"/>
	<path fill="#58595B" d="M183,66.6h-0.7v-1.4c0-0.2,0-0.4-0.1-0.4c-0.1-0.1-0.2-0.1-0.3-0.1c-0.1,0-0.3,0-0.4,0.1
		c-0.1,0.1-0.2,0.2-0.2,0.4v1.5h-0.6v-1.4c0-0.2,0-0.4-0.1-0.4c-0.1-0.1-0.2-0.1-0.3-0.1c-0.1,0-0.2,0-0.4,0.1
		c-0.1,0.1-0.2,0.2-0.2,0.4v1.5h-0.6v-2.6h0.6v0.5c0.1-0.2,0.2-0.3,0.4-0.4c0.2-0.1,0.4-0.1,0.6-0.1c0.2,0,0.4,0,0.5,0.2
		c0.1,0.1,0.2,0.2,0.2,0.4c0.1-0.2,0.2-0.3,0.4-0.4c0.2-0.1,0.3-0.1,0.5-0.1c0.2,0,0.3,0,0.4,0.1c0.1,0.1,0.2,0.1,0.2,0.2
		c0.1,0.1,0.1,0.2,0.1,0.3c0,0.1,0,0.2,0,0.4V66.6z"/>
	<path fill="#58595B" d="M184.7,66.7c-0.2,0-0.4,0-0.6-0.1c-0.2-0.1-0.3-0.2-0.4-0.3c-0.1-0.1-0.2-0.3-0.3-0.4
		c-0.1-0.2-0.1-0.3-0.1-0.5c0-0.2,0-0.4,0.1-0.5c0.1-0.2,0.2-0.3,0.3-0.4c0.1-0.1,0.3-0.2,0.4-0.3c0.2-0.1,0.4-0.1,0.6-0.1
		s0.4,0,0.6,0.1c0.2,0.1,0.3,0.2,0.4,0.3c0.1,0.1,0.2,0.3,0.3,0.4c0.1,0.2,0.1,0.3,0.1,0.5c0,0,0,0.1,0,0.1c0,0,0,0.1,0,0.1h-2
		c0,0.1,0,0.2,0.1,0.3c0,0.1,0.1,0.1,0.2,0.2c0.1,0.1,0.1,0.1,0.2,0.1c0.1,0,0.2,0,0.2,0c0.1,0,0.3,0,0.4-0.1
		c0.1-0.1,0.2-0.1,0.2-0.3l0.6,0.2c-0.1,0.2-0.2,0.4-0.5,0.5C185.2,66.6,185,66.7,184.7,66.7 M185.3,65.1c0-0.2-0.1-0.3-0.2-0.5
		c-0.1-0.1-0.3-0.2-0.5-0.2c-0.1,0-0.2,0-0.2,0c-0.1,0-0.1,0.1-0.2,0.1c-0.1,0.1-0.1,0.1-0.1,0.2c0,0.1-0.1,0.2-0.1,0.3H185.3z"/>
	<path fill="#58595B" d="M188.7,66.6H188v-1.4c0-0.2,0-0.4-0.1-0.4c-0.1-0.1-0.2-0.1-0.3-0.1c-0.1,0-0.1,0-0.2,0
		c-0.1,0-0.1,0.1-0.2,0.1c-0.1,0-0.1,0.1-0.2,0.2c0,0.1-0.1,0.1-0.1,0.2v1.5h-0.7v-2.6h0.6v0.5c0.1-0.2,0.2-0.3,0.4-0.4
		c0.2-0.1,0.4-0.1,0.6-0.1c0.2,0,0.3,0,0.4,0.1c0.1,0.1,0.2,0.1,0.2,0.2c0.1,0.1,0.1,0.2,0.1,0.3c0,0.1,0,0.2,0,0.4V66.6z"/>
	<path fill="#58595B" d="M190.7,66.5c-0.1,0-0.2,0.1-0.3,0.1c-0.1,0-0.3,0.1-0.4,0.1c-0.1,0-0.2,0-0.3,0c-0.1,0-0.1-0.1-0.2-0.1
		c-0.1-0.1-0.1-0.1-0.1-0.2c0-0.1-0.1-0.2-0.1-0.3v-1.5h-0.3v-0.5h0.3v-0.8h0.7v0.8h0.5v0.5h-0.5v1.2c0,0.1,0,0.2,0.1,0.2
		c0,0,0.1,0.1,0.2,0.1c0.1,0,0.1,0,0.2,0c0.1,0,0.1,0,0.2-0.1L190.7,66.5z"/>
	<path fill="#58595B" d="M193.2,66.7c-0.2,0-0.4,0-0.6-0.1c-0.2-0.1-0.3-0.2-0.4-0.3c-0.1-0.1-0.2-0.3-0.3-0.4
		c-0.1-0.2-0.1-0.3-0.1-0.5c0-0.2,0-0.3,0.1-0.5c0.1-0.2,0.2-0.3,0.3-0.4c0.1-0.1,0.3-0.2,0.4-0.3c0.2-0.1,0.4-0.1,0.6-0.1
		c0.2,0,0.4,0,0.6,0.1c0.2,0.1,0.3,0.2,0.4,0.3c0.1,0.1,0.2,0.3,0.3,0.4c0.1,0.2,0.1,0.3,0.1,0.5c0,0.2,0,0.3-0.1,0.5
		c-0.1,0.2-0.1,0.3-0.3,0.4c-0.1,0.1-0.3,0.2-0.4,0.3C193.6,66.6,193.4,66.7,193.2,66.7 M192.5,65.4c0,0.1,0,0.2,0,0.3
		c0,0.1,0.1,0.2,0.1,0.2c0.1,0.1,0.1,0.1,0.2,0.2c0.1,0,0.2,0.1,0.3,0.1s0.2,0,0.3-0.1c0.1,0,0.2-0.1,0.2-0.2
		c0.1-0.1,0.1-0.1,0.1-0.2c0-0.1,0.1-0.2,0.1-0.3c0-0.1,0-0.2-0.1-0.3c0-0.1-0.1-0.2-0.1-0.2c-0.1-0.1-0.1-0.1-0.2-0.2
		c-0.1,0-0.2-0.1-0.3-0.1s-0.2,0-0.3,0.1c-0.1,0-0.2,0.1-0.2,0.2c-0.1,0.1-0.1,0.2-0.1,0.2C192.5,65.1,192.5,65.3,192.5,65.4"/>
	<path fill="#58595B" d="M195,66.6v-1.9h-0.3v-0.5h0.3v-0.2c0-0.3,0.1-0.6,0.2-0.8c0.2-0.2,0.4-0.3,0.6-0.3c0.2,0,0.4,0.1,0.6,0.2
		l-0.1,0.5c0,0-0.1,0-0.2-0.1c-0.1,0-0.1,0-0.2,0c-0.2,0-0.3,0.2-0.3,0.5v0.2h0.6v0.5h-0.6v1.9H195z"/>
	<path fill="#58595B" d="M199,66.5c-0.1,0-0.2,0.1-0.3,0.1c-0.1,0-0.3,0.1-0.4,0.1c-0.1,0-0.2,0-0.3,0c-0.1,0-0.1-0.1-0.2-0.1
		c-0.1-0.1-0.1-0.1-0.1-0.2c0-0.1-0.1-0.2-0.1-0.3v-1.5h-0.3v-0.5h0.3v-0.8h0.7v0.8h0.5v0.5h-0.5v1.2c0,0.1,0,0.2,0.1,0.2
		c0,0,0.1,0.1,0.2,0.1c0.1,0,0.1,0,0.2,0c0.1,0,0.1,0,0.2-0.1L199,66.5z"/>
	<path fill="#58595B" d="M201.6,66.6H201v-1.4c0-0.2,0-0.4-0.1-0.4c-0.1-0.1-0.2-0.1-0.3-0.1c-0.1,0-0.1,0-0.2,0
		c-0.1,0-0.1,0.1-0.2,0.1c-0.1,0-0.1,0.1-0.2,0.2c0,0.1-0.1,0.1-0.1,0.2v1.5h-0.7v-3.6h0.7v1.5c0.1-0.2,0.2-0.3,0.4-0.4
		c0.2-0.1,0.3-0.1,0.5-0.1c0.2,0,0.3,0,0.4,0.1c0.1,0.1,0.2,0.1,0.2,0.2c0.1,0.1,0.1,0.2,0.1,0.3c0,0.1,0,0.2,0,0.4V66.6z"/>
	<path fill="#58595B" d="M203.3,66.7c-0.2,0-0.4,0-0.6-0.1c-0.2-0.1-0.3-0.2-0.4-0.3c-0.1-0.1-0.2-0.3-0.3-0.4
		c-0.1-0.2-0.1-0.3-0.1-0.5c0-0.2,0-0.4,0.1-0.5c0.1-0.2,0.2-0.3,0.3-0.4c0.1-0.1,0.3-0.2,0.4-0.3c0.2-0.1,0.4-0.1,0.6-0.1
		s0.4,0,0.6,0.1c0.2,0.1,0.3,0.2,0.4,0.3c0.1,0.1,0.2,0.3,0.3,0.4c0.1,0.2,0.1,0.3,0.1,0.5c0,0,0,0.1,0,0.1c0,0,0,0.1,0,0.1h-2
		c0,0.1,0,0.2,0.1,0.3c0,0.1,0.1,0.1,0.2,0.2c0.1,0.1,0.1,0.1,0.2,0.1c0.1,0,0.2,0,0.2,0c0.1,0,0.3,0,0.4-0.1
		c0.1-0.1,0.2-0.1,0.2-0.3l0.6,0.2c-0.1,0.2-0.2,0.4-0.5,0.5C203.8,66.6,203.6,66.7,203.3,66.7 M203.9,65.1c0-0.2-0.1-0.3-0.2-0.5
		c-0.1-0.1-0.3-0.2-0.5-0.2c-0.1,0-0.2,0-0.2,0c-0.1,0-0.1,0.1-0.2,0.1c-0.1,0.1-0.1,0.1-0.1,0.2c0,0.1-0.1,0.2-0.1,0.3H203.9z"/>
	<path fill="#58595B" d="M206,66.6v-3.5h1.5c0.2,0,0.3,0,0.4,0.1c0.1,0.1,0.3,0.2,0.3,0.3c0.1,0.1,0.2,0.2,0.2,0.4
		c0.1,0.1,0.1,0.3,0.1,0.4c0,0.1,0,0.3-0.1,0.4c-0.1,0.1-0.1,0.3-0.2,0.4c-0.1,0.1-0.2,0.2-0.3,0.3c-0.1,0.1-0.3,0.1-0.4,0.1h-0.8
		v1.2H206z M206.7,64.9h0.8c0.1,0,0.2,0,0.3-0.1c0.1-0.1,0.1-0.2,0.1-0.4c0-0.1,0-0.2,0-0.2c0-0.1-0.1-0.1-0.1-0.2
		c0,0-0.1-0.1-0.1-0.1c-0.1,0-0.1,0-0.2,0h-0.8V64.9z"/>
	<path fill="#58595B" d="M210.1,66.7c-0.2,0-0.4,0-0.6-0.1c-0.2-0.1-0.3-0.2-0.4-0.3c-0.1-0.1-0.2-0.3-0.3-0.4
		c-0.1-0.2-0.1-0.3-0.1-0.5c0-0.2,0-0.4,0.1-0.5c0.1-0.2,0.2-0.3,0.3-0.4c0.1-0.1,0.3-0.2,0.4-0.3c0.2-0.1,0.4-0.1,0.6-0.1
		c0.2,0,0.4,0,0.6,0.1c0.2,0.1,0.3,0.2,0.4,0.3c0.1,0.1,0.2,0.3,0.3,0.4c0.1,0.2,0.1,0.3,0.1,0.5c0,0,0,0.1,0,0.1c0,0,0,0.1,0,0.1
		h-2c0,0.1,0,0.2,0.1,0.3c0,0.1,0.1,0.1,0.2,0.2c0.1,0.1,0.1,0.1,0.2,0.1c0.1,0,0.2,0,0.2,0c0.1,0,0.3,0,0.4-0.1
		c0.1-0.1,0.2-0.1,0.2-0.3l0.6,0.2c-0.1,0.2-0.2,0.4-0.4,0.5C210.6,66.6,210.3,66.7,210.1,66.7 M210.7,65.1c0-0.2-0.1-0.3-0.2-0.5
		c-0.1-0.1-0.3-0.2-0.5-0.2c-0.1,0-0.2,0-0.2,0c-0.1,0-0.1,0.1-0.2,0.1c-0.1,0.1-0.1,0.1-0.1,0.2c0,0.1-0.1,0.2-0.1,0.3H210.7z"/>
	<path fill="#58595B" d="M212.9,66.7c-0.2,0-0.4,0-0.6-0.1c-0.2-0.1-0.3-0.2-0.4-0.3c-0.1-0.1-0.2-0.3-0.3-0.4
		c-0.1-0.2-0.1-0.3-0.1-0.5c0-0.2,0-0.3,0.1-0.5c0.1-0.2,0.2-0.3,0.3-0.4c0.1-0.1,0.3-0.2,0.4-0.3c0.2-0.1,0.4-0.1,0.6-0.1
		s0.4,0,0.6,0.1c0.2,0.1,0.3,0.2,0.4,0.3c0.1,0.1,0.2,0.3,0.3,0.4c0.1,0.2,0.1,0.3,0.1,0.5c0,0.2,0,0.3-0.1,0.5
		c-0.1,0.2-0.1,0.3-0.3,0.4c-0.1,0.1-0.3,0.2-0.4,0.3C213.3,66.6,213.1,66.7,212.9,66.7 M212.2,65.4c0,0.1,0,0.2,0,0.3
		c0,0.1,0.1,0.2,0.1,0.2c0.1,0.1,0.1,0.1,0.2,0.2c0.1,0,0.2,0.1,0.3,0.1c0.1,0,0.2,0,0.3-0.1c0.1,0,0.2-0.1,0.2-0.2
		c0.1-0.1,0.1-0.1,0.1-0.2c0-0.1,0-0.2,0-0.3c0-0.1,0-0.2,0-0.3c0-0.1-0.1-0.2-0.1-0.2c-0.1-0.1-0.1-0.1-0.2-0.2
		c-0.1,0-0.2-0.1-0.3-0.1c-0.1,0-0.2,0-0.3,0.1c-0.1,0-0.1,0.1-0.2,0.2c-0.1,0.1-0.1,0.2-0.1,0.2C212.2,65.1,212.2,65.3,212.2,65.4"
		/>
	<path fill="#58595B" d="M216.1,66.7c-0.2,0-0.4,0-0.5-0.1c-0.1-0.1-0.3-0.2-0.4-0.4v1.5h-0.7v-3.6h0.6v0.4c0.1-0.1,0.2-0.3,0.4-0.4
		c0.1-0.1,0.3-0.1,0.5-0.1c0.2,0,0.3,0,0.5,0.1c0.1,0.1,0.3,0.2,0.4,0.3c0.1,0.1,0.2,0.3,0.2,0.4c0.1,0.2,0.1,0.3,0.1,0.5
		c0,0.2,0,0.4-0.1,0.5c-0.1,0.2-0.1,0.3-0.2,0.4c-0.1,0.1-0.2,0.2-0.4,0.3C216.4,66.6,216.2,66.7,216.1,66.7 M215.9,66.1
		c0.1,0,0.2,0,0.3-0.1c0.1,0,0.2-0.1,0.2-0.2c0.1-0.1,0.1-0.2,0.1-0.2c0-0.1,0-0.2,0-0.3c0-0.1,0-0.2-0.1-0.3c0-0.1-0.1-0.2-0.1-0.2
		c-0.1-0.1-0.1-0.1-0.2-0.2c-0.1,0-0.2-0.1-0.3-0.1c-0.1,0-0.1,0-0.2,0c-0.1,0-0.1,0.1-0.2,0.1c-0.1,0-0.1,0.1-0.1,0.1
		c0,0.1-0.1,0.1-0.1,0.2v0.6c0.1,0.1,0.1,0.3,0.3,0.4C215.6,66.1,215.7,66.1,215.9,66.1"/>
	<path fill="#58595B" d="M217.5,63.1h0.7v2.7c0,0.1,0,0.2,0.1,0.2c0,0.1,0.1,0.1,0.2,0.1c0,0,0.1,0,0.1,0c0,0,0.1,0,0.1,0l0.1,0.5
		c-0.1,0-0.2,0.1-0.3,0.1c-0.1,0-0.2,0-0.3,0c-0.2,0-0.4-0.1-0.5-0.2c-0.1-0.1-0.2-0.3-0.2-0.5V63.1z"/>
	<path fill="#58595B" d="M220.2,66.7c-0.2,0-0.4,0-0.6-0.1c-0.2-0.1-0.3-0.2-0.4-0.3c-0.1-0.1-0.2-0.3-0.3-0.4
		c-0.1-0.2-0.1-0.3-0.1-0.5c0-0.2,0-0.4,0.1-0.5c0.1-0.2,0.2-0.3,0.3-0.4c0.1-0.1,0.3-0.2,0.4-0.3c0.2-0.1,0.4-0.1,0.6-0.1
		c0.2,0,0.4,0,0.6,0.1c0.2,0.1,0.3,0.2,0.4,0.3c0.1,0.1,0.2,0.3,0.3,0.4c0.1,0.2,0.1,0.3,0.1,0.5c0,0,0,0.1,0,0.1c0,0,0,0.1,0,0.1
		h-2c0,0.1,0,0.2,0.1,0.3c0,0.1,0.1,0.1,0.2,0.2c0.1,0.1,0.1,0.1,0.2,0.1c0.1,0,0.2,0,0.2,0c0.1,0,0.3,0,0.4-0.1
		c0.1-0.1,0.2-0.1,0.2-0.3l0.6,0.2c-0.1,0.2-0.2,0.4-0.4,0.5C220.7,66.6,220.5,66.7,220.2,66.7 M220.8,65.1c0-0.2-0.1-0.3-0.2-0.5
		c-0.1-0.1-0.3-0.2-0.5-0.2c-0.1,0-0.2,0-0.2,0c-0.1,0-0.1,0.1-0.2,0.1c-0.1,0.1-0.1,0.1-0.1,0.2c0,0.1-0.1,0.2-0.1,0.3H220.8z"/>
	<polygon fill="#58595B" points="221.8,64.3 221.9,63.7 221.7,63.7 221.7,63 222.3,63 222.3,63.7 222.2,64.3 	"/>
	<path fill="#58595B" d="M223.7,66.7c-0.2,0-0.4,0-0.6-0.1c-0.2-0.1-0.4-0.2-0.5-0.3l0.2-0.4c0.2,0.1,0.3,0.2,0.5,0.3
		c0.1,0.1,0.3,0.1,0.4,0.1c0.1,0,0.2,0,0.3-0.1c0.1,0,0.1-0.1,0.1-0.2c0-0.1,0-0.2-0.1-0.2c-0.1,0-0.2-0.1-0.4-0.1
		c-0.2,0-0.3-0.1-0.4-0.1c-0.1,0-0.2-0.1-0.3-0.1c-0.1-0.1-0.1-0.1-0.2-0.2c0-0.1,0-0.1,0-0.2c0-0.1,0-0.2,0.1-0.4
		c0.1-0.1,0.1-0.2,0.2-0.3c0.1-0.1,0.2-0.1,0.3-0.2c0.1,0,0.3-0.1,0.4-0.1c0.2,0,0.4,0,0.5,0.1c0.2,0.1,0.3,0.1,0.5,0.3l-0.3,0.4
		c-0.1-0.1-0.3-0.2-0.4-0.2c-0.1,0-0.2-0.1-0.4-0.1c-0.1,0-0.2,0-0.3,0.1c-0.1,0-0.1,0.1-0.1,0.2c0,0,0,0.1,0,0.1c0,0,0,0.1,0.1,0.1
		c0,0,0.1,0,0.2,0.1c0.1,0,0.1,0,0.2,0.1c0.2,0,0.3,0.1,0.5,0.1c0.1,0,0.2,0.1,0.3,0.2c0.1,0.1,0.1,0.1,0.2,0.2
		c0,0.1,0.1,0.2,0.1,0.3c0,0.2-0.1,0.4-0.3,0.6C224.3,66.6,224,66.7,223.7,66.7"/>
	<path fill="#58595B" d="M163,72.5V69h1.6c0.2,0,0.3,0,0.5,0.1c0.1,0.1,0.3,0.2,0.4,0.3c0.1,0.1,0.2,0.2,0.2,0.4
		c0.1,0.1,0.1,0.3,0.1,0.4c0,0.2-0.1,0.4-0.2,0.6c-0.1,0.2-0.3,0.3-0.5,0.4l0.8,1.3h-0.8l-0.7-1.2h-0.7v1.2H163z M163.7,70.7h0.9
		c0.1,0,0.1,0,0.2,0c0.1,0,0.1-0.1,0.1-0.1c0-0.1,0.1-0.1,0.1-0.2c0-0.1,0-0.1,0-0.2c0-0.1,0-0.2,0-0.2c0-0.1-0.1-0.1-0.1-0.2
		c0,0-0.1-0.1-0.2-0.1c-0.1,0-0.1,0-0.2,0h-0.8V70.7z"/>
	<path fill="#58595B" d="M167.7,72.5c-0.2,0-0.4,0-0.6-0.1c-0.2-0.1-0.3-0.2-0.4-0.3c-0.1-0.1-0.2-0.3-0.3-0.4
		c-0.1-0.2-0.1-0.3-0.1-0.5c0-0.2,0-0.4,0.1-0.5c0.1-0.2,0.2-0.3,0.3-0.4c0.1-0.1,0.3-0.2,0.4-0.3c0.2-0.1,0.4-0.1,0.6-0.1
		c0.2,0,0.4,0,0.6,0.1c0.2,0.1,0.3,0.2,0.4,0.3c0.1,0.1,0.2,0.3,0.3,0.4c0.1,0.2,0.1,0.3,0.1,0.5c0,0,0,0.1,0,0.1c0,0,0,0.1,0,0.1
		H167c0,0.1,0,0.2,0.1,0.3c0,0.1,0.1,0.1,0.2,0.2c0.1,0.1,0.1,0.1,0.2,0.1c0.1,0,0.2,0,0.3,0c0.1,0,0.3,0,0.4-0.1
		c0.1-0.1,0.2-0.1,0.2-0.2l0.6,0.2c-0.1,0.2-0.3,0.4-0.5,0.5C168.2,72.5,168,72.5,167.7,72.5 M168.4,71c0-0.2-0.1-0.3-0.2-0.5
		c-0.1-0.1-0.3-0.2-0.5-0.2c-0.1,0-0.2,0-0.3,0c-0.1,0-0.2,0.1-0.2,0.1c-0.1,0.1-0.1,0.1-0.2,0.2c0,0.1-0.1,0.2-0.1,0.3H168.4z"/>
	<path fill="#58595B" d="M171.3,72.5c-0.2,0-0.4,0-0.5-0.1c-0.2-0.1-0.3-0.2-0.4-0.4v1.5h-0.7v-3.6h0.6v0.4c0.1-0.2,0.2-0.3,0.4-0.4
		c0.2-0.1,0.3-0.1,0.5-0.1c0.2,0,0.3,0,0.5,0.1c0.2,0.1,0.3,0.2,0.4,0.3c0.1,0.1,0.2,0.3,0.3,0.4c0.1,0.2,0.1,0.3,0.1,0.5
		c0,0.2,0,0.4-0.1,0.5c-0.1,0.2-0.1,0.3-0.2,0.4c-0.1,0.1-0.2,0.2-0.4,0.3C171.6,72.5,171.5,72.5,171.3,72.5 M171.1,72
		c0.1,0,0.2,0,0.3-0.1c0.1,0,0.2-0.1,0.2-0.2c0.1-0.1,0.1-0.2,0.1-0.2c0-0.1,0-0.2,0-0.3c0-0.1,0-0.2-0.1-0.3c0-0.1-0.1-0.2-0.2-0.2
		c-0.1-0.1-0.1-0.1-0.2-0.2c-0.1,0-0.2-0.1-0.3-0.1c-0.1,0-0.1,0-0.2,0c-0.1,0-0.1,0.1-0.2,0.1c-0.1,0-0.1,0.1-0.2,0.1
		c0,0.1-0.1,0.1-0.1,0.2v0.6c0.1,0.1,0.2,0.3,0.3,0.4C170.8,71.9,170.9,72,171.1,72"/>
	<path fill="#58595B" d="M173.9,72.5c-0.3,0-0.5-0.1-0.6-0.3c-0.1-0.2-0.2-0.4-0.2-0.8v-1.6h0.7v1.5c0,0.4,0.1,0.6,0.4,0.6
		c0.1,0,0.3,0,0.4-0.1c0.1-0.1,0.2-0.2,0.3-0.3v-1.6h0.7v1.8c0,0.1,0,0.1,0,0.1c0,0,0.1,0,0.1,0v0.6c-0.1,0-0.1,0-0.2,0
		c0,0-0.1,0-0.1,0c-0.1,0-0.2,0-0.3-0.1c-0.1-0.1-0.1-0.1-0.1-0.2l0-0.2c-0.1,0.2-0.3,0.3-0.5,0.4C174.4,72.5,174.2,72.5,173.9,72.5
		"/>
	<path fill="#58595B" d="M178,72.5c-0.2,0-0.4,0-0.5-0.1c-0.2-0.1-0.3-0.2-0.4-0.4v0.4h-0.6v-3.6h0.7v1.5c0.1-0.2,0.2-0.3,0.4-0.4
		c0.2-0.1,0.3-0.1,0.5-0.1c0.2,0,0.3,0,0.5,0.1c0.1,0.1,0.3,0.2,0.4,0.3c0.1,0.1,0.2,0.3,0.2,0.4c0.1,0.2,0.1,0.3,0.1,0.5
		c0,0.2,0,0.4-0.1,0.5c-0.1,0.2-0.1,0.3-0.3,0.4c-0.1,0.1-0.2,0.2-0.4,0.3C178.3,72.5,178.2,72.5,178,72.5 M177.8,72
		c0.1,0,0.2,0,0.3-0.1c0.1,0,0.2-0.1,0.2-0.2c0.1-0.1,0.1-0.1,0.2-0.2c0-0.1,0.1-0.2,0.1-0.3c0-0.1,0-0.2-0.1-0.3
		c0-0.1-0.1-0.2-0.1-0.2c-0.1-0.1-0.1-0.1-0.2-0.2c-0.1,0-0.2-0.1-0.3-0.1c-0.2,0-0.3,0-0.4,0.1c-0.1,0.1-0.2,0.2-0.3,0.4v0.6
		c0,0.1,0.1,0.1,0.1,0.2c0,0.1,0.1,0.1,0.2,0.1c0.1,0,0.1,0.1,0.2,0.1C177.7,72,177.7,72,177.8,72"/>
	<path fill="#58595B" d="M179.9,68.9h0.7v2.7c0,0.1,0,0.2,0.1,0.2c0,0.1,0.1,0.1,0.2,0.1c0,0,0.1,0,0.1,0c0,0,0.1,0,0.1-0.1l0.1,0.5
		c-0.1,0-0.2,0.1-0.3,0.1c-0.1,0-0.2,0-0.3,0c-0.2,0-0.4-0.1-0.5-0.2c-0.1-0.1-0.2-0.3-0.2-0.5V68.9z"/>
	<path fill="#58595B" d="M181.7,68.9h0.7v0.6h-0.7V68.9z M181.7,69.9h0.7v2.6h-0.7V69.9z"/>
	<path fill="#58595B" d="M183,71.2c0-0.2,0-0.3,0.1-0.5c0.1-0.2,0.2-0.3,0.3-0.4c0.1-0.1,0.3-0.2,0.4-0.3c0.2-0.1,0.4-0.1,0.6-0.1
		c0.3,0,0.5,0.1,0.7,0.2c0.2,0.1,0.4,0.3,0.5,0.5l-0.7,0.2c-0.1-0.1-0.1-0.2-0.2-0.2c-0.1-0.1-0.2-0.1-0.3-0.1c-0.1,0-0.2,0-0.3,0.1
		c-0.1,0-0.2,0.1-0.2,0.2c-0.1,0.1-0.1,0.1-0.1,0.2c0,0.1-0.1,0.2-0.1,0.3c0,0.1,0,0.2,0.1,0.3c0,0.1,0.1,0.2,0.1,0.2
		c0.1,0.1,0.1,0.1,0.2,0.2c0.1,0,0.2,0.1,0.3,0.1c0.1,0,0.2,0,0.3-0.1c0.1-0.1,0.2-0.1,0.2-0.2l0.7,0.2c-0.1,0.2-0.2,0.4-0.5,0.5
		c-0.2,0.1-0.5,0.2-0.8,0.2c-0.2,0-0.4,0-0.6-0.1c-0.2-0.1-0.3-0.2-0.4-0.3c-0.1-0.1-0.2-0.3-0.3-0.4C183.1,71.5,183,71.4,183,71.2"
		/>
	<path fill="#58595B" d="M188.9,72.5c-0.2,0-0.4,0-0.6-0.1c-0.2-0.1-0.3-0.2-0.4-0.3c-0.1-0.1-0.2-0.3-0.3-0.4
		c-0.1-0.2-0.1-0.3-0.1-0.5c0-0.2,0-0.3,0.1-0.5c0.1-0.2,0.2-0.3,0.3-0.4c0.1-0.1,0.3-0.2,0.4-0.3c0.2-0.1,0.4-0.1,0.6-0.1
		c0.2,0,0.4,0,0.6,0.1c0.2,0.1,0.3,0.2,0.4,0.3c0.1,0.1,0.2,0.3,0.3,0.4c0.1,0.2,0.1,0.3,0.1,0.5c0,0.2,0,0.3-0.1,0.5
		s-0.2,0.3-0.3,0.4c-0.1,0.1-0.3,0.2-0.4,0.3C189.3,72.5,189.2,72.5,188.9,72.5 M188.2,71.2c0,0.1,0,0.2,0.1,0.3
		c0,0.1,0.1,0.2,0.1,0.2c0.1,0.1,0.1,0.1,0.2,0.2c0.1,0,0.2,0.1,0.3,0.1s0.2,0,0.3-0.1c0.1,0,0.2-0.1,0.2-0.2
		c0.1-0.1,0.1-0.1,0.1-0.2c0-0.1,0.1-0.2,0.1-0.3c0-0.1,0-0.2-0.1-0.3c0-0.1-0.1-0.2-0.1-0.2c-0.1-0.1-0.1-0.1-0.2-0.2
		c-0.1,0-0.2-0.1-0.3-0.1s-0.2,0-0.3,0.1c-0.1,0-0.2,0.1-0.2,0.2c-0.1,0.1-0.1,0.2-0.1,0.2C188.3,71,188.2,71.1,188.2,71.2"/>
	<path fill="#58595B" d="M191.1,72.5v-1.9h-0.4v-0.5h0.4v-0.2c0-0.3,0.1-0.6,0.2-0.8c0.2-0.2,0.4-0.3,0.6-0.3c0.2,0,0.4,0.1,0.7,0.2
		l-0.1,0.5c-0.1,0-0.1,0-0.2-0.1c-0.1,0-0.1,0-0.2,0c-0.2,0-0.4,0.2-0.4,0.5v0.2h0.7v0.5h-0.7v1.9H191.1z"/>
	<path fill="#58595B" d="M197.3,71.6c0,0.1,0,0.3-0.1,0.4c-0.1,0.1-0.1,0.2-0.3,0.3c-0.1,0.1-0.2,0.1-0.4,0.2
		c-0.1,0-0.3,0.1-0.4,0.1h-1.7V69h1.9c0.1,0,0.2,0,0.3,0.1c0.1,0,0.2,0.1,0.3,0.2c0.1,0.1,0.1,0.2,0.2,0.3c0,0.1,0.1,0.2,0.1,0.3
		c0,0.2,0,0.3-0.1,0.5c-0.1,0.1-0.2,0.3-0.4,0.3c0.2,0.1,0.4,0.2,0.5,0.3C197.3,71.2,197.3,71.4,197.3,71.6 M195.1,69.6v0.9h0.9
		c0.1,0,0.2,0,0.3-0.1c0.1-0.1,0.1-0.2,0.1-0.3c0-0.1,0-0.2-0.1-0.3c-0.1-0.1-0.2-0.1-0.3-0.1H195.1z M196.6,71.5c0-0.1,0-0.1,0-0.2
		c0-0.1-0.1-0.1-0.1-0.1c0,0-0.1-0.1-0.1-0.1c-0.1,0-0.1,0-0.2,0h-1.1v0.9h1c0.1,0,0.1,0,0.2,0c0.1,0,0.1-0.1,0.1-0.1
		c0,0,0.1-0.1,0.1-0.1C196.6,71.6,196.6,71.5,196.6,71.5"/>
	<path fill="#58595B" d="M198.7,72.5c-0.1,0-0.3,0-0.4-0.1c-0.1,0-0.2-0.1-0.3-0.2c-0.1-0.1-0.1-0.2-0.2-0.3c0-0.1-0.1-0.2-0.1-0.3
		c0-0.1,0-0.2,0.1-0.3c0.1-0.1,0.1-0.2,0.2-0.3c0.1-0.1,0.2-0.1,0.4-0.2c0.1,0,0.3-0.1,0.5-0.1c0.1,0,0.2,0,0.4,0
		c0.1,0,0.2,0,0.3,0.1v-0.1c0-0.2-0.1-0.3-0.1-0.4c-0.1-0.1-0.2-0.1-0.4-0.1c-0.1,0-0.3,0-0.4,0.1c-0.1,0-0.3,0.1-0.4,0.2l-0.2-0.4
		c0.3-0.2,0.7-0.3,1.1-0.3c0.4,0,0.7,0.1,0.9,0.3c0.2,0.2,0.3,0.4,0.3,0.8v0.8c0,0.1,0,0.1,0,0.1c0,0,0.1,0,0.1,0v0.6
		c-0.1,0-0.2,0-0.3,0c-0.1,0-0.2,0-0.3-0.1c-0.1-0.1-0.1-0.1-0.1-0.2l0-0.1c-0.1,0.2-0.3,0.3-0.4,0.3
		C199.1,72.5,198.9,72.5,198.7,72.5 M198.9,72c0.1,0,0.2,0,0.3-0.1c0.1,0,0.2-0.1,0.2-0.2c0.1-0.1,0.1-0.1,0.1-0.2v-0.3
		c-0.1,0-0.2-0.1-0.3-0.1c-0.1,0-0.2,0-0.3,0c-0.2,0-0.3,0-0.4,0.1c-0.1,0.1-0.2,0.2-0.2,0.3c0,0.1,0,0.2,0.1,0.3
		C198.7,72,198.8,72,198.9,72"/>
	<path fill="#58595B" d="M203.6,72.5h-0.7V71c0-0.2,0-0.4-0.1-0.4c-0.1-0.1-0.2-0.1-0.3-0.1c-0.1,0-0.1,0-0.2,0
		c-0.1,0-0.1,0.1-0.2,0.1c-0.1,0-0.1,0.1-0.2,0.2c0,0.1-0.1,0.1-0.1,0.2v1.5h-0.7v-2.6h0.6v0.5c0.1-0.2,0.2-0.3,0.4-0.4
		c0.2-0.1,0.4-0.1,0.6-0.1c0.2,0,0.3,0,0.4,0.1c0.1,0.1,0.2,0.1,0.2,0.2c0.1,0.1,0.1,0.2,0.1,0.3c0,0.1,0,0.2,0,0.4V72.5z"/>
	<path fill="#58595B" d="M205.5,72.5c-0.2,0-0.3,0-0.5-0.1c-0.1-0.1-0.3-0.2-0.4-0.3c-0.1-0.1-0.2-0.3-0.2-0.4
		c-0.1-0.2-0.1-0.3-0.1-0.5c0-0.2,0-0.4,0.1-0.5c0.1-0.2,0.1-0.3,0.3-0.4c0.1-0.1,0.2-0.2,0.4-0.3c0.2-0.1,0.3-0.1,0.5-0.1
		c0.2,0,0.4,0,0.5,0.1c0.2,0.1,0.3,0.2,0.4,0.4v-0.4h0.6v2.4c0,0.2,0,0.4-0.1,0.5c-0.1,0.1-0.2,0.3-0.3,0.4
		c-0.1,0.1-0.3,0.2-0.5,0.2c-0.2,0.1-0.4,0.1-0.6,0.1c-0.3,0-0.5,0-0.7-0.1c-0.2-0.1-0.4-0.2-0.5-0.4l0.4-0.4
		c0.1,0.1,0.2,0.2,0.4,0.3c0.2,0.1,0.3,0.1,0.5,0.1c0.1,0,0.2,0,0.3,0c0.1,0,0.2-0.1,0.3-0.1c0.1-0.1,0.1-0.1,0.2-0.2
		c0-0.1,0.1-0.2,0.1-0.3V72c-0.1,0.1-0.2,0.3-0.4,0.3C205.8,72.5,205.6,72.5,205.5,72.5 M205.7,72c0.1,0,0.1,0,0.2,0
		c0.1,0,0.1-0.1,0.2-0.1c0.1,0,0.1-0.1,0.2-0.1c0-0.1,0.1-0.1,0.1-0.2v-0.6c-0.1-0.1-0.2-0.3-0.3-0.4c-0.1-0.1-0.3-0.1-0.4-0.1
		c-0.1,0-0.2,0-0.3,0.1c-0.1,0-0.2,0.1-0.2,0.2c-0.1,0.1-0.1,0.2-0.1,0.3c0,0.1,0,0.2,0,0.3c0,0.1,0,0.2,0.1,0.3
		c0,0.1,0.1,0.2,0.2,0.2s0.1,0.1,0.2,0.2C205.5,71.9,205.6,72,205.7,72"/>
	<path fill="#58595B" d="M207.8,68.9h0.7v2.7c0,0.1,0,0.2,0.1,0.2c0,0.1,0.1,0.1,0.2,0.1c0,0,0.1,0,0.1,0c0.1,0,0.1,0,0.1-0.1
		l0.1,0.5c-0.1,0-0.2,0.1-0.3,0.1c-0.1,0-0.2,0-0.3,0c-0.2,0-0.4-0.1-0.5-0.2c-0.1-0.1-0.2-0.3-0.2-0.5V68.9z"/>
	<path fill="#58595B" d="M210.4,72.5c-0.1,0-0.2,0-0.4-0.1c-0.1,0-0.2-0.1-0.3-0.2c-0.1-0.1-0.1-0.2-0.2-0.3c0-0.1-0.1-0.2-0.1-0.3
		c0-0.1,0-0.2,0.1-0.3c0.1-0.1,0.1-0.2,0.2-0.3c0.1-0.1,0.2-0.1,0.4-0.2c0.1,0,0.3-0.1,0.5-0.1c0.1,0,0.2,0,0.3,0
		c0.1,0,0.2,0,0.3,0.1v-0.1c0-0.2-0.1-0.3-0.1-0.4c-0.1-0.1-0.3-0.1-0.4-0.1c-0.1,0-0.3,0-0.4,0.1c-0.1,0-0.3,0.1-0.4,0.2l-0.2-0.4
		c0.3-0.2,0.7-0.3,1.1-0.3c0.4,0,0.7,0.1,0.9,0.3c0.2,0.2,0.3,0.4,0.3,0.8v0.8c0,0.1,0,0.1,0,0.1c0,0,0.1,0,0.1,0v0.6
		c-0.1,0-0.2,0-0.3,0c-0.1,0-0.2,0-0.3-0.1c-0.1-0.1-0.1-0.1-0.1-0.2l0-0.1c-0.1,0.2-0.3,0.3-0.4,0.3
		C210.8,72.5,210.6,72.5,210.4,72.5 M210.6,72c0.1,0,0.2,0,0.3-0.1c0.1,0,0.2-0.1,0.2-0.2c0.1-0.1,0.1-0.1,0.1-0.2v-0.3
		c-0.1,0-0.2-0.1-0.3-0.1c-0.1,0-0.2,0-0.3,0c-0.2,0-0.3,0-0.4,0.1c-0.1,0.1-0.2,0.2-0.2,0.3c0,0.1,0,0.2,0.1,0.3
		C210.3,72,210.5,72,210.6,72"/>
	<path fill="#58595B" d="M213.9,72.5c-0.2,0-0.4,0-0.5-0.1c-0.2-0.1-0.3-0.2-0.4-0.3c-0.1-0.1-0.2-0.3-0.3-0.4
		c-0.1-0.2-0.1-0.3-0.1-0.5c0-0.2,0-0.4,0.1-0.5c0.1-0.2,0.1-0.3,0.2-0.4c0.1-0.1,0.2-0.2,0.4-0.3c0.1-0.1,0.3-0.1,0.5-0.1
		c0.2,0,0.4,0,0.5,0.1c0.2,0.1,0.3,0.2,0.4,0.4v-1.5h0.7v2.8c0,0.1,0,0.1,0,0.1c0,0,0.1,0,0.1,0v0.6c-0.1,0-0.2,0-0.3,0
		c-0.1,0-0.2,0-0.3-0.1c-0.1-0.1-0.1-0.1-0.1-0.2l0-0.2c-0.1,0.2-0.2,0.3-0.4,0.4C214.2,72.5,214.1,72.5,213.9,72.5 M214.1,72
		c0.1,0,0.1,0,0.2,0c0.1,0,0.1-0.1,0.2-0.1c0.1,0,0.1-0.1,0.2-0.1c0-0.1,0.1-0.1,0.1-0.2v-0.6c0-0.1-0.1-0.1-0.1-0.2
		c0-0.1-0.1-0.1-0.2-0.2c-0.1,0-0.1-0.1-0.2-0.1c-0.1,0-0.1,0-0.2,0c-0.1,0-0.2,0-0.3,0.1c-0.1,0-0.2,0.1-0.2,0.2
		c-0.1,0.1-0.1,0.2-0.1,0.3c0,0.1-0.1,0.2-0.1,0.3c0,0.1,0,0.2,0.1,0.3c0,0.1,0.1,0.2,0.2,0.2s0.1,0.1,0.2,0.2
		C213.9,71.9,214,72,214.1,72"/>
	<path fill="#58595B" d="M217.5,72.5c-0.2,0-0.4,0-0.6-0.1c-0.2-0.1-0.3-0.2-0.4-0.3c-0.1-0.1-0.2-0.3-0.3-0.4
		c-0.1-0.2-0.1-0.3-0.1-0.5c0-0.2,0-0.4,0.1-0.5c0.1-0.2,0.2-0.3,0.3-0.4c0.1-0.1,0.3-0.2,0.4-0.3c0.2-0.1,0.4-0.1,0.6-0.1
		s0.4,0,0.6,0.1c0.2,0.1,0.3,0.2,0.4,0.3c0.1,0.1,0.2,0.3,0.3,0.4c0.1,0.2,0.1,0.3,0.1,0.5c0,0,0,0.1,0,0.1c0,0,0,0.1,0,0.1h-2.1
		c0,0.1,0,0.2,0.1,0.3c0,0.1,0.1,0.1,0.2,0.2c0.1,0.1,0.1,0.1,0.2,0.1c0.1,0,0.2,0,0.3,0c0.1,0,0.3,0,0.4-0.1
		c0.1-0.1,0.2-0.1,0.2-0.2l0.6,0.2c-0.1,0.2-0.3,0.4-0.5,0.5C218.1,72.5,217.8,72.5,217.5,72.5 M218.2,71c0-0.2-0.1-0.3-0.2-0.5
		c-0.1-0.1-0.3-0.2-0.5-0.2c-0.1,0-0.2,0-0.3,0c-0.1,0-0.1,0.1-0.2,0.1c-0.1,0.1-0.1,0.1-0.1,0.2c0,0.1-0.1,0.2-0.1,0.3H218.2z"/>
	<path fill="#58595B" d="M220.5,72.5c-0.2,0-0.4,0-0.7-0.1c-0.2-0.1-0.4-0.2-0.5-0.3l0.3-0.4c0.2,0.1,0.3,0.2,0.5,0.3
		c0.2,0.1,0.3,0.1,0.5,0.1c0.1,0,0.2,0,0.3-0.1c0.1,0,0.1-0.1,0.1-0.2c0-0.1,0-0.2-0.1-0.2c-0.1,0-0.2-0.1-0.4-0.1
		c-0.2,0-0.3-0.1-0.4-0.1c-0.1,0-0.2-0.1-0.3-0.1c-0.1-0.1-0.1-0.1-0.2-0.2c0-0.1-0.1-0.1-0.1-0.3c0-0.1,0-0.2,0.1-0.3
		c0.1-0.1,0.1-0.2,0.2-0.3c0.1-0.1,0.2-0.1,0.3-0.2c0.1,0,0.3-0.1,0.4-0.1c0.2,0,0.4,0,0.6,0.1c0.2,0.1,0.3,0.1,0.5,0.3l-0.3,0.4
		c-0.1-0.1-0.3-0.2-0.4-0.2c-0.1,0-0.3-0.1-0.4-0.1c-0.1,0-0.2,0-0.3,0.1c-0.1,0-0.1,0.1-0.1,0.2c0,0,0,0.1,0,0.1c0,0,0,0.1,0.1,0.1
		c0,0,0.1,0,0.2,0.1c0.1,0,0.2,0,0.2,0.1c0.2,0,0.3,0.1,0.5,0.1c0.1,0,0.2,0.1,0.3,0.2c0.1,0.1,0.1,0.1,0.2,0.2
		c0,0.1,0.1,0.2,0.1,0.3c0,0.2-0.1,0.4-0.3,0.6C221.1,72.5,220.9,72.5,220.5,72.5"/>
	<path fill="#58595B" d="M224.7,72.5H224V71c0-0.2,0-0.3-0.1-0.4c-0.1-0.1-0.2-0.1-0.3-0.1c-0.1,0-0.1,0-0.2,0
		c-0.1,0-0.1,0.1-0.2,0.1c-0.1,0-0.1,0.1-0.2,0.2c-0.1,0.1-0.1,0.1-0.1,0.2v1.5h-0.7v-3.6h0.7v1.5c0.1-0.2,0.2-0.3,0.4-0.4
		c0.2-0.1,0.4-0.1,0.6-0.1c0.2,0,0.3,0,0.4,0.1c0.1,0.1,0.2,0.1,0.3,0.2c0.1,0.1,0.1,0.2,0.1,0.3c0,0.1,0,0.2,0,0.4V72.5z"/>
	<path fill="#046936" d="M67.9,32.5c0-1.2,1.2-2.2,2.7-2.2c1.5,0,2.7,1,2.7,2.2V63c0,1.2-1.2,2.2-2.7,2.2c-1.5,0-2.7-1-2.7-2.2V32.5
		z"/>
	<path fill="#046936" d="M35.3,57.5c-1.8,2-4,3.8-6.6,5.3c-2.6,1.5-5.3,2.2-8.3,2.2c-2.8,0-5.4-0.5-7.8-1.5c-2.4-1-4.5-2.4-6.3-4.1
		C4.5,57.5,3,55.4,2,53c-1.1-2.4-1.6-5.1-1.6-8c0-2.8,0.5-5.4,1.5-7.8c1-2.5,2.4-4.6,4.2-6.4c1.8-1.8,3.9-3.3,6.4-4.3
		c2.5-1,5.1-1.6,8-1.6c2.7,0,5.2,0.5,7.6,1.6c2.4,1.1,4.5,2.5,6.3,4.4c1.8,1.8,3.3,4,4.4,6.4c1.1,2.4,1.6,5,1.6,7.8v17.5
		c0,0.7-0.2,1.3-0.7,1.8c-0.5,0.5-1.1,0.8-1.8,0.8c-0.7,0-1.3-0.3-1.8-0.8c-0.5-0.5-0.7-1.1-0.7-1.8V57.5z M35.3,45
		c0-2-0.4-4-1.2-5.8c-0.8-1.8-1.8-3.4-3.2-4.8c-1.4-1.4-2.9-2.4-4.8-3.2c-1.8-0.8-3.8-1.2-5.8-1.2c-2,0-4,0.4-5.8,1.2
		c-1.8,0.8-3.4,1.8-4.7,3.2c-1.4,1.4-2.4,2.9-3.2,4.8C5.9,41,5.5,43,5.5,45c0,2,0.4,4,1.2,5.8c0.8,1.8,1.8,3.4,3.2,4.7
		c1.4,1.4,2.9,2.4,4.7,3.2c1.8,0.8,3.7,1.2,5.8,1.2c2,0,3.9-0.4,5.6-1.1c1.8-0.7,3.3-1.8,4.7-3.1c1.4-1.3,2.4-2.9,3.2-4.7
		C34.7,49.2,35.2,47.2,35.3,45"/>
	<path fill="#AB2225" d="M32.5,44.9c0-6.7-5.4-12.1-12.1-12.1c-6.7,0-12.1,5.4-12.1,12.1c0,6.7,5.4,12.1,12.1,12.1
		C27.1,57,32.5,51.6,32.5,44.9"/>
	<path fill="#0C9047" d="M34.5,30.8c-1.8-1.8-3.9-3.3-6.3-4.4c-2.4-1.1-4.9-1.6-7.6-1.6c-2.9,0-5.5,0.5-8,1.6
		c-2.5,1.1-4.6,2.5-6.4,4.3c-0.6,0.6-1.2,1.3-1.8,2c0.9,1.6,2,3.1,3.2,4.6c0.6-1.1,1.4-2.1,2.3-3c1.4-1.3,2.9-2.4,4.7-3.2
		c1.8-0.8,3.7-1.2,5.8-1.2c2,0,4,0.4,5.8,1.2c1.8,0.8,3.4,1.8,4.8,3.2c1.4,1.4,2.4,2.9,3.2,4.8c0.8,1.8,1.2,3.8,1.2,5.8
		c-0.1,1.5-0.3,2.8-0.7,4.1c1.9,0,3.8,0,5.8-0.2v-4c0-2.8-0.5-5.4-1.6-7.8C37.8,34.8,36.3,32.7,34.5,30.8"/>
	<path fill="#0C9047" d="M70.6,27.8c0.9,0,1.7-0.3,2.4-1c0.6-0.7,1-1.4,1-2.3c0-0.9-0.3-1.7-1-2.4c-0.6-0.6-1.4-1-2.4-1
		c-0.9,0-1.7,0.3-2.4,1c-0.6,0.7-1,1.4-1,2.4c0,0.9,0.3,1.7,1,2.3C68.9,27.4,69.7,27.8,70.6,27.8"/>
	<path fill="#E4282B" d="M20.4,32.8c-4.8,0-8.9,2.8-10.9,6.8c4.9,4.9,12,8.7,22.3,9.5c0.5-1.3,0.7-2.7,0.7-4.1
		C32.5,38.2,27.1,32.8,20.4,32.8"/>
	<path fill="#0C9047" d="M73.3,42.1v-9.5c0-1.2-1.2-2.2-2.7-2.2c-1.5,0-2.7,1-2.7,2.2v12.1C69.7,43.9,71.6,43.1,73.3,42.1"/>
	<path fill="#046A38" d="M10.9,71.4H9.8v-1h1.1V71.4z M10.9,76H9.8v-4.1h1.1V76z"/>
	<path fill="#046A38" d="M15.7,76h-1.1v-2.5c0-0.3,0-0.8-0.7-0.8c-0.5,0-0.8,0.3-0.8,1V76H12v-4.1h1v0.6h0c0.1-0.2,0.5-0.7,1.2-0.7
		c0.8,0,1.4,0.5,1.4,1.4V76z"/>
	<path fill="#046A38" d="M20.4,76h-1.1v-2.5c0-0.3,0-0.8-0.7-0.8c-0.5,0-0.8,0.3-0.8,1V76h-1.1v-4.1h1v0.6h0
		c0.1-0.2,0.5-0.7,1.2-0.7c0.8,0,1.4,0.5,1.4,1.4V76z"/>
	<path fill="#046A38" d="M23.3,76.1c-1.1,0-2.1-0.7-2.1-2.2c0-1.5,1-2.2,2.1-2.2c1.1,0,2.1,0.7,2.1,2.2
		C25.4,75.4,24.4,76.1,23.3,76.1 M23.3,72.7c-0.8,0-1,0.7-1,1.3c0,0.5,0.2,1.3,1,1.3c0.8,0,1-0.7,1-1.3
		C24.3,73.4,24.1,72.7,23.3,72.7"/>
	<polygon fill="#046A38" points="28.2,76 27.1,76 25.6,71.9 26.8,71.9 27.7,74.9 27.7,74.9 28.6,71.9 29.7,71.9 	"/>
	<path fill="#046A38" d="M33.5,75.2c0,0.5,0.1,0.6,0.2,0.6V76h-1.2c-0.1-0.2-0.1-0.3-0.1-0.5c-0.2,0.3-0.6,0.6-1.3,0.6
		c-0.6,0-1.3-0.4-1.3-1.2c0-0.8,0.5-1.2,1.2-1.3l1-0.1c0.2,0,0.4-0.1,0.4-0.3c0-0.5-0.4-0.5-0.7-0.5c-0.5,0-0.6,0.3-0.7,0.6h-1
		c0.1-1.3,1-1.4,1.8-1.4c0.6,0,1.6,0.2,1.6,1.2V75.2z M32.4,74c-0.1,0.1-0.3,0.2-0.7,0.2c-0.4,0.1-0.7,0.2-0.7,0.6
		c0,0.4,0.3,0.5,0.5,0.5c0.5,0,1-0.3,1-0.8V74z"/>
	<path fill="#046A38" d="M35.7,71.9h0.7v0.8h-0.7v2.2c0,0.2,0,0.3,0.4,0.3c0.1,0,0.1,0,0.2,0V76c-0.2,0-0.3,0-0.5,0h-0.1
		c-0.9,0-1.1-0.4-1.1-0.9v-2.5H34v-0.8h0.6v-1.1h1.1V71.9z"/>
	<path fill="#046A38" d="M40.6,74.8c-0.3,1-1.1,1.3-1.8,1.3c-1.2,0-2.1-0.6-2.1-2.3c0-0.5,0.2-2.1,2-2.1c0.8,0,1.9,0.4,1.9,2.3v0.2
		h-2.8c0,0.3,0.1,1,1,1c0.3,0,0.6-0.2,0.7-0.4H40.6z M39.5,73.5c-0.1-0.7-0.5-0.9-0.8-0.9c-0.5,0-0.8,0.3-0.8,0.9H39.5z"/>
	<path fill="#046A38" d="M44.8,76h-1.1v-3.3h-0.6v-0.8h0.6v-0.3c0-0.9,0.5-1.2,1.2-1.2c0.3,0,0.5,0,0.6,0v0.9h-0.3
		c-0.4,0-0.4,0.1-0.4,0.5v0.2h0.7v0.8h-0.7V76z"/>
	<path fill="#046A38" d="M47.8,76.1c-1.1,0-2.1-0.7-2.1-2.2c0-1.5,1-2.2,2.1-2.2c1.1,0,2.1,0.7,2.1,2.2
		C49.9,75.4,48.9,76.1,47.8,76.1 M47.8,72.7c-0.8,0-1,0.7-1,1.3c0,0.5,0.2,1.3,1,1.3c0.8,0,1-0.7,1-1.3
		C48.8,73.4,48.6,72.7,47.8,72.7"/>
	<path fill="#046A38" d="M50.6,71.9h1v0.7h0c0.2-0.4,0.5-0.8,1.1-0.8c0.1,0,0.1,0,0.2,0v1.1c-0.1,0-0.2,0-0.3,0c-0.8,0-1,0.5-1,1V76
		h-1.1V71.9z"/>
	<path fill="#046A38" d="M59.2,75.2c0,0.5,0.1,0.6,0.2,0.6V76h-1.2c-0.1-0.2-0.1-0.3-0.1-0.5c-0.2,0.3-0.6,0.6-1.3,0.6
		c-0.6,0-1.3-0.4-1.3-1.2c0-0.8,0.5-1.2,1.2-1.3l1-0.1c0.2,0,0.4-0.1,0.4-0.3c0-0.5-0.4-0.5-0.7-0.5c-0.5,0-0.6,0.3-0.7,0.6h-1
		c0.1-1.3,1-1.4,1.8-1.4c0.6,0,1.6,0.2,1.6,1.2V75.2z M58.1,74c-0.1,0.1-0.3,0.2-0.7,0.2c-0.4,0.1-0.7,0.2-0.7,0.6
		c0,0.4,0.3,0.5,0.5,0.5c0.5,0,1-0.3,1-0.8V74z"/>
	<rect x="60.2" y="70.4" fill="#046A38" width="1.1" height="5.6"/>
	<rect x="62.3" y="70.4" fill="#046A38" width="1.1" height="5.6"/>
	<path fill="#046936" d="M63.1,47.2c0.2-0.4,0.4-0.8,0.6-1.2c-1.4,0.4-4,1.2-6.6,1.9c-0.6,0.7-1.4,1.4-2.3,2.3L43.6,60.7l0,0
		c-0.7,0.7-1,1.3-1.1,1.9v0.1c0,0.5,0.1,0.9,0.4,1.3c0.2,0.3,0.5,0.5,0.8,0.7c0.3,0.2,0.6,0.3,0.9,0.3l0,0c0.3,0,0.4,0.1,0.6,0.1
		h16.9c0.6,0,1.2-0.2,1.6-0.6c0.4-0.4,0.7-1,0.7-1.6c0-0.6-0.2-1.2-0.7-1.6c-0.4-0.4-1-0.7-1.6-0.7H50l9.2-8.6
		C61,50.4,62.3,48.8,63.1,47.2"/>
	<path fill="#039047" d="M63.6,38.1c-0.5-1.3-1.3-2.4-2.2-3.4c-0.9-1-2-1.7-3.2-2.3c-1.2-0.6-2.6-0.9-4-0.9c-1.6,0-3.1,0.3-4.3,0.8
		c-1.3,0.5-2.3,1.2-3.2,2.1c-0.9,0.8-1.6,1.7-2.1,2.7c-0.5,1-0.8,1.9-0.8,2.8c0,0.6,0.2,1.2,0.6,1.6c0.4,0.4,1,0.6,1.6,0.6
		c0.8,0,1.3-0.4,1.5-0.7c0.3-0.4,0.5-0.8,0.6-1.3l0,0c0.4-1.4,1-2.4,2.1-3.2c1-0.8,2.2-1.1,3.7-1.1c0.9,0,1.7,0.2,2.5,0.5
		c0.7,0.3,1.4,0.8,1.9,1.3c0.5,0.6,1,1.2,1.3,2c0.3,0.8,0.5,1.6,0.5,2.5c0,0.1,0,0.3,0,0.4l0,0.1c0,0.1,0,0.2,0,0.3l0,0.1
		c0,0.1,0,0.2,0,0.3l0,0.1c0,0.1,0,0.3-0.1,0.4c-0.1,0.3-0.2,0.6-0.4,1c-0.1,0.1-0.1,0.3-0.2,0.4c0,0.1-0.1,0.2-0.1,0.2
		c-0.4,0.6-0.9,1.3-1.6,2.1c-0.1,0.2-0.3,0.3-0.4,0.5c2.6-0.7,5.2-1.4,6.6-1.9c0.3-0.7,0.5-1.5,0.6-2.3c0-0.3,0.1-0.6,0.1-0.9
		c0-0.2,0-0.3,0-0.5v0c0,0,0-0.1,0-0.1C64.4,40.8,64.1,39.4,63.6,38.1"/>
	<g opacity="0.4">
		<g>
			<defs>
				<rect id="SVGID_1_" x="16.7" y="3.2" width="0.4" height="0.3"/>
			</defs>
			<clipPath id="SVGID_2_">
				<use xlink:href="#SVGID_1_"  overflow="visible"/>
			</clipPath>
			<path clip-path="url(#SVGID_2_)" fill="#009345" d="M17.1,3.2L17.1,3.2c-0.1,0.1-0.2,0.2-0.4,0.3l0,0C16.9,3.5,17,3.4,17.1,3.2"
				/>
		</g>
	</g>
	<g>
		<defs>
			<path id="SVGID_3_" d="M16.3,2.5c-1.4-1-3.3-1.1-4.4-1.2C13,1.4,14.8,1.6,16.3,2.5"/>
		</defs>
		<clipPath id="SVGID_4_">
			<use xlink:href="#SVGID_3_"  overflow="visible"/>
		</clipPath>
		
			<linearGradient id="SVGID_5_" gradientUnits="userSpaceOnUse" x1="-201.5547" y1="345.9173" x2="-200.5547" y2="345.9173" gradientTransform="matrix(12.2807 0 0 -12.2807 2486.9063 4250.0151)">
			<stop  offset="0" style="stop-color:#6C8087"/>
			<stop  offset="1" style="stop-color:#455257"/>
		</linearGradient>
		<rect x="11.8" y="1.3" clip-path="url(#SVGID_4_)" fill="url(#SVGID_5_)" width="4.4" height="1.2"/>
	</g>
	<g>
		<defs>
			<path id="SVGID_6_" d="M11.7,1.3L11.7,1.3l0.1,0c0,0,0,0,0,0c1.1,0,3,0.2,4.4,1.2c0,0,0.1,0,0.1,0.1l0,0c0,0,0,0,0,0
				c0.1-0.1,0.2-0.1,0.4-0.1c0.3,0.1,0.5,0.3,0.4,0.6v0l6.8,2.2c-0.5-1.2-2.6-5.1-7.5-5.1C15,0.3,13.5,0.6,11.7,1.3"/>
		</defs>
		<clipPath id="SVGID_7_">
			<use xlink:href="#SVGID_6_"  overflow="visible"/>
		</clipPath>
		
			<linearGradient id="SVGID_8_" gradientUnits="userSpaceOnUse" x1="-201.5428" y1="345.9516" x2="-200.5428" y2="345.9516" gradientTransform="matrix(12.2384 0 0 -12.2384 2478.2285 4236.6968)">
			<stop  offset="0" style="stop-color:#6C8087"/>
			<stop  offset="1" style="stop-color:#455257"/>
		</linearGradient>
		<rect x="11.7" y="0.3" clip-path="url(#SVGID_7_)" fill="url(#SVGID_8_)" width="12.2" height="5.1"/>
	</g>
	<g>
		<defs>
			<path id="SVGID_9_" d="M12.5,1.6c0.7,0.3,1.6,1,1.7,2.4c0,0,0.1,1.4,0,3.3l4.1,0.1h0l1.1,0l5.3,0.1c-0.2-0.6-0.5-1.2-0.7-1.7
				c0,0,0-0.1-0.1-0.4l-6.8-2.2c0,0,0,0.1,0,0.1c0,0,0,0,0,0c-0.1,0.1-0.2,0.2-0.4,0.3c-0.1,0-0.1,0-0.2,0c-0.3-0.1-0.5-0.3-0.4-0.6
				c0,0,0-0.1,0-0.1h0c0-0.1,0.1-0.2,0.2-0.2c0,0-0.1,0-0.1-0.1c-1.4-0.9-3.3-1.1-4.4-1.2C12,1.4,12.3,1.5,12.5,1.6"/>
		</defs>
		<clipPath id="SVGID_10_">
			<use xlink:href="#SVGID_9_"  overflow="visible"/>
		</clipPath>
		
			<linearGradient id="SVGID_11_" gradientUnits="userSpaceOnUse" x1="-228.7338" y1="344.1393" x2="-227.7338" y2="344.1393" gradientTransform="matrix(-2.047530e-002 5.1386 5.1386 2.047530e-002 -1754.7899 1170.4601)">
			<stop  offset="0" style="stop-color:#272E31"/>
			<stop  offset="1" style="stop-color:#505B61"/>
		</linearGradient>
		<polygon clip-path="url(#SVGID_10_)" fill="url(#SVGID_11_)" points="24.8,1.3 24.7,7.5 11.8,7.4 11.8,1.3 		"/>
	</g>
	<g>
		<defs>
			<path id="SVGID_12_" d="M13.8,10.5c-0.3,1-0.4,2.5,0,4.2l3.7-4.8l0.3-0.4l0.6-0.8c0-0.4-0.1-0.9-0.1-1.3l-4.1-0.1
				C14.2,8.2,14,9.4,13.8,10.5"/>
		</defs>
		<clipPath id="SVGID_13_">
			<use xlink:href="#SVGID_12_"  overflow="visible"/>
		</clipPath>
		
			<linearGradient id="SVGID_14_" gradientUnits="userSpaceOnUse" x1="-196.3342" y1="360.9446" x2="-195.3342" y2="360.9446" gradientTransform="matrix(4.8825 0 0 -4.8825 972.1134 1773.262)">
			<stop  offset="0" style="stop-color:#6C8087"/>
			<stop  offset="1" style="stop-color:#455257"/>
		</linearGradient>
		<rect x="13.4" y="7.2" clip-path="url(#SVGID_13_)" fill="url(#SVGID_14_)" width="5" height="7.5"/>
	</g>
	<g>
		<defs>
			<path id="SVGID_15_" d="M18.1,9.1l-0.3,0.4l-0.3,0.4l1,0.2c0-0.5-0.1-1-0.1-1.4L18.1,9.1z"/>
		</defs>
		<clipPath id="SVGID_16_">
			<use xlink:href="#SVGID_15_"  overflow="visible"/>
		</clipPath>
		
			<linearGradient id="SVGID_17_" gradientUnits="userSpaceOnUse" x1="-164.6204" y1="452.2327" x2="-163.6202" y2="452.2327" gradientTransform="matrix(1.0478 0 0 -1.0478 189.9348 483.2415)">
			<stop  offset="0" style="stop-color:#6C8087"/>
			<stop  offset="1" style="stop-color:#455257"/>
		</linearGradient>
		<rect x="17.4" y="8.7" clip-path="url(#SVGID_16_)" fill="url(#SVGID_17_)" width="1" height="1.4"/>
	</g>
	<g>
		<defs>
			<path id="SVGID_18_" d="M18.4,8.7c0,0.5,0.1,1,0.1,1.4l8.2,1.6c-0.2-0.4-0.4-0.8-0.6-1.3c0,0-0.6-1.4-1.3-3l-5.3-0.1l-1.1,0
				C18.3,7.8,18.4,8.2,18.4,8.7"/>
		</defs>
		<clipPath id="SVGID_19_">
			<use xlink:href="#SVGID_18_"  overflow="visible"/>
		</clipPath>
		
			<linearGradient id="SVGID_20_" gradientUnits="userSpaceOnUse" x1="-241.0995" y1="349.083" x2="-240.0995" y2="349.083" gradientTransform="matrix(4.476740e-002 3.3575 3.3575 -4.476740e-002 -1138.8193 832.4059)">
			<stop  offset="0" style="stop-color:#6C8087"/>
			<stop  offset="1" style="stop-color:#455257"/>
		</linearGradient>
		<polygon clip-path="url(#SVGID_19_)" fill="url(#SVGID_20_)" points="26.6,7.2 26.7,11.7 18.3,11.8 18.3,7.3 		"/>
	</g>
	<g>
		<defs>
			<path id="SVGID_21_" d="M18.3,20.9C18.3,20.9,18.3,20.9,18.3,20.9L18.3,20.9z M13.7,14.7c0.4,2.1,1.7,4.4,4.6,6.2c0,0,0,0,0,0
				l-0.9-11L13.7,14.7z"/>
		</defs>
		<clipPath id="SVGID_22_">
			<use xlink:href="#SVGID_21_"  overflow="visible"/>
		</clipPath>
		
			<linearGradient id="SVGID_23_" gradientUnits="userSpaceOnUse" x1="-224.557" y1="349.7113" x2="-223.557" y2="349.7113" gradientTransform="matrix(1.488 5.1782 5.1782 -1.488 -1461.4178 1696.1328)">
			<stop  offset="0" style="stop-color:#6C8087"/>
			<stop  offset="1" style="stop-color:#455257"/>
		</linearGradient>
		<polygon clip-path="url(#SVGID_22_)" fill="url(#SVGID_23_)" points="17.9,8.7 21.2,20 14.1,22.1 10.8,10.7 		"/>
	</g>
	<g>
		<defs>
			<path id="SVGID_24_" d="M19.4,14.5l4-1.4c0.1,0,0.2-0.1,0.2-0.1l3.3-0.8c-0.1-0.2-0.2-0.3-0.3-0.5l-8.2-1.6l-1-0.2L19.4,14.5z"/>
		</defs>
		<clipPath id="SVGID_25_">
			<use xlink:href="#SVGID_24_"  overflow="visible"/>
		</clipPath>
		
			<linearGradient id="SVGID_26_" gradientUnits="userSpaceOnUse" x1="-200.5625" y1="348.7735" x2="-199.5624" y2="348.7735" gradientTransform="matrix(9.5347 0 0 -9.5347 1929.7479 3337.6514)">
			<stop  offset="0" style="stop-color:#6C8087"/>
			<stop  offset="1" style="stop-color:#455257"/>
		</linearGradient>
		<rect x="17.4" y="9.9" clip-path="url(#SVGID_25_)" fill="url(#SVGID_26_)" width="9.5" height="4.6"/>
	</g>
	<g>
		<defs>
			<path id="SVGID_27_" d="M18.3,20.9L18.3,20.9l0.8,0.4c1.2,0.6,2.5,1.1,4.2,1.4l-0.1-0.3c-1.6-0.7-3.9-1.9-3.6-3.5
				c0,0,0-0.7,1.1-0.2c0.3,0.1,0.7,0.3,1.1,0.6l-2.1-4.6c0-0.1-0.1-0.2-0.1-0.3l0,0l-2-4.6L18.3,20.9z"/>
		</defs>
		<clipPath id="SVGID_28_">
			<use xlink:href="#SVGID_27_"  overflow="visible"/>
		</clipPath>
		
			<linearGradient id="SVGID_29_" gradientUnits="userSpaceOnUse" x1="-212.181" y1="340.5603" x2="-211.181" y2="340.5603" gradientTransform="matrix(3.4094 14.8205 14.8205 -3.4094 -4306.8716 4307.4619)">
			<stop  offset="0" style="stop-color:#6C8087"/>
			<stop  offset="1" style="stop-color:#455257"/>
		</linearGradient>
		<polygon clip-path="url(#SVGID_28_)" fill="url(#SVGID_29_)" points="22.9,8.6 26,22.1 17.7,24 14.6,10.5 		"/>
	</g>
	<g>
		<defs>
			<path id="SVGID_30_" d="M19.4,14.5C19.4,14.5,19.4,14.5,19.4,14.5c0.1,0.1,0.1,0.2,0.1,0.3l2.1,4.6c0.9,0.4,2,0.9,3.3,0.9l3.1-2
				l1.4-0.9c-0.5,0-1.1,0-1.7-0.1c-1.8-0.2-4.1-1.1-4.7-2c-0.5-0.9-0.5-2,0.3-2.3L19.4,14.5z"/>
		</defs>
		<clipPath id="SVGID_31_">
			<use xlink:href="#SVGID_30_"  overflow="visible"/>
		</clipPath>
		
			<linearGradient id="SVGID_32_" gradientUnits="userSpaceOnUse" x1="-188.7995" y1="329.7108" x2="-187.7995" y2="329.7108" gradientTransform="matrix(-0.268 -7.4137 -7.4137 0.268 2418.3538 -1467.9305)">
			<stop  offset="0" style="stop-color:#6C8087"/>
			<stop  offset="1" style="stop-color:#455257"/>
		</linearGradient>
		<polygon clip-path="url(#SVGID_31_)" fill="url(#SVGID_32_)" points="19.4,20.7 19.2,13.1 29.5,12.7 29.7,20.3 		"/>
	</g>
	<g>
		<defs>
			<path id="SVGID_33_" d="M23.2,22.7c0.4,0.1,0.8,0.2,1.2,0.2c0,0-0.6-0.2-1.4-0.5L23.2,22.7z"/>
		</defs>
		<clipPath id="SVGID_34_">
			<use xlink:href="#SVGID_33_"  overflow="visible"/>
		</clipPath>
		
			<linearGradient id="SVGID_35_" gradientUnits="userSpaceOnUse" x1="-174.0347" y1="425.1345" x2="-173.035" y2="425.1345" gradientTransform="matrix(1.3664 0 0 -1.3664 260.8927 603.5982)">
			<stop  offset="0" style="stop-color:#687A80"/>
			<stop  offset="1" style="stop-color:#A7B7BE"/>
		</linearGradient>
		<rect x="23.1" y="22.5" clip-path="url(#SVGID_34_)" fill="url(#SVGID_35_)" width="1.4" height="0.5"/>
	</g>
	<g>
		<defs>
			<path id="SVGID_36_" d="M26.6,22.3l1.1-0.7c-1,0.1-2,0.1-2.9-0.2C24.7,21.4,25.5,21.9,26.6,22.3"/>
		</defs>
		<clipPath id="SVGID_37_">
			<use xlink:href="#SVGID_36_"  overflow="visible"/>
		</clipPath>
		
			<linearGradient id="SVGID_38_" gradientUnits="userSpaceOnUse" x1="-190.537" y1="377.6321" x2="-189.5368" y2="377.6321" gradientTransform="matrix(2.9254 0 0 -2.9254 582.1257 1126.5709)">
			<stop  offset="0" style="stop-color:#272E31"/>
			<stop  offset="1" style="stop-color:#505B61"/>
		</linearGradient>
		<rect x="24.7" y="21.4" clip-path="url(#SVGID_37_)" fill="url(#SVGID_38_)" width="2.9" height="0.9"/>
	</g>
	<g>
		<defs>
			<path id="SVGID_39_" d="M29.7,17.5c-0.1,0-0.1,0-0.2,0l-1.4,0.9l-3.1,2c0.6,0,1.3,0,1.9-0.2c2.8-0.7,3.4-1.8,6.5-1.9
				c0,0,2.4,0.1,3.9,1.1c0,0-0.4-1.2-3.4-1.7c-1.2-0.2-2.2-0.3-2.9-0.3C30.5,17.4,30.1,17.5,29.7,17.5"/>
		</defs>
		<clipPath id="SVGID_40_">
			<use xlink:href="#SVGID_39_"  overflow="visible"/>
		</clipPath>
		
			<linearGradient id="SVGID_41_" gradientUnits="userSpaceOnUse" x1="-201.5558" y1="345.9132" x2="-200.5557" y2="345.9132" gradientTransform="matrix(12.2845 0 0 -12.2845 2500.9932 4268.2856)">
			<stop  offset="0" style="stop-color:#272E31"/>
			<stop  offset="1" style="stop-color:#505B61"/>
		</linearGradient>
		<rect x="25" y="17.4" clip-path="url(#SVGID_40_)" fill="url(#SVGID_41_)" width="12.3" height="2.9"/>
	</g>
	<g>
		<defs>
			<path id="SVGID_42_" d="M32.9,20.2c-0.6,0.1-1.1,0.2-1.6,0.4c-0.7,0.3-2.1,0.8-3.6,0.9l-1.1,0.7c1.4,0.6,3.3,1,5.3,0.6
				c0,0,5-1.4,7.4,0.3c0,0-2.1-3-5.8-3C33.3,20.2,33.1,20.2,32.9,20.2"/>
		</defs>
		<clipPath id="SVGID_43_">
			<use xlink:href="#SVGID_42_"  overflow="visible"/>
		</clipPath>
		
			<linearGradient id="SVGID_44_" gradientUnits="userSpaceOnUse" x1="-201.6668" y1="345.5902" x2="-200.6667" y2="345.5902" gradientTransform="matrix(12.6936 0 0 -12.6936 2586.4534 4408.5635)">
			<stop  offset="0" style="stop-color:#6C8087"/>
			<stop  offset="1" style="stop-color:#455257"/>
		</linearGradient>
		<rect x="26.6" y="20.2" clip-path="url(#SVGID_43_)" fill="url(#SVGID_44_)" width="12.7" height="3.1"/>
	</g>
	<g>
		<defs>
			<path id="SVGID_45_" d="M27,12.2L23.7,13c0,0,0.9-0.2,1.8,0.7c0.9,0.9,3,2.2,4.9,2c1.9-0.3,2.3-0.5,2.3-0.5S29.3,15.4,27,12.2
				L27,12.2z"/>
		</defs>
		<clipPath id="SVGID_46_">
			<use xlink:href="#SVGID_45_"  overflow="visible"/>
		</clipPath>
		
			<linearGradient id="SVGID_47_" gradientUnits="userSpaceOnUse" x1="-190.49" y1="337.093" x2="-189.49" y2="337.093" gradientTransform="matrix(3.5281 -8.1279 -8.1279 -3.5281 3436.7034 -337.1295)">
			<stop  offset="0" style="stop-color:#272E31"/>
			<stop  offset="1" style="stop-color:#505B61"/>
		</linearGradient>
		<polygon clip-path="url(#SVGID_46_)" fill="url(#SVGID_47_)" points="22.3,15.3 25.1,8.9 34,12.8 31.3,19.2 		"/>
	</g>
	<g opacity="0.4">
		<g>
			<defs>
				<rect id="SVGID_48_" x="11.7" y="1.3" width="25.6" height="21.7"/>
			</defs>
			<clipPath id="SVGID_49_">
				<use xlink:href="#SVGID_48_"  overflow="visible"/>
			</clipPath>
			<path clip-path="url(#SVGID_49_)" fill="#221F1F" d="M19.4,19c0,0,0-0.7,1.1-0.2c1.1,0.5,3.6,2.1,6.4,1.3
				c2.8-0.7,3.5-1.8,6.5-1.9c0,0,2.5,0.1,3.9,1.1c0,0-0.3-1.2-3.5-1.7c-1.9-0.3-3.1-0.3-4.1-0.2c0.4,0,0.8,0,1.3,0
				c-0.3,0.1-0.7,0.3-1,0.4c-3,1.1-6.6,1.3-9.1-1.1c-2.9-2.9-2.3-7.6-2.8-11.3c-0.1-0.9-0.5-1.7-1-2.2c-0.1,0.2-0.3,0.3-0.6,0.3
				c-0.3-0.1-0.5-0.3-0.4-0.6c0-0.1,0.1-0.3,0.2-0.3c-1.4-1-3.3-1.2-4.5-1.2c-0.1,0-0.2,0-0.2,0s2.4,0.4,2.5,2.7
				c0,0,0.3,3.5-0.4,6.6C13,13.6,13.4,21.1,24.5,23C24.5,23,19.1,21.3,19.4,19"/>
		</g>
	</g>
	<polygon fill="#FFFFFF" points="24.8,53.4 23.3,50.5 24.7,49.8 21.3,47.5 21.1,51.7 22.5,50.9 24,53.8 	"/>
	<path fill="#F2F2F3" d="M15.8,46.3v0.9h-3.1v-2.4c0-0.1,0-0.2,0-0.3c0-0.1,0.1-0.2,0.1-0.2c0.1-0.1,0.2-0.2,0.3-0.3l1.2-1
		c0.1-0.1,0.2-0.1,0.2-0.2c0.1-0.1,0.1-0.1,0.1-0.1c0,0,0-0.1,0-0.1c0,0,0-0.1,0-0.2v-1.5c0-0.3-0.2-0.5-0.5-0.5h-0.1
		c-0.3,0-0.5,0.2-0.5,0.5v0.8h-1.1v-0.9c0-0.9,0.5-1.3,1.4-1.3h0.6c0.9,0,1.4,0.4,1.4,1.3v1.9c0,0.1,0,0.3-0.1,0.4
		c0,0.1-0.2,0.2-0.3,0.4l-1.3,1.1c-0.2,0.1-0.3,0.2-0.3,0.3c0,0.1,0,0.1,0,0.2c0,0.1,0,0.1,0,0.2v1.1H15.8z"/>
	<path fill="#F2F2F3" d="M18.4,47.2c-0.9,0-1.4-0.4-1.4-1.3v-5.2c0-0.9,0.5-1.3,1.4-1.3h0.8c0.9,0,1.4,0.4,1.4,1.3v5.2
		c0,0.9-0.5,1.3-1.4,1.3H18.4z M18.6,40.3c-0.3,0-0.5,0.2-0.5,0.5v5c0,0.3,0.2,0.5,0.5,0.5H19c0.3,0,0.5-0.2,0.5-0.5v-5
		c0-0.3-0.2-0.5-0.5-0.5H18.6z"/>
	<path fill="#F2F2F3" d="M25.3,45.4h-0.7v1.8h-1.1v-1.8h-2l-0.2-0.9l2.2-5.1h1.1v5.1h0.7V45.4z M23.7,41.5L23.7,41.5l-1.2,3h1.1
		L23.7,41.5z"/>
	<path fill="#F2F2F3" d="M25.9,41.1l-0.3-0.7c0.3-0.1,0.5-0.2,0.8-0.4c0.2-0.2,0.4-0.4,0.5-0.6H27l0.8,0.4v7.5h-1.1v-6.3L25.9,41.1z
		"/>
	<rect x="389.9" y="0.3" fill-rule="evenodd" clip-rule="evenodd" fill="#0968B0" width="37.6" height="37.7"/>
	<rect x="389.9" y="39.1" fill-rule="evenodd" clip-rule="evenodd" fill="#0968B0" width="18.3" height="18.3"/>
	<rect x="409.4" y="39.1" fill-rule="evenodd" clip-rule="evenodd" fill="#0968B0" width="18.2" height="18.3"/>
	<rect x="389.9" y="58.5" fill-rule="evenodd" clip-rule="evenodd" fill="#0968B0" width="18.3" height="18.3"/>
	<rect x="409.4" y="58.5" fill-rule="evenodd" clip-rule="evenodd" fill="#0968B0" width="18.2" height="18.3"/>
	<path fill-rule="evenodd" clip-rule="evenodd" fill="#FFFFFF" d="M405,31c0.2,0.2,0.6,0.6,0.6,0.6c0.9-1,2-2.9,4.7-2.8
		c1.3,0.8,4.2,3.5,7.1,0.5c-1.4,0.5-3,0.9-5.3-0.6c-1.3-0.4-3.2-0.7-4.9,0.5C406.1,30,406.1,30.2,405,31 M412.1,28.4
		c0.7,0.2,5.8,2.3,7.7-1.6c-1.7,1.3-2.7,1.1-5.3,1.3c1.5-1.2,1.4-1.3,2.3-3C415.5,26.1,414.7,27.5,412.1,28.4 M415.9,27.6
		c1,0,5.1-0.3,6.1-4.3c-1.3,1.4-1.8,1.7-2.6,2.1c-0.9,0.4-1.8,0.9-2.2,1.5c0.9-1.5,1.1-1.5,1.2-2.7c0.2-1.6,0.2-1.8,0.5-2.2
		c-0.8,1.2-1.4,1.9-1.8,3.3C416.7,26.4,416.5,26.3,415.9,27.6 M418.6,25.4c0.5-0.2,5-2.6,4.2-5.8c-0.5,1.2-0.3,1.4-1.3,2.2
		c-1,0.8-1.7,1.8-1.8,2.1c0.5-1.9,0.4-3.3-0.1-4.4c-0.5,1.7-0.5,3.8-0.5,4.2C418.9,24.4,418.9,24.1,418.6,25.4 M422.6,15.4
		c0.1,0.3,1.5,3.2-1.9,6.7c-0.1-1.7-0.4-2.6-0.7-3c-0.3-1.4-0.4-2.6-0.3-3c0.8,1.7,1.4,2.4,1.6,4C422,17.7,422.2,17.9,422.6,15.4
		 M421.2,18.5c0.2-0.5,2.1-4.2-0.1-6.8c0.3,2.7,0.2,4.1,0.1,5c-0.6-1.5-1.8-2.5-2.4-3.2c0.4,1.7,1,2.5,1.2,2.8
		C420.5,16.8,420.9,17.4,421.2,18.5 M419,9.9c-0.2-0.2,1.9,0.6,1.8,2.7c0,1.3-0.1,2,0,2.4c-0.8-1-1-1.3-1.7-1.8
		c-0.8-0.6-1.5-1.3-1.6-2.4c0.5,0.6,1.1,1,1.5,1.3c0.4,0.3,1.3,1.2,1.3,1.4C419.9,11.8,419.5,10.4,419,9.9 M416.1,8.4
		c-0.4-0.1,0.7,0.5,1.3,1.5c0.7,1.2,2,2.1,2.1,2.2C419.3,10.9,418.9,9.4,416.1,8.4 M412.6,31c-0.2,0.2-0.6,0.6-0.6,0.6
		c-0.9-1-2-2.8-4.7-2.8c-1.3,0.8-4.2,3.6-7.1,0.5c1.4,0.5,3,0.9,5.3-0.6c1.3-0.4,3.2-0.8,4.9,0.5C411.4,30,411.4,30.2,412.6,31
		 M405.4,28.4c-0.7,0.2-5.8,2.3-7.7-1.5c1.7,1.3,2.7,1.1,5.3,1.3c-1.5-1.1-1.4-1.3-2.3-3C402,26.2,402.8,27.6,405.4,28.4
		 M401.6,27.6c-1,0-5.1-0.2-6.1-4.2c1.3,1.4,1.8,1.7,2.6,2.1c0.9,0.4,1.8,0.9,2.3,1.5c-0.9-1.5-1.1-1.5-1.3-2.7
		c-0.2-1.6-0.2-1.8-0.5-2.2c0.8,1.1,1.4,1.9,1.8,3.3C400.8,26.5,400.9,26.4,401.6,27.6 M398.9,25.5c-0.5-0.2-5-2.6-4.2-5.8
		c0.5,1.2,0.4,1.4,1.3,2.2c1,0.8,1.7,1.8,1.8,2.1c-0.6-1.9-0.4-3.3,0-4.4c0.5,1.7,0.6,3.8,0.6,4.1C398.5,24.5,398.6,24.2,398.9,25.5
		 M394.9,15.5c-0.1,0.3-1.5,3.2,2,6.7c0.1-1.7,0.4-2.6,0.7-3c0.3-1.4,0.4-2.6,0.3-3c-0.8,1.7-1.4,2.4-1.6,4
		C395.5,17.8,395.3,18,394.9,15.5 M396.3,18.6c-0.2-0.5-2.2-4.2,0-6.8c-0.2,2.6-0.2,4.1-0.1,5c0.6-1.5,1.8-2.5,2.4-3.2
		c-0.4,1.7-0.9,2.5-1.2,2.8C397,16.9,396.5,17.5,396.3,18.6 M398.4,10c0.2-0.2-1.9,0.6-1.7,2.7c0,1.3,0.1,2,0,2.4
		c0.8-1,1-1.3,1.7-1.8c0.8-0.6,1.5-1.3,1.6-2.4c-0.5,0.6-1.1,1-1.5,1.3c-0.4,0.3-1.3,1.2-1.3,1.4C397.5,11.9,397.9,10.4,398.4,10
		 M401.3,8.5c0.4-0.1-0.7,0.6-1.3,1.5c-0.7,1.2-2,2.1-2.1,2.2C398.1,11,398.5,9.5,401.3,8.5"/>
	<path fill="#FFFFFF" d="M408.8,27.7c-5.5,0-10-4.5-10-10.1c0-5.5,4.5-10.1,10-10.1c5.5,0,10,4.5,10,10.1
		C418.8,23.2,414.3,27.7,408.8,27.7 M408.8,8c-5.3,0-9.6,4.3-9.6,9.6c0,5.3,4.3,9.6,9.6,9.6c5.3,0,9.6-4.3,9.6-9.6
		C418.3,12.3,414,8,408.8,8"/>
	<path fill="#FFFFFF" d="M408.8,25.7c-4.4,0-8-3.6-8-8c0-4.4,3.6-8,8-8c4.4,0,8,3.6,8,8C416.8,22.1,413.2,25.7,408.8,25.7 M408.8,10
		c-4.2,0-7.6,3.4-7.6,7.6s3.4,7.6,7.6,7.6c4.2,0,7.6-3.4,7.6-7.6S412.9,10,408.8,10"/>
	<path fill="#FFFFFF" d="M408.8,23.7c-3.4,0-6.1-2.7-6.1-6.1c0-3.4,2.7-6.1,6.1-6.1c3.4,0,6.1,2.7,6.1,6.1
		C414.8,21,412.1,23.7,408.8,23.7 M408.8,12c-3.1,0-5.6,2.5-5.6,5.7c0,3.1,2.5,5.7,5.6,5.7c3.1,0,5.6-2.5,5.6-5.7
		C414.4,14.5,411.9,12,408.8,12"/>
	<path fill="#FFFFFF" d="M408.8,21.7c-2.3,0-4.1-1.8-4.1-4.1c0-2.3,1.8-4.1,4.1-4.1s4.1,1.8,4.1,4.1C412.8,19.9,411,21.7,408.8,21.7
		 M408.8,14c-2,0-3.6,1.6-3.6,3.7c0,2,1.6,3.7,3.6,3.7c2,0,3.6-1.6,3.6-3.7C412.4,15.6,410.8,14,408.8,14"/>
	<rect x="408.5" y="7.8" fill="#FFFFFF" width="0.5" height="19.6"/>
	<rect x="398.9" y="17.4" fill="#FFFFFF" width="19.6" height="0.4"/>
	
		<rect x="399" y="17.4" transform="matrix(0.712 0.7022 -0.7022 0.712 130.0854 -281.9952)" fill="#FFFFFF" width="19.7" height="0.5"/>
	
		<rect x="408.6" y="7.7" transform="matrix(0.7116 0.7026 -0.7026 0.7116 130.2871 -282.1833)" fill="#FFFFFF" width="0.4" height="19.7"/>
	<path fill-rule="evenodd" clip-rule="evenodd" fill="#FFFFFF" d="M404.2,21.6c0-1.3-0.1-2.6-0.7-2.8c-0.4-0.3-1.4-1-1.8,0.9
		c-0.5-0.2-2.1-0.2-1.8,0.9c0.5,0.5,3.2,2.7,4,2.7c0.9-0.2,1.6-0.2,1.6-0.4C404.8,21.8,404.9,21.6,404.2,21.6"/>
	<path fill-rule="evenodd" clip-rule="evenodd" fill="#FFFFFF" d="M412.3,10.5c0,0.6,0.4,1.1,0.2,1.8c-0.3-0.3-0.5-0.4-0.4,0.1
		c1.1,2.1,1.3,2.1,1.3,2.1s0,1,0.5,1c0.4,0.4,0.4,1.3-0.2,1c0-0.7,0-0.8-0.5-0.6c-0.3-0.7-0.9-1-1.4-0.9c-0.7,0.1-1.5,0.7-1.6,1
		c-0.4-0.3-0.4-0.4-0.4-0.4c0.6-0.5,0.4-0.9,0.2-0.9c-0.3,0.2-0.4,0.2-0.6,0.4c-0.4-0.1-1.3,0-1.3,0c0-0.3-0.3,0.2-0.3,0.2
		c-0.1,0.2-0.7,0.4-0.8,0.2c-0.4-0.4-0.6-0.8-1.6-0.4c-0.9,0.5-2.1,1-1.7,3.1c0.5-0.3,0.7-0.7,0.7-1.1c0.4-0.1,0.7,0.5,0.4,0.9
		c-0.4,0.2-1,0.7-0.3,0.7c0.3-0.4,0.7-0.3,1.1-0.1c0.5,0.3,1.9,0.9,2.1,1c0.5,0.1,1.3,0.4,0.4,1.2c-0.5,0.4-0.4,0.6-0.5,0.9
		c0,0.3-0.7,0.5-0.1,1.2c0.5,0.4,1.5,1,2,1c0.1,0.6,0.3,1,1.1,1.5c0.5,0.3,0.9,0.6,1.1,0.2c0.8-0.6,1.2-1.4,1.2-2.1
		c0.2-0.4,0.3-0.4,0.4-0.5c-0.3-0.4-0.6-0.6-0.7-0.6c0.3-0.5,0.4-0.4,0.8,0.2c0.4,0.5,0.7,0.3,0.8-0.1c0.1-0.3,0-0.5-0.1-0.4
		c0-0.3-0.2-0.2-0.3,0c-0.3-0.1-0.5-0.3-0.4-0.5c0.1-0.2,0-0.5-0.4-0.5c-0.2,0-0.5,0.1-0.5,0.4c-0.7,0-1.4-0.2-1.4-0.4
		c0.4,0,1,0.1,1.2,0.1c0.3-0.1,0.4-0.9,0.4-1.4c0.2-0.5,0.7-0.5,1.3-0.4c0.6,0.1,0.9-0.1,1-0.2c0.2-0.1,0-0.4-0.7-0.4
		c-0.6-0.1-0.8-0.6-0.6-1c0.1-1.2,0.1-0.9,0.4-1c0.3-0.2,0.7-0.3,0.5-0.9c-0.1-1.1-0.5-1.5-0.8-1.7c-0.8-1.3-1.2-1.7-1-1.8
		c0.5,0.2,0.7,0.5,0.7,0.9c0.5,0.6,1.4,1,1.7,1.5c0.7-0.2,1-0.3,0.6-1c-0.4-0.7-1-1.4-1.2-1.5c-0.4-0.9-0.8-1.4-1.1-1.6
		c0.2-0.1,0.6-0.4-0.2-0.6C413.2,10.3,412.7,10.5,412.3,10.5"/>
	<path fill-rule="evenodd" clip-rule="evenodd" fill="#FFFFFF" d="M406.5,18c-0.2-0.1,0.3-0.6,0.6-0.4
		C407.4,17.7,406.9,18.2,406.5,18"/>
	<path fill-rule="evenodd" clip-rule="evenodd" fill="#FFFFFF" d="M410.6,20c0,0.2-0.2,0.4-0.2,0.4C410.3,20,410.5,19.8,410.6,20"/>
	<path fill-rule="evenodd" clip-rule="evenodd" fill="#0060AE" d="M408.2,19.3c-0.4-0.2-0.5-0.2,0.2-0.4c0.7-0.9-0.2-1.1-0.5-0.8
		c-0.3,0.4-0.6,0.3-0.3-0.2c-0.7-0.4,0.4-1.3,0.8-1.6c0.3-0.1,0.5,0.1,1.2,0.7c-0.1,0.4,0.2,1.5,0.3,1.4c0-0.2,0-0.2,0-0.1
		c0,0,0,0,0,0.1c0,0.2-0.1,0.5-0.2,0.6c-0.4-0.1-0.8-0.7-0.6,0.3C409.1,19.2,408.7,19.3,408.2,19.3"/>
	<path fill-rule="evenodd" clip-rule="evenodd" fill="#FFFFFF" d="M410.2,21.3c-0.3,0.4-0.5,0.3-0.7,0c-0.8,0.1-0.9,0.2-0.9,0.2
		c0.1-0.4,0.8-0.8,0.9-0.6c0.1,0.2,0.7,0.2,1.3-0.3C410.7,21,410.7,21,410.2,21.3"/>
	<path fill-rule="evenodd" clip-rule="evenodd" fill="#FFFFFF" d="M411.6,15.5c0,0-0.4,0-0.2-0.2C411.6,15.1,411.7,15.4,411.6,15.5"
		/>
	<polygon fill-rule="evenodd" clip-rule="evenodd" fill="#FFFFFF" points="411.7,20.4 411.7,20.1 412,20.2 412.1,20.4 	"/>
	<path fill-rule="evenodd" clip-rule="evenodd" fill="#FFFFFF" d="M409.2,9.3c0,0,2.1,0.3,1.7-0.3C410.4,8.7,409.7,8.8,409.2,9.3"/>
	<path fill-rule="evenodd" clip-rule="evenodd" fill="#FFFFFF" d="M395.8,43v6.7c0,2.5,1.1,3.6,2.7,3.6c1.7,0,2.8-1.1,2.8-3.6V43
		h1.5v6.6c0,3.5-1.9,4.9-4.4,4.9c-2.4,0-4.1-1.3-4.1-4.8V43H395.8z"/>
	<path fill-rule="evenodd" clip-rule="evenodd" fill="#FFFFFF" d="M394.3,73.5c0.8,0.1,1.6,0.1,2.7,0.1c2.2,0,4.2-0.6,5.3-1.6
		c1-1,1.6-2.5,1.6-4.4c0-1.8-0.9-3.1-1.9-4c-1-0.9-2.5-1.4-4.6-1.4c-1.2,0-2.2,0.1-3.1,0.2V73.5z M395.7,63.5c0.4-0.1,1-0.1,1.7-0.1
		c3.1,0,4.6,1.7,4.6,4.3c0,3-1.7,4.8-4.8,4.8c-0.6,0-1.1,0-1.5-0.1V63.5"/>
	<path fill-rule="evenodd" clip-rule="evenodd" fill="#FFFFFF" d="M414.9,73.7h1.5v-4.5c0.3,0.1,0.7,0.1,1.2,0.1
		c1.4,0,2.7-0.4,3.4-1.2c0.6-0.6,0.9-1.4,0.9-2.4c0-1-0.4-1.8-1-2.3c-0.7-0.6-1.7-0.9-3.2-0.9c-1.2,0-2.1,0.1-2.8,0.2V73.7z
		 M416.4,63.6c0.3,0,0.7-0.1,1.4-0.1c1.6,0,2.7,0.7,2.7,2.2c0,1.5-1.1,2.4-2.8,2.4c-0.5,0-0.9,0-1.2-0.1V63.6"/>
	<path fill-rule="evenodd" clip-rule="evenodd" fill="#FFFFFF" d="M413.7,54.3V43.1h1.6l3.5,5.7c0.8,1.3,1.5,2.5,2,3.7l0.1,0
		c-0.1-1.5-0.2-2.9-0.2-4.6v-4.7h1.3v11.2h-1.4l-3.5-5.7c-0.8-1.3-1.5-2.5-2-3.8l0,0c0.1,1.4,0.1,2.8,0.1,4.6v4.8H413.7z"/>
</g>
</svg>
