<?xml version="1.0" encoding="utf-8"?>
<!-- Generator: Adobe Illustrator 16.0.0, SVG Export Plug-In . SVG Version: 6.00 Build 0)  -->
<!DOCTYPE svg PUBLIC "-//W3C//DTD SVG 1.1//EN" "http://www.w3.org/Graphics/SVG/1.1/DTD/svg11.dtd">
<svg version="1.1" id="Layer_1" xmlns="http://www.w3.org/2000/svg" xmlns:xlink="http://www.w3.org/1999/xlink" x="0px" y="0px"
	 width="116px" height="50px" viewBox="0 0 116 50" enable-background="new 0 0 116 50" xml:space="preserve">
<g>
	
		<linearGradient id="SVGID_1_" gradientUnits="userSpaceOnUse" x1="11.5322" y1="11.1831" x2="41.1783" y2="40.8292" gradientTransform="matrix(1 0 0 1 0 -0.3921)">
		<stop  offset="0.5676" style="stop-color:#028697"/>
		<stop  offset="0.7676" style="stop-color:#25BDBD"/>
		<stop  offset="1" style="stop-color:#80C99C"/>
	</linearGradient>
	<path fill="url(#SVGID_1_)" d="M18.351,45.106h8.322c7.484,0,13.572-6.088,13.572-13.572v-20.92
		c0.689-0.431,1.148-1.195,1.148-2.065c0-1.342-1.092-2.435-2.434-2.435s-2.434,1.092-2.434,2.435c0,0.86,0.449,1.618,1.125,2.05
		v20.935c0,6.053-4.924,10.975-10.977,10.975h-8.322c-6.052,0-10.976-4.922-10.976-10.975V17.528c0-0.716-0.581-1.297-1.297-1.297
		c-0.717,0-1.298,0.581-1.298,1.297v14.006C4.779,39.018,10.867,45.106,18.351,45.106z M38.958,7.705
		c0.465,0,0.843,0.378,0.843,0.844c0,0.358-0.223,0.665-0.539,0.787c-0.094,0.036-0.197,0.056-0.304,0.056
		c-0.11,0-0.216-0.021-0.312-0.061c-0.311-0.124-0.531-0.427-0.531-0.782C38.115,8.083,38.494,7.705,38.958,7.705z"/>
	
		<linearGradient id="SVGID_2_" gradientUnits="userSpaceOnUse" x1="8.2378" y1="1.9336" x2="44.6375" y2="38.3333" gradientTransform="matrix(1 0 0 1 0 -0.3921)">
		<stop  offset="0.5676" style="stop-color:#028697"/>
		<stop  offset="0.7676" style="stop-color:#25BDBD"/>
		<stop  offset="1" style="stop-color:#80C99C"/>
	</linearGradient>
	<path fill="url(#SVGID_2_)" d="M22.511,36.063c4.792,0,8.69-3.898,8.69-8.691V4.865c0.683-0.431,1.136-1.192,1.136-2.058
		c0-1.342-1.092-2.434-2.434-2.434S27.47,1.465,27.47,2.808c0,0.865,0.454,1.627,1.136,2.058v22.506
		c0,3.361-2.734,6.096-6.095,6.096c-3.36,0-6.094-2.734-6.094-6.096v-7.326c0-0.717-0.581-1.299-1.298-1.299
		s-1.298,0.582-1.298,1.299v7.326C13.822,32.165,17.72,36.063,22.511,36.063z M29.904,1.964c0.465,0,0.843,0.378,0.843,0.844
		c0,0.359-0.226,0.667-0.542,0.788c-0.094,0.036-0.194,0.056-0.301,0.056c-0.106,0-0.208-0.02-0.3-0.056
		c-0.318-0.121-0.542-0.429-0.542-0.788C29.061,2.342,29.438,1.964,29.904,1.964z"/>
	
		<linearGradient id="SVGID_3_" gradientUnits="userSpaceOnUse" x1="5.1089" y1="5.0625" x2="41.5078" y2="41.4614" gradientTransform="matrix(1 0 0 1 0 -0.3921)">
		<stop  offset="0.5676" style="stop-color:#028697"/>
		<stop  offset="0.7676" style="stop-color:#25BDBD"/>
		<stop  offset="1" style="stop-color:#80C99C"/>
	</linearGradient>
	<path fill="url(#SVGID_3_)" d="M22.512,31.542c2.298,0,4.168-1.871,4.168-4.17v-6.199c0-0.717-0.581-1.298-1.298-1.298
		s-1.298,0.581-1.298,1.298v6.199c0,0.869-0.706,1.574-1.573,1.574s-1.573-0.705-1.573-1.574V9.846c0-0.717-0.581-1.298-1.298-1.298
		c-0.716,0-1.297,0.581-1.297,1.298v17.525C18.343,29.67,20.213,31.542,22.512,31.542z"/>
	
		<linearGradient id="SVGID_4_" gradientUnits="userSpaceOnUse" x1="-0.1553" y1="10.3237" x2="36.2465" y2="46.7255" gradientTransform="matrix(1 0 0 1 0 -0.3921)">
		<stop  offset="0.5676" style="stop-color:#028697"/>
		<stop  offset="0.7676" style="stop-color:#25BDBD"/>
		<stop  offset="1" style="stop-color:#80C99C"/>
	</linearGradient>
	<path fill="url(#SVGID_4_)" d="M43.468,24.919c-0.717,0-1.298,0.581-1.298,1.298v6.17c0,8.074-6.569,14.643-14.644,14.643H17.497
		c-8.075,0-14.644-6.568-14.644-14.643c0-0.717-0.581-1.299-1.297-1.299c-0.717,0-1.298,0.582-1.298,1.299
		c0,9.506,7.734,17.24,17.24,17.24h10.029c9.506,0,17.24-7.734,17.24-17.24v-6.17C44.766,25.5,44.185,24.919,43.468,24.919z"/>
	
		<linearGradient id="SVGID_5_" gradientUnits="userSpaceOnUse" x1="4.2153" y1="6.6104" x2="40.216" y2="42.611" gradientTransform="matrix(1 0 0 1 0 -0.3921)">
		<stop  offset="0.5676" style="stop-color:#028697"/>
		<stop  offset="0.7676" style="stop-color:#25BDBD"/>
		<stop  offset="1" style="stop-color:#80C99C"/>
	</linearGradient>
	<path fill="url(#SVGID_5_)" d="M9.3,12.052v16.781c0,6.48,5.271,11.752,11.751,11.752h2.921c6.479,0,11.75-5.271,11.75-11.752
		V15.874c0-0.716-0.581-1.297-1.298-1.297s-1.298,0.581-1.298,1.297v12.959c0,5.049-4.107,9.156-9.155,9.156h-2.921
		c-5.048,0-9.155-4.107-9.155-9.156V12.105c0.706-0.427,1.178-1.202,1.178-2.084c0-1.342-1.092-2.435-2.434-2.435
		s-2.434,1.092-2.434,2.435C8.206,10.869,8.642,11.616,9.3,12.052z M10.64,9.178c0.465,0,0.843,0.379,0.843,0.844
		c0,0.328-0.188,0.612-0.463,0.752c-0.114,0.058-0.243,0.091-0.38,0.091c-0.149,0-0.29-0.039-0.411-0.108
		c-0.258-0.143-0.432-0.418-0.432-0.734C9.797,9.557,10.175,9.178,10.64,9.178z"/>
	<g>
		<g>
			<g>
				<path fill="#5E6C7C" d="M56.573,5.942h-1.159c0.365,0.409,0.751,0.831,1.159,1.265V5.942z"/>
				<path fill="#39BA9B" d="M62.283,10.871V5.942h-2.971v4.013c0.85,0.804,1.766,1.634,2.752,2.48
					C62.207,11.969,62.283,11.45,62.283,10.871z"/>
				<polygon fill="#5E6C7C" points="65.842,14.904 68.863,14.904 68.863,11.652 72.242,5.942 69.324,5.942 67.48,9.041 65.65,5.942 
					62.463,5.942 65.842,11.614 				"/>
				<path fill="#39BA9B" d="M70.553,16.603h-2.918l-0.082,0.138c0.668,0.479,1.355,0.959,2.066,1.439L70.553,16.603z"/>
				<path fill="#39BA9B" d="M78.26,22.748c0-0.647-0.174-1.16-0.52-1.536c-0.346-0.375-0.752-0.646-1.221-0.813
					c-0.471-0.166-1.047-0.314-1.729-0.441c-0.529-0.104-0.91-0.199-1.141-0.289c-0.229-0.089-0.346-0.223-0.346-0.402
					c0-0.376,0.389-0.563,1.166-0.563c0.785,0,1.617,0.222,2.496,0.665l0.91-2.188c-0.453-0.257-0.977-0.45-1.568-0.583
					c-0.594-0.132-1.199-0.198-1.813-0.198c-0.896,0-1.658,0.132-2.285,0.397c-0.627,0.264-1.1,0.627-1.414,1.088
					c-0.178,0.26-0.305,0.535-0.383,0.826c2.354,1.549,4.943,3.095,7.789,4.595C78.24,23.125,78.26,22.94,78.26,22.748z"/>
				<path fill="#5E6C7C" d="M83.996,25.565v-6.619h2.623v-2.343h-8.27v2.343h2.623v5.762c0.592,0.288,1.191,0.574,1.801,0.857
					H83.996z"/>
				<polygon fill="#5E6C7C" points="94.852,23.286 90.369,23.286 90.369,22.108 94.16,22.108 94.16,19.932 90.369,19.932 
					90.369,18.881 94.686,18.881 94.686,16.603 87.4,16.603 87.4,25.565 94.852,25.565 				"/>
				<polygon fill="#5E6C7C" points="98.768,21.622 100.715,24.757 102.045,24.757 103.99,21.48 104.018,25.565 106.77,25.565 
					106.744,16.603 104.26,16.603 101.418,21.377 98.498,16.603 96.016,16.603 96.016,25.565 98.768,25.565 				"/>
				<path fill="#5E6C7C" d="M112.492,23.343c-0.18,0.081-0.479,0.122-0.896,0.122c-0.486,0-0.994-0.075-1.523-0.225
					s-1.008-0.348-1.434-0.596l-0.975,2.202c0.453,0.282,1.031,0.506,1.734,0.671c0.705,0.168,1.428,0.25,2.172,0.25
					c0.895,0,1.658-0.133,2.285-0.402c0.627-0.269,1.098-0.631,1.414-1.088c0.314-0.457,0.473-0.967,0.473-1.53
					c0-0.647-0.172-1.16-0.518-1.536c-0.346-0.375-0.754-0.646-1.223-0.813s-1.045-0.314-1.729-0.441
					c-0.529-0.104-0.908-0.199-1.139-0.289c-0.23-0.089-0.346-0.223-0.346-0.402c0-0.376,0.387-0.563,1.164-0.563
					c0.785,0,1.617,0.222,2.498,0.665l0.908-2.188c-0.453-0.257-0.975-0.45-1.568-0.583c-0.594-0.132-1.197-0.198-1.813-0.198
					c-0.896,0-1.656,0.132-2.285,0.397c-0.627,0.264-1.098,0.627-1.414,1.088s-0.473,0.973-0.473,1.536
					c0,0.648,0.17,1.163,0.512,1.542c0.342,0.381,0.742,0.653,1.203,0.82c0.461,0.166,1.037,0.322,1.729,0.467
					c0.537,0.111,0.924,0.213,1.158,0.307c0.234,0.095,0.352,0.236,0.352,0.423C112.76,23.141,112.67,23.262,112.492,23.343z"/>
			</g>
			<g>
				<path fill="#445665" d="M53.552,10.871c0,1.34,0.384,2.381,1.153,3.124c0.768,0.742,1.838,1.114,3.213,1.114
					c1.373,0,2.445-0.372,3.213-1.114c0.438-0.422,0.744-0.944,0.934-1.559c-0.986-0.847-1.902-1.676-2.752-2.48v0.826
					c0,0.657-0.117,1.135-0.352,1.434c-0.234,0.299-0.574,0.448-1.018,0.448s-0.783-0.149-1.018-0.448
					c-0.234-0.298-0.353-0.776-0.353-1.434V7.208c-0.408-0.434-0.794-0.856-1.159-1.265h-1.862V10.871z"/>
				<path fill="#445665" d="M57.893,23.343c-0.18,0.081-0.479,0.122-0.896,0.122c-0.486,0-0.994-0.075-1.523-0.225
					s-1.007-0.348-1.434-0.596l-0.973,2.202c0.453,0.282,1.031,0.506,1.735,0.671c0.704,0.168,1.427,0.25,2.17,0.25
					c0.896,0,1.657-0.133,2.285-0.402c0.627-0.269,1.098-0.631,1.414-1.088s0.475-0.967,0.475-1.53c0-0.647-0.174-1.16-0.52-1.536
					c-0.346-0.375-0.754-0.646-1.223-0.813s-1.045-0.314-1.729-0.441c-0.528-0.104-0.908-0.199-1.139-0.289
					c-0.23-0.089-0.346-0.223-0.346-0.402c0-0.376,0.389-0.563,1.165-0.563c0.785,0,1.616,0.222,2.497,0.665l0.908-2.188
					c-0.453-0.257-0.975-0.45-1.568-0.583c-0.594-0.132-1.197-0.198-1.811-0.198c-0.896,0-1.658,0.132-2.285,0.397
					c-0.628,0.264-1.1,0.627-1.416,1.088s-0.474,0.973-0.474,1.536c0,0.648,0.171,1.163,0.513,1.542
					c0.341,0.381,0.742,0.653,1.203,0.82c0.461,0.166,1.037,0.322,1.729,0.467c0.537,0.111,0.924,0.213,1.158,0.307
					c0.234,0.095,0.353,0.236,0.353,0.423C58.161,23.141,58.071,23.262,57.893,23.343z"/>
				<path fill="#445665" d="M63.961,16.603h-3.189l3.381,5.671v3.291h3.021v-3.252l2.445-4.133c-0.711-0.48-1.398-0.961-2.066-1.439
					l-1.762,2.961L63.961,16.603z"/>
				<path fill="#445665" d="M70.834,20.961c0.342,0.381,0.744,0.653,1.203,0.82c0.461,0.166,1.039,0.322,1.73,0.467
					c0.537,0.111,0.922,0.213,1.156,0.307c0.236,0.095,0.354,0.236,0.354,0.423c0,0.163-0.09,0.284-0.27,0.365
					s-0.477,0.122-0.896,0.122c-0.486,0-0.994-0.075-1.523-0.225s-1.006-0.348-1.434-0.596l-0.973,2.202
					c0.453,0.282,1.031,0.506,1.734,0.671c0.705,0.168,1.428,0.25,2.17,0.25c0.896,0,1.658-0.133,2.285-0.402
					c0.627-0.269,1.1-0.631,1.416-1.088c0.207-0.302,0.346-0.627,0.416-0.974c-2.846-1.5-5.436-3.046-7.789-4.595
					c-0.059,0.227-0.092,0.463-0.092,0.71C70.322,20.068,70.492,20.583,70.834,20.961z"/>
				<path fill="#39BA9B" d="M82.773,25.565c-0.609-0.283-1.209-0.569-1.801-0.857v0.857H82.773z"/>
				<polygon fill="#445665" points="56.65,27.264 53.629,27.264 53.629,36.225 60.695,36.225 60.695,33.881 56.65,33.881 				"/>
				<polygon fill="#445665" points="60.018,29.606 62.643,29.606 62.643,36.225 65.662,36.225 65.662,29.606 68.287,29.606 
					68.287,27.264 60.018,27.264 				"/>
				<path fill="#445665" d="M76.129,27.807c-0.764-0.363-1.646-0.543-2.645-0.543h-4.416v8.961h4.416
					c0.998,0,1.881-0.182,2.645-0.545s1.355-0.881,1.779-1.555c0.422-0.674,0.633-1.469,0.633-2.383
					c0-0.912-0.211-1.705-0.633-2.379C77.484,28.69,76.893,28.17,76.129,27.807z M74.912,33.313
					c-0.389,0.371-0.906,0.557-1.557,0.557H72.09v-4.25h1.266c0.65,0,1.168,0.186,1.557,0.557s0.582,0.893,0.582,1.566
					C75.494,32.418,75.301,32.942,74.912,33.313z"/>
				<path fill="#445665" d="M80.602,33.049c-0.486,0-0.889,0.152-1.209,0.455s-0.48,0.697-0.48,1.184s0.16,0.887,0.48,1.197
					c0.32,0.313,0.723,0.469,1.209,0.469c0.488,0,0.891-0.156,1.211-0.469c0.32-0.311,0.48-0.711,0.48-1.197s-0.16-0.881-0.48-1.184
					S81.09,33.049,80.602,33.049z"/>
			</g>
		</g>
		<g>
			<path fill="#39BA9B" d="M56.22,43.467v0.541h-3.154v-4.346h3.067v0.539h-2.446v1.336h2.179v0.527h-2.179v1.402H56.22z"/>
			<path fill="#39BA9B" d="M59.908,44.008l-1.305-1.795l-1.285,1.795h-0.713l1.633-2.229l-1.534-2.117h0.708l1.217,1.67l1.205-1.67
				h0.676l-1.533,2.098l1.645,2.248H59.908z"/>
			<path fill="#39BA9B" d="M64.236,40.065c0.322,0.27,0.482,0.641,0.482,1.111c0,0.473-0.16,0.844-0.482,1.111
				c-0.322,0.27-0.768,0.404-1.33,0.404h-1.074v1.316h-0.621v-4.346h1.695C63.469,39.663,63.914,39.795,64.236,40.065z
				 M63.789,41.901c0.207-0.168,0.309-0.41,0.309-0.725s-0.102-0.555-0.309-0.723s-0.508-0.252-0.9-0.252h-1.057v1.949h1.057
				C63.281,42.151,63.582,42.067,63.789,41.901z"/>
			<path fill="#39BA9B" d="M68.537,44.008L67.6,42.672c-0.115,0.01-0.205,0.014-0.273,0.014h-1.072v1.322h-0.621v-4.346h1.693
				c0.564,0,1.008,0.133,1.33,0.402s0.484,0.641,0.484,1.111c0,0.336-0.084,0.621-0.248,0.857c-0.166,0.236-0.402,0.408-0.709,0.516
				l1.031,1.459H68.537z M68.209,41.903c0.207-0.17,0.311-0.412,0.311-0.727s-0.104-0.555-0.311-0.723s-0.508-0.252-0.9-0.252
				h-1.055v1.955h1.055C67.701,42.157,68.002,42.073,68.209,41.903z"/>
			<path fill="#39BA9B" d="M73.301,43.467v0.541h-3.154v-4.346h3.066v0.539h-2.445v1.336h2.178v0.527h-2.178v1.402H73.301z"/>
			<path fill="#39BA9B" d="M74.625,43.905c-0.303-0.102-0.541-0.232-0.715-0.395l0.229-0.482c0.166,0.148,0.377,0.27,0.637,0.361
				c0.258,0.094,0.523,0.141,0.797,0.141c0.359,0,0.629-0.061,0.807-0.184c0.18-0.121,0.268-0.283,0.268-0.486
				c0-0.148-0.049-0.271-0.146-0.363c-0.096-0.094-0.217-0.166-0.359-0.215s-0.346-0.105-0.605-0.168
				c-0.326-0.078-0.592-0.156-0.791-0.236c-0.201-0.078-0.373-0.199-0.516-0.363c-0.143-0.162-0.215-0.383-0.215-0.66
				c0-0.232,0.063-0.441,0.184-0.627c0.123-0.188,0.307-0.336,0.557-0.447c0.248-0.111,0.557-0.168,0.924-0.168
				c0.256,0,0.51,0.033,0.758,0.1s0.461,0.162,0.641,0.287l-0.205,0.494c-0.184-0.115-0.379-0.203-0.584-0.262
				c-0.207-0.061-0.41-0.09-0.609-0.09c-0.352,0-0.615,0.063-0.791,0.191s-0.264,0.293-0.264,0.496c0,0.148,0.051,0.271,0.148,0.363
				c0.1,0.094,0.223,0.166,0.369,0.217c0.146,0.053,0.348,0.107,0.6,0.166c0.326,0.078,0.59,0.156,0.789,0.236
				c0.197,0.078,0.369,0.197,0.512,0.359c0.143,0.16,0.215,0.379,0.215,0.652c0,0.227-0.063,0.436-0.188,0.623
				c-0.123,0.189-0.313,0.338-0.564,0.447s-0.563,0.164-0.932,0.164C75.246,44.057,74.93,44.006,74.625,43.905z"/>
			<path fill="#39BA9B" d="M78.482,43.905c-0.305-0.102-0.545-0.232-0.719-0.395l0.23-0.482c0.166,0.148,0.377,0.27,0.637,0.361
				c0.258,0.094,0.523,0.141,0.797,0.141c0.361,0,0.629-0.061,0.809-0.184c0.178-0.121,0.266-0.283,0.266-0.486
				c0-0.148-0.049-0.271-0.145-0.363c-0.098-0.094-0.219-0.166-0.361-0.215s-0.344-0.105-0.605-0.168
				c-0.326-0.078-0.59-0.156-0.791-0.236c-0.201-0.078-0.373-0.199-0.516-0.363c-0.143-0.162-0.215-0.383-0.215-0.66
				c0-0.232,0.061-0.441,0.184-0.627c0.123-0.188,0.307-0.336,0.557-0.447c0.248-0.111,0.555-0.168,0.924-0.168
				c0.258,0,0.51,0.033,0.758,0.1s0.461,0.162,0.639,0.287l-0.203,0.494c-0.184-0.115-0.377-0.203-0.584-0.262
				c-0.207-0.061-0.41-0.09-0.609-0.09c-0.352,0-0.615,0.063-0.791,0.191s-0.264,0.293-0.264,0.496c0,0.148,0.049,0.271,0.148,0.363
				c0.1,0.094,0.223,0.166,0.369,0.217c0.146,0.053,0.348,0.107,0.6,0.166c0.326,0.078,0.59,0.156,0.789,0.236
				c0.199,0.078,0.369,0.197,0.512,0.359c0.143,0.16,0.215,0.379,0.215,0.652c0,0.227-0.063,0.436-0.188,0.623
				c-0.123,0.189-0.313,0.338-0.564,0.447s-0.563,0.164-0.932,0.164C79.102,44.057,78.785,44.006,78.482,43.905z"/>
			<path fill="#39BA9B" d="M83.688,39.663h1.832c0.459,0,0.867,0.09,1.223,0.271c0.355,0.184,0.633,0.439,0.828,0.768
				c0.197,0.328,0.295,0.707,0.295,1.133s-0.098,0.805-0.295,1.133c-0.195,0.33-0.473,0.586-0.828,0.768s-0.764,0.273-1.223,0.273
				h-1.832V39.663z M85.482,43.467c0.352,0,0.66-0.068,0.928-0.205s0.473-0.328,0.617-0.574s0.219-0.531,0.219-0.854
				s-0.074-0.607-0.219-0.854s-0.35-0.438-0.617-0.574s-0.576-0.205-0.928-0.205h-1.174v3.266H85.482z"/>
			<path fill="#39BA9B" d="M88.816,39.663h0.619v4.346h-0.619V39.663z"/>
			<path fill="#39BA9B" d="M93.752,41.811h0.596v1.693c-0.215,0.18-0.465,0.314-0.752,0.41c-0.285,0.096-0.582,0.143-0.893,0.143
				c-0.439,0-0.834-0.096-1.186-0.289c-0.354-0.191-0.629-0.457-0.83-0.793c-0.201-0.338-0.301-0.719-0.301-1.141
				s0.1-0.803,0.301-1.143s0.479-0.604,0.832-0.795c0.354-0.189,0.752-0.285,1.195-0.285c0.348,0,0.664,0.057,0.947,0.172
				c0.283,0.113,0.523,0.279,0.723,0.5L94,40.667c-0.348-0.334-0.768-0.502-1.26-0.502c-0.332,0-0.629,0.072-0.891,0.215
				c-0.264,0.143-0.469,0.34-0.619,0.596c-0.148,0.254-0.223,0.541-0.223,0.859c0,0.314,0.074,0.6,0.223,0.854
				c0.15,0.256,0.355,0.455,0.619,0.6c0.262,0.145,0.557,0.217,0.885,0.217c0.387,0,0.729-0.092,1.018-0.279V41.811z"/>
			<path fill="#39BA9B" d="M95.533,39.663h0.621v4.346h-0.621V39.663z"/>
			<path fill="#39BA9B" d="M98.322,40.202h-1.49v-0.539h3.594v0.539h-1.49v3.807h-0.613V40.202z"/>
			<path fill="#39BA9B" d="M103.654,42.92h-2.309l-0.479,1.088h-0.641l1.969-4.346h0.615l1.975,4.346h-0.652L103.654,42.92z
				 M103.438,42.424l-0.938-2.129l-0.938,2.129H103.438z"/>
			<path fill="#39BA9B" d="M105.43,39.663h0.621v3.805h2.354v0.541h-2.975V39.663z"/>
			<path fill="#39BA9B" d="M109.119,39.663h0.619v3.805h2.354v0.541h-2.973V39.663z"/>
			<path fill="#39BA9B" d="M114.016,42.506v1.502h-0.613v-1.516l-1.727-2.83h0.664l1.393,2.291l1.396-2.291h0.613L114.016,42.506z"
				/>
		</g>
	</g>
</g>
</svg>
